<svg width="423" height="209" viewBox="0 0 423 209" fill="none" xmlns="http://www.w3.org/2000/svg">
<g clip-path="url(#clip0_28_4138)">
<path d="M134.049 116.691H113.712V140.747H134.049V116.691Z" fill="#F5F5F5"/>
<path d="M114.42 115.119H22.5242V142.254H114.42V115.119Z" fill="#E0E0E0"/>
<path d="M134.663 117.401H111.951V115.119H134.663C135.295 115.119 135.81 115.631 135.81 116.26C135.81 116.895 135.295 117.401 134.663 117.401Z" fill="#E0E0E0"/>
<path d="M134.663 142.255H111.951V139.973H134.663C135.295 139.973 135.81 140.485 135.81 141.114C135.81 141.748 135.295 142.255 134.663 142.255Z" fill="#E0E0E0"/>
<path d="M107.194 115.119H96.3354V142.254H107.194V115.119Z" fill="#EBEBEB"/>
<path d="M42.118 115.422H31.2593V142.557H42.118V115.422Z" fill="#EBEBEB"/>
<path d="M134.049 120.667C134.049 120.731 129.649 120.789 124.22 120.789C118.791 120.789 114.391 120.737 114.391 120.667C114.391 120.603 118.791 120.545 124.22 120.545C129.649 120.545 134.049 120.603 134.049 120.667Z" fill="#E0E0E0"/>
<path d="M134.049 124.277C134.049 124.341 129.649 124.399 124.22 124.399C118.791 124.399 114.391 124.346 114.391 124.277C114.391 124.213 118.791 124.154 124.22 124.154C129.649 124.154 134.049 124.207 134.049 124.277Z" fill="#E0E0E0"/>
<path d="M134.049 128.719C134.049 128.783 129.649 128.841 124.22 128.841C118.791 128.841 114.391 128.789 114.391 128.719C114.391 128.655 118.791 128.597 124.22 128.597C129.649 128.597 134.049 128.649 134.049 128.719Z" fill="#E0E0E0"/>
<path d="M134.049 133.155C134.049 133.22 129.649 133.278 124.22 133.278C118.791 133.278 114.391 133.225 114.391 133.155C114.391 133.091 118.791 133.033 124.22 133.033C129.649 133.039 134.049 133.091 134.049 133.155Z" fill="#E0E0E0"/>
<path d="M134.049 137.597C134.049 137.661 129.649 137.719 124.22 137.719C118.791 137.719 114.391 137.667 114.391 137.597C114.391 137.533 118.791 137.475 124.22 137.475C129.649 137.48 134.049 137.533 134.049 137.597Z" fill="#E0E0E0"/>
<path d="M90.4967 126.273H49.1562V131.158H90.4967V126.273Z" fill="#EBEBEB"/>
<path d="M133.844 142.79H113.198V157.449H133.844V142.79Z" fill="#FAFAFA"/>
<path d="M113.431 142.255H25.5667V157.974H113.431V142.255Z" fill="#F5F5F5"/>
<path d="M112.788 143.32H134.979C135.272 143.32 135.511 143.082 135.511 142.791C135.511 142.499 135.272 142.261 134.979 142.261H112.788V143.32Z" fill="#F5F5F5"/>
<path d="M112.788 157.979H135.266C135.4 157.979 135.511 157.869 135.511 157.735V157.159C135.511 157.025 135.4 156.914 135.266 156.914H112.788V157.979Z" fill="#F5F5F5"/>
<path d="M133.844 145.573C133.844 145.637 129.275 145.696 123.635 145.696C117.995 145.696 113.426 145.643 113.426 145.573C113.426 145.509 117.995 145.451 123.635 145.451C129.269 145.451 133.844 145.509 133.844 145.573Z" fill="#E0E0E0"/>
<path d="M133.844 148.344C133.844 148.408 129.275 148.466 123.635 148.466C117.995 148.466 113.426 148.414 113.426 148.344C113.426 148.28 117.995 148.222 123.635 148.222C129.269 148.228 133.844 148.28 133.844 148.344Z" fill="#E0E0E0"/>
<path d="M133.844 151.121C133.844 151.185 129.275 151.244 123.635 151.244C117.995 151.244 113.426 151.191 113.426 151.121C113.426 151.057 117.995 150.999 123.635 150.999C129.269 150.999 133.844 151.051 133.844 151.121Z" fill="#E0E0E0"/>
<path d="M133.844 153.893C133.844 153.957 129.275 154.015 123.635 154.015C117.995 154.015 113.426 153.963 113.426 153.893C113.426 153.829 117.995 153.771 123.635 153.771C129.269 153.771 133.844 153.823 133.844 153.893Z" fill="#E0E0E0"/>
<path d="M136.974 159.376H115.9V199.109H136.974V159.376Z" fill="#EBEBEB"/>
<path d="M115.9 157.98H16.9839V201.061H115.9V157.98Z" fill="#E0E0E0"/>
<path d="M138.624 201.053H113.198V198.259H138.624C139.402 198.259 140.028 198.882 140.028 199.656C140.028 200.43 139.397 201.053 138.624 201.053Z" fill="#E0E0E0"/>
<path d="M139.385 160.767H113.198V157.973H139.385C139.742 157.973 140.028 158.258 140.028 158.613V160.127C140.028 160.482 139.736 160.767 139.385 160.767Z" fill="#E0E0E0"/>
<path d="M136.974 164.696C136.974 164.761 132.258 164.819 126.437 164.819C120.616 164.819 115.9 164.766 115.9 164.696C115.9 164.632 120.616 164.574 126.437 164.574C132.258 164.58 136.974 164.632 136.974 164.696Z" fill="#E0E0E0"/>
<path d="M136.974 169.797C136.974 169.861 132.258 169.919 126.437 169.919C120.616 169.919 115.9 169.867 115.9 169.797C115.9 169.733 120.616 169.675 126.437 169.675C132.258 169.675 136.974 169.727 136.974 169.797Z" fill="#E0E0E0"/>
<path d="M136.974 174.891C136.974 174.955 132.258 175.013 126.437 175.013C120.616 175.013 115.9 174.961 115.9 174.891C115.9 174.827 120.616 174.769 126.437 174.769C132.258 174.769 136.974 174.827 136.974 174.891Z" fill="#E0E0E0"/>
<path d="M136.974 179.985C136.974 180.049 132.258 180.107 126.437 180.107C120.616 180.107 115.9 180.054 115.9 179.985C115.9 179.921 120.616 179.862 126.437 179.862C132.258 179.868 136.974 179.921 136.974 179.985Z" fill="#E0E0E0"/>
<path d="M136.974 185.085C136.974 185.149 132.258 185.207 126.437 185.207C120.616 185.207 115.9 185.155 115.9 185.085C115.9 185.021 120.616 184.963 126.437 184.963C132.258 184.963 136.974 185.015 136.974 185.085Z" fill="#E0E0E0"/>
<path d="M136.974 190.179C136.974 190.243 132.258 190.301 126.437 190.301C120.616 190.301 115.9 190.249 115.9 190.179C115.9 190.115 120.616 190.057 126.437 190.057C132.258 190.057 136.974 190.115 136.974 190.179Z" fill="#E0E0E0"/>
<path d="M136.974 195.273C136.974 195.337 132.258 195.395 126.437 195.395C120.616 195.395 115.9 195.343 115.9 195.273C115.9 195.209 120.616 195.15 126.437 195.15C132.258 195.156 136.974 195.209 136.974 195.273Z" fill="#E0E0E0"/>
<path d="M50.8296 181.872V184.27C50.8296 187.158 49.3786 188.805 46.582 188.805C43.7854 188.805 42.3345 187.158 42.3345 184.27V174.886C42.3345 171.998 43.7854 170.351 46.582 170.351C49.3786 170.351 50.8296 171.998 50.8296 174.886V176.638H48.1383V174.705C48.1383 173.419 47.5708 172.93 46.6639 172.93C45.7571 172.93 45.1896 173.419 45.1896 174.705V184.451C45.1896 185.737 45.7571 186.203 46.6639 186.203C47.5708 186.203 48.1383 185.737 48.1383 184.451V181.872H50.8296Z" fill="#EBEBEB"/>
<path d="M52.333 174.892C52.333 172.004 53.86 170.356 56.6566 170.356C59.4532 170.356 60.9802 172.004 60.9802 174.892V184.276C60.9802 187.164 59.4532 188.811 56.6566 188.811C53.86 188.811 52.333 187.164 52.333 184.276V174.892ZM55.1823 184.451C55.1823 185.737 55.7498 186.226 56.6566 186.226C57.5635 186.226 58.131 185.737 58.131 184.451V174.711C58.131 173.424 57.5635 172.935 56.6566 172.935C55.7498 172.935 55.1823 173.424 55.1823 174.711V184.451Z" fill="#EBEBEB"/>
<path d="M62.8176 170.561H65.6669V186.023H70.3532V188.602H62.8176V170.561Z" fill="#EBEBEB"/>
<path d="M71.3655 174.892C71.3655 172.004 72.8925 170.356 75.6891 170.356C78.4857 170.356 80.0127 172.004 80.0127 174.892V184.276C80.0127 187.164 78.4857 188.811 75.6891 188.811C72.8925 188.811 71.3655 187.164 71.3655 184.276V174.892ZM74.2147 184.451C74.2147 185.737 74.7822 186.226 75.6891 186.226C76.5959 186.226 77.1634 185.737 77.1634 184.451V174.711C77.1634 173.424 76.5959 172.935 75.6891 172.935C74.7822 172.935 74.2147 173.424 74.2147 174.711V184.451Z" fill="#EBEBEB"/>
<path d="M84.5758 170.561V184.48C84.5758 185.767 85.1433 186.233 86.0502 186.233C86.957 186.233 87.5245 185.767 87.5245 184.48V170.561H90.2158V184.3C90.2158 187.187 88.7649 188.835 85.9683 188.835C83.1717 188.835 81.7207 187.187 81.7207 184.3V170.561H84.5758Z" fill="#EBEBEB"/>
<path d="M98.12 188.602C97.962 188.136 97.8626 187.857 97.8626 186.384V183.549C97.8626 181.872 97.2951 181.255 95.9962 181.255H95.0133V188.602H92.1641V170.561H96.4643C99.4188 170.561 100.688 171.929 100.688 174.711V176.126C100.688 177.983 100.092 179.194 98.8221 179.788C100.25 180.382 100.712 181.744 100.712 183.63V186.413C100.712 187.292 100.735 187.933 101.022 188.602H98.12ZM95.0133 173.14V178.682H96.1249C97.1897 178.682 97.8333 178.216 97.8333 176.772V174.997C97.8333 173.71 97.3945 173.14 96.3824 173.14H95.0133Z" fill="#EBEBEB"/>
<path d="M50.2154 148.449H48.1384L48.2496 147.913H53.0178L52.9008 148.449H50.8297L49.7591 153.77H49.1447L50.2154 148.449Z" fill="#E0E0E0"/>
<path d="M57.0193 149.368L53.7897 154.34C53.2456 155.178 52.8302 155.434 52.1925 155.434C51.783 155.434 51.3617 155.295 51.1394 155.039L51.4612 154.602C51.6543 154.8 51.9058 154.922 52.2452 154.922C52.6255 154.922 52.918 154.747 53.2632 154.212L53.5733 153.746L52.4733 149.368H53.076L53.9945 153.117L56.4108 149.368H57.0193Z" fill="#E0E0E0"/>
<path d="M61.9345 151.19C61.9345 152.704 60.8755 153.81 59.4304 153.81C58.5879 153.81 58.0028 153.467 57.7454 152.849L57.2423 155.394H56.6455L57.8507 149.368H58.4241L58.2837 150.072C58.7049 149.607 59.2958 149.339 60.0096 149.339C61.1388 149.333 61.9345 150.038 61.9345 151.19ZM61.3318 151.225C61.3318 150.364 60.7994 149.851 59.875 149.851C58.7751 149.851 57.9677 150.713 57.9677 151.918C57.9677 152.78 58.5002 153.28 59.4245 153.28C60.5245 153.286 61.3318 152.424 61.3318 151.225Z" fill="#E0E0E0"/>
<path d="M62.6306 151.947C62.6306 150.451 63.7013 149.339 65.1873 149.339C66.416 149.339 67.2 150.061 67.2 151.196C67.2 152.704 66.1293 153.816 64.6432 153.816C63.4146 153.81 62.6306 153.076 62.6306 151.947ZM66.6032 151.225C66.6032 150.364 66.0708 149.851 65.1464 149.851C64.0465 149.851 63.2274 150.719 63.2274 151.918C63.2274 152.78 63.7598 153.28 64.6842 153.28C65.7841 153.286 66.6032 152.424 66.6032 151.225Z" fill="#E0E0E0"/>
<path d="M72.922 149.368L72.1497 153.234C71.8396 154.788 71.0147 155.434 69.5754 155.434C68.7446 155.434 68.0601 155.201 67.6096 154.77L67.9607 154.316C68.3117 154.677 68.9085 154.904 69.6164 154.904C70.7338 154.904 71.3248 154.392 71.5354 153.333L71.6348 152.844C71.2136 153.315 70.6168 153.6 69.868 153.6C68.6978 153.6 67.9139 152.925 67.9139 151.825C67.9139 150.41 68.967 149.333 70.4355 149.333C71.2487 149.333 71.9098 149.665 72.1614 150.334L72.3486 149.362H72.922V149.368ZM71.9157 151.132C71.9157 150.329 71.3716 149.851 70.453 149.851C69.3356 149.851 68.5282 150.672 68.5282 151.79C68.5282 152.593 69.0664 153.071 69.9908 153.071C71.1024 153.076 71.9157 152.256 71.9157 151.132Z" fill="#E0E0E0"/>
<path d="M76.824 149.333L76.7128 149.909C76.6543 149.909 76.6133 149.898 76.5431 149.898C75.6012 149.898 74.9693 150.433 74.7528 151.528L74.3082 153.763H73.7114L74.589 149.362H75.1624L75.0103 150.166C75.4023 149.595 75.9815 149.333 76.824 149.333Z" fill="#E0E0E0"/>
<path d="M81.8961 149.368L81.0127 153.769H80.4393L80.5797 153.076C80.1585 153.536 79.5734 153.81 78.8538 153.81C77.7188 153.81 76.929 153.106 76.929 151.947C76.929 150.439 77.9879 149.339 79.4272 149.339C80.2697 149.339 80.8547 149.682 81.1063 150.294L81.2935 149.374H81.8961V149.368ZM80.9015 151.225C80.9015 150.364 80.3691 149.851 79.4447 149.851C78.3448 149.851 77.5257 150.719 77.5257 151.918C77.5257 152.78 78.0581 153.28 78.9825 153.28C80.0883 153.286 80.9015 152.424 80.9015 151.225Z" fill="#E0E0E0"/>
<path d="M87.6359 151.19C87.6359 152.704 86.5769 153.81 85.1318 153.81C84.2893 153.81 83.7043 153.467 83.4468 152.849L82.9437 155.394H82.3469L83.5522 149.368H84.1255L83.9851 150.072C84.4063 149.607 84.9973 149.339 85.711 149.339C86.8344 149.333 87.6359 150.038 87.6359 151.19ZM87.0333 151.225C87.0333 150.364 86.5009 149.851 85.5765 149.851C84.4766 149.851 83.6692 150.713 83.6692 151.918C83.6692 152.78 84.2016 153.28 85.126 153.28C86.2259 153.286 87.0333 152.424 87.0333 151.225Z" fill="#E0E0E0"/>
<path d="M92.9894 150.765C92.9894 150.923 92.9719 151.091 92.9368 151.266L92.4336 153.769H91.8369L92.34 151.26C92.3634 151.12 92.381 150.987 92.381 150.858C92.381 150.23 92.0007 149.869 91.2401 149.869C90.2981 149.869 89.6487 150.381 89.4381 151.406L88.9701 153.764H88.3733L89.6195 147.552H90.2162L89.7189 150.02C90.1402 149.543 90.7311 149.327 91.4098 149.327C92.4102 149.333 92.9894 149.869 92.9894 150.765Z" fill="#E0E0E0"/>
<path d="M98.5825 149.368L95.353 154.34C94.8089 155.178 94.3935 155.434 93.7558 155.434C93.3462 155.434 92.925 155.295 92.7026 155.039L93.0244 154.602C93.2175 154.8 93.4691 154.922 93.8084 154.922C94.1887 154.922 94.4812 154.747 94.8264 154.212L95.1365 153.746L94.0366 149.368H94.6392L95.5577 153.117L97.9741 149.368H98.5825Z" fill="#E0E0E0"/>
<path d="M423.158 201.053C423.158 201.134 331.403 201.204 218.24 201.204C105.036 201.204 13.3044 201.134 13.3044 201.053C13.3044 200.971 105.042 200.901 218.24 200.901C331.397 200.901 423.158 200.971 423.158 201.053Z" fill="#263238"/>
<path d="M384.649 171.34C384.649 171.34 369.139 153.578 363.289 135.816C357.438 118.054 360.217 120.091 360.217 120.091C360.217 120.091 368.116 137.347 374.118 145.678C380.115 154.015 390.798 166.24 390.798 166.24L384.649 171.34Z" fill="#455A64"/>
<path d="M387.739 122.862C387.235 121.995 385.907 122.443 386.054 123.433C387.001 129.674 389.043 144.309 388.961 153.81C388.856 166.147 388.967 170.915 388.967 170.915H395.421C395.421 170.915 394.274 145.415 392.817 137.638C391.799 132.189 389.628 126.134 387.739 122.862Z" fill="#455A64"/>
<path d="M391.261 168.842C391.261 168.842 395.321 160.343 396.573 149.665C397.106 145.125 396.158 138.988 394.748 130.797C394.063 126.833 393.911 123.811 393.934 121.721C393.952 120.138 396.047 119.625 396.825 121.005C397.603 122.391 399.861 127.112 400.429 130.075C401.991 138.162 403.763 142.202 402.406 149.875C401.055 157.548 396.052 169.36 396.052 169.36L391.261 168.842Z" fill="#455A64"/>
<path d="M397.07 169.36C397.07 169.36 414.096 132.945 415.277 127.549C416.459 122.146 420.473 109.699 420.941 110.404C421.415 111.108 422.123 117.687 419.051 125.203C415.985 132.718 402.88 170.472 402.88 170.472H397.064" fill="#455A64"/>
<path d="M389.394 167.731C389.388 167.743 389.224 167.626 388.914 167.405C388.61 167.178 388.154 166.858 387.598 166.404C386.463 165.519 384.871 164.168 383.023 162.387C379.307 158.835 374.68 153.357 370.672 146.61C366.653 139.862 363.95 133.266 362.241 128.434C361.387 126.018 360.761 124.039 360.357 122.659C360.147 121.972 360.006 121.437 359.907 121.07C359.807 120.703 359.761 120.511 359.772 120.511C359.784 120.505 359.854 120.691 359.977 121.052C360.106 121.442 360.275 121.966 360.492 122.618C360.937 123.981 361.598 125.943 362.487 128.347C364.254 133.144 366.986 139.705 370.988 146.423C374.984 153.142 379.553 158.62 383.21 162.2C385.029 164.005 386.592 165.373 387.697 166.293C388.241 166.765 388.686 167.102 388.973 167.347C389.254 167.591 389.4 167.719 389.394 167.731Z" fill="#263238"/>
<path d="M391.255 150.259C391.232 150.259 391.179 149.881 391.103 149.188C391.021 148.431 390.916 147.453 390.787 146.271C390.518 143.808 390.097 140.409 389.494 136.677C388.892 132.945 388.219 129.586 387.698 127.164C387.446 126 387.236 125.033 387.078 124.294C386.932 123.619 386.861 123.24 386.885 123.234C386.908 123.229 387.025 123.595 387.212 124.265C387.406 124.934 387.657 125.907 387.95 127.112C388.535 129.522 389.248 132.881 389.851 136.624C390.454 140.368 390.834 143.774 391.039 146.248C391.144 147.482 391.208 148.489 391.238 149.182C391.279 149.875 391.284 150.259 391.255 150.259Z" fill="#263238"/>
<path d="M395.245 120.714C395.257 120.708 395.327 120.871 395.444 121.174C395.573 121.517 395.742 121.966 395.953 122.525C396.181 123.113 396.438 123.834 396.684 124.69C396.936 125.546 397.263 126.507 397.509 127.607C397.644 128.154 397.784 128.725 397.93 129.319C398.071 129.912 398.176 130.547 398.305 131.193C398.586 132.486 398.755 133.889 398.96 135.361C399.294 138.313 399.475 141.579 399.37 145.014C399.229 148.443 398.814 151.691 398.27 154.614C397.96 156.069 397.685 157.455 397.316 158.724C397.14 159.359 396.994 159.982 396.807 160.57C396.62 161.152 396.438 161.711 396.263 162.246C395.935 163.323 395.543 164.261 395.227 165.093C394.917 165.931 394.607 166.636 394.344 167.201C394.092 167.742 393.893 168.179 393.735 168.51C393.595 168.807 393.513 168.965 393.501 168.959C393.49 168.953 393.548 168.79 393.671 168.481C393.812 168.144 393.987 167.695 394.215 167.142C394.461 166.566 394.753 165.856 395.04 165.017C395.333 164.179 395.713 163.236 396.023 162.159C396.187 161.623 396.362 161.064 396.544 160.482C396.719 159.9 396.86 159.277 397.029 158.643C397.386 157.373 397.644 155.994 397.948 154.544C398.469 151.633 398.878 148.402 399.013 144.996C399.118 141.585 398.948 138.336 398.638 135.396C398.439 133.929 398.281 132.538 398.018 131.246C397.895 130.599 397.802 129.971 397.667 129.377C397.527 128.783 397.398 128.212 397.269 127.665C397.041 126.571 396.731 125.604 396.497 124.748C396.269 123.887 396.029 123.159 395.83 122.565C395.643 121.995 395.496 121.541 395.385 121.191C395.28 120.889 395.233 120.72 395.245 120.714Z" fill="#263238"/>
<path d="M420.748 111.132C420.754 111.132 420.748 111.19 420.736 111.295C420.719 111.423 420.689 111.58 420.66 111.766C420.584 112.18 420.491 112.797 420.327 113.577C419.999 115.143 419.449 117.396 418.601 120.132C417.752 122.868 416.588 126.076 415.207 129.598C413.833 133.126 412.235 136.963 410.726 141.05C409.193 145.131 408.011 149.113 406.9 152.728C405.8 156.343 404.752 159.592 403.746 162.276C402.746 164.96 401.786 167.073 401.055 168.505C400.704 169.227 400.394 169.762 400.189 170.135C400.095 170.304 400.013 170.438 399.949 170.554C399.896 170.647 399.861 170.694 399.855 170.688C399.85 170.682 399.873 170.636 399.914 170.537C399.972 170.42 400.037 170.275 400.119 170.106C400.3 169.728 400.593 169.18 400.92 168.447C401.605 167.003 402.529 164.884 403.494 162.194C404.472 159.51 405.49 156.262 406.572 152.641C407.666 149.025 408.842 145.026 410.381 140.933C411.896 136.835 413.505 132.998 414.891 129.482C416.284 125.971 417.472 122.781 418.349 120.062C419.233 117.344 419.812 115.108 420.186 113.554C420.373 112.779 420.491 112.168 420.59 111.761C420.637 111.574 420.672 111.423 420.701 111.295C420.725 111.184 420.742 111.132 420.748 111.132Z" fill="#263238"/>
<path d="M368.244 103.086C367.173 102.026 365.389 103.132 365.828 104.576C366.278 106.037 366.963 107.924 367.969 110.049C370.309 114.997 377.184 132.759 380.408 142.516C383.625 152.268 388.16 170.467 388.16 170.467L395.034 169.355C395.034 169.355 388.745 139.454 382.602 128.678C377.664 120.027 372.726 107.522 368.244 103.086Z" fill="#455A64"/>
<path d="M382.285 148.617C382.309 148.611 382.431 148.903 382.642 149.438C382.847 149.974 383.122 150.76 383.432 151.732C384.064 153.682 384.842 156.407 385.62 159.434C386.398 162.461 387.048 165.215 387.498 167.218C387.703 168.161 387.878 168.958 388.013 169.587C388.13 170.146 388.177 170.46 388.153 170.466C388.13 170.472 388.031 170.169 387.873 169.616C387.703 168.993 387.492 168.207 387.241 167.276C386.714 165.221 386.024 162.514 385.257 159.521C384.479 156.5 383.742 153.77 383.175 151.802C382.905 150.876 382.677 150.096 382.496 149.473C382.344 148.932 382.262 148.623 382.285 148.617Z" fill="#263238"/>
<path d="M391.611 169.914C391.605 169.914 391.593 169.85 391.57 169.733C391.547 169.594 391.523 169.413 391.494 169.192C391.424 168.72 391.359 168.016 391.213 167.119C390.962 165.32 390.511 162.736 389.774 159.574C389.043 156.413 387.972 152.699 386.556 148.647C385.146 144.595 383.379 140.217 381.372 135.688C377.33 126.635 373.287 118.607 370.637 112.669C369.297 109.705 368.255 107.289 367.571 105.607C367.22 104.769 366.974 104.105 366.799 103.663C366.723 103.453 366.658 103.29 366.605 103.15C366.565 103.034 366.547 102.976 366.553 102.97C366.559 102.97 366.588 103.022 366.641 103.133C366.699 103.267 366.775 103.43 366.863 103.628C367.068 104.093 367.343 104.734 367.7 105.543C368.425 107.208 369.496 109.606 370.865 112.552C373.579 118.456 377.651 126.466 381.7 135.531C383.707 140.066 385.468 144.461 386.866 148.531C388.264 152.6 389.312 156.332 390.02 159.51C390.728 162.683 391.143 165.285 391.348 167.096C391.471 167.998 391.512 168.703 391.564 169.18C391.582 169.401 391.593 169.582 391.605 169.722C391.617 169.85 391.617 169.914 391.611 169.914Z" fill="#263238"/>
<path d="M395.034 169.36C395.011 169.366 394.929 168.953 394.8 168.213C394.666 167.41 394.484 166.351 394.268 165.07C393.794 162.421 393.069 158.771 392.033 154.8C391.003 150.824 389.845 147.284 388.95 144.746C388.511 143.524 388.148 142.511 387.873 141.742C387.616 141.032 387.487 140.636 387.511 140.63C387.534 140.619 387.709 140.997 388.008 141.696C388.306 142.388 388.716 143.401 389.195 144.665C390.149 147.185 391.354 150.725 392.39 154.713C393.431 158.701 394.116 162.368 394.531 165.035C394.724 166.368 394.876 167.451 394.952 168.202C395.023 168.941 395.058 169.355 395.034 169.36Z" fill="#263238"/>
<path d="M409.145 168.376H382.314V200.902H409.145V168.376Z" fill="#FF6652"/>
<g opacity="0.3">
<path opacity="0.3" d="M409.145 168.376H382.314V200.902H409.145V168.376Z" fill="black"/>
</g>
<path d="M400.581 168.376H376.78V200.902H400.581V168.376Z" fill="#FF6652"/>
<path d="M51.7957 157.071C47.2264 154.16 40.8902 154.102 36.4437 157.199C32.2196 160.139 30.0782 165.483 30.2655 170.606C30.4527 175.729 32.945 181.988 37.6138 184.683L51.3043 184.631C55.6747 181.429 58.6351 176.277 58.8399 170.88C59.0388 165.477 56.3651 159.982 51.7957 157.071Z" fill="#455A64"/>
<path d="M45.05 185.173C45.0207 185.173 44.9915 184.753 44.9622 184.002C44.9388 183.164 44.9096 182.093 44.8686 180.806C44.7984 178.111 44.6931 174.385 44.5117 170.269C44.3304 166.153 44.108 162.433 43.9384 159.743C43.8623 158.462 43.798 157.391 43.7453 156.553C43.7044 155.796 43.6985 155.383 43.7278 155.377C43.757 155.377 43.8214 155.79 43.915 156.535C44.0086 157.286 44.1198 158.375 44.2426 159.72C44.4883 162.41 44.7633 166.135 44.9447 170.251C45.1261 174.367 45.1846 178.099 45.1729 180.8C45.167 182.151 45.1495 183.246 45.1261 183.997C45.1085 184.753 45.0793 185.173 45.05 185.173Z" fill="#263238"/>
<path d="M31.6407 169.442C31.629 169.564 30.886 169.599 29.9792 169.523C29.0723 169.448 28.341 169.29 28.3527 169.174C28.3644 169.052 29.1074 169.017 30.0143 169.093C30.9211 169.162 31.6524 169.32 31.6407 169.442Z" fill="#263238"/>
<path d="M31.8976 164.843C31.8508 164.953 31.2073 164.773 30.4642 164.447C29.7212 164.121 29.1595 163.766 29.2063 163.655C29.2531 163.545 29.8967 163.719 30.6397 164.051C31.3828 164.377 31.9444 164.732 31.8976 164.843Z" fill="#263238"/>
<path d="M34.273 161.431C34.2087 161.53 33.4891 161.193 32.7402 160.575C31.9913 159.958 31.5174 159.318 31.6052 159.236C31.6929 159.155 32.2897 159.644 33.0152 160.238C33.7406 160.837 34.3374 161.326 34.273 161.431Z" fill="#263238"/>
<path d="M36.666 158.212C36.5548 158.258 36.2096 157.723 35.8937 157.012C35.5777 156.302 35.4081 155.685 35.5192 155.639C35.6304 155.592 35.9756 156.128 36.2915 156.838C36.6074 157.548 36.7713 158.165 36.666 158.212Z" fill="#263238"/>
<path d="M40.4162 155.93C40.3109 155.982 39.9365 155.406 39.6908 154.614C39.4392 153.822 39.4216 153.141 39.5386 153.118C39.6615 153.095 39.8663 153.717 40.1062 154.48C40.3402 155.249 40.5274 155.877 40.4162 155.93Z" fill="#263238"/>
<path d="M46.6706 153.35C46.7817 153.391 46.7174 153.88 46.5126 154.439C46.3137 155.004 46.0562 155.423 45.9451 155.388C45.8339 155.347 45.8983 154.858 46.1031 154.299C46.302 153.735 46.5594 153.31 46.6706 153.35Z" fill="#263238"/>
<path d="M51.316 155.335C51.3979 155.422 51.0996 155.83 50.6491 156.243C50.1986 156.657 49.7715 156.919 49.6896 156.831C49.6076 156.744 49.906 156.336 50.3565 155.923C50.8012 155.51 51.2341 155.248 51.316 155.335Z" fill="#263238"/>
<path d="M55.3999 157.962C55.4701 158.061 55.1074 158.422 54.5867 158.771C54.0718 159.12 53.5979 159.318 53.5277 159.219C53.4575 159.12 53.8203 158.76 54.341 158.41C54.8617 158.061 55.3356 157.863 55.3999 157.962Z" fill="#263238"/>
<path d="M58.3013 161.873C58.3481 161.984 57.7748 162.333 57.0259 162.653C56.2712 162.973 55.6217 163.142 55.5749 163.032C55.5281 162.921 56.1015 162.572 56.8562 162.252C57.6051 161.937 58.2545 161.763 58.3013 161.873Z" fill="#263238"/>
<path d="M59.4481 166.147C59.4656 166.263 58.8806 166.438 58.1492 166.525C57.4179 166.618 56.8094 166.589 56.7977 166.473C56.7802 166.356 57.3653 166.181 58.0966 166.094C58.8279 166.001 59.4305 166.024 59.4481 166.147Z" fill="#263238"/>
<path d="M60.039 171.403C59.9922 171.514 59.372 171.351 58.6524 171.042C57.9328 170.734 57.3945 170.39 57.4413 170.28C57.4881 170.169 58.1083 170.332 58.8279 170.641C59.5475 170.949 60.0916 171.293 60.039 171.403Z" fill="#263238"/>
<path d="M59.5186 175.915C59.4776 176.026 58.6937 175.84 57.8746 175.304C57.0496 174.774 56.564 174.134 56.6518 174.052C56.7395 173.965 57.3363 174.437 58.1144 174.937C58.8867 175.444 59.5595 175.799 59.5186 175.915Z" fill="#263238"/>
<path d="M57.1547 180.02C57.0845 180.113 56.4585 179.746 55.8617 179.106C55.2591 178.466 54.9431 177.819 55.0367 177.755C55.1362 177.686 55.6043 178.198 56.1776 178.815C56.7568 179.426 57.2366 179.927 57.1547 180.02Z" fill="#263238"/>
<path d="M34.7472 180.504C34.8057 180.609 34.1446 181.057 33.2846 181.505C32.4187 181.953 31.6756 182.227 31.6171 182.122C31.5586 182.017 32.2197 181.569 33.0798 181.121C33.9457 180.673 34.6887 180.399 34.7472 180.504Z" fill="#263238"/>
<path d="M32.6991 176.789C32.7517 176.899 32.2252 177.243 31.5231 177.557C30.8269 177.872 30.2184 178.041 30.1657 177.93C30.1131 177.819 30.6396 177.476 31.3417 177.161C32.0438 176.847 32.6464 176.678 32.6991 176.789Z" fill="#263238"/>
<path d="M31.1956 173.5C31.2132 173.616 30.5638 173.808 29.7505 173.925C28.9373 174.041 28.2586 174.035 28.2411 173.919C28.2235 173.802 28.8729 173.61 29.6862 173.494C30.4994 173.377 31.1781 173.377 31.1956 173.5Z" fill="#263238"/>
<path d="M36.1279 171.683C36.163 171.794 35.5312 172.091 34.6887 172.184C33.8462 172.283 33.1675 172.131 33.1734 172.015C33.1792 171.893 33.8403 171.84 34.636 171.747C35.4376 171.666 36.0928 171.567 36.1279 171.683Z" fill="#263238"/>
<path d="M40.2291 167.626C40.2642 167.736 39.761 167.992 39.0824 168.056C38.4037 168.126 37.8654 167.975 37.8771 167.859C37.8888 167.736 38.4095 167.69 39.0414 167.626C39.6733 167.562 40.194 167.509 40.2291 167.626Z" fill="#263238"/>
<path d="M41.0132 164.371C40.9722 164.488 40.4281 164.4 39.7962 164.185C39.1644 163.97 38.6846 163.702 38.7256 163.585C38.7665 163.475 39.3106 163.556 39.9425 163.772C40.5744 163.993 41.0541 164.261 41.0132 164.371Z" fill="#263238"/>
<path d="M42.5165 161.082C42.4346 161.164 42.0602 160.919 41.791 160.459C41.5219 159.999 41.4985 159.557 41.6097 159.522C41.7267 159.487 41.9315 159.831 42.1655 160.238C42.4054 160.657 42.6043 161.001 42.5165 161.082Z" fill="#263238"/>
<path d="M40.7033 174.547C40.7325 174.664 40.2586 174.879 39.6502 175.025C39.2991 175.112 38.9773 175.153 38.7667 175.153L38.679 174.897C38.8369 174.868 38.9364 174.873 38.9598 174.92C38.9773 174.966 38.9188 175.048 38.7901 175.141L38.7024 174.885C38.8896 174.786 39.1938 174.681 39.5448 174.594C40.1592 174.46 40.674 174.431 40.7033 174.547Z" fill="#263238"/>
<path d="M41.551 180.317C41.5978 180.427 40.9952 180.771 40.2112 181.073C39.4273 181.382 38.7544 181.539 38.7076 181.429C38.6608 181.318 39.2634 180.98 40.0474 180.672C40.8314 180.363 41.5042 180.206 41.551 180.317Z" fill="#263238"/>
<path d="M36.9177 177.756C36.9587 177.872 36.555 178.111 36.0226 178.285C35.4901 178.466 35.0279 178.518 34.987 178.408C34.946 178.291 35.3497 178.058 35.8821 177.878C36.4145 177.697 36.8767 177.639 36.9177 177.756Z" fill="#263238"/>
<path d="M37.2685 166.019C37.2393 166.135 36.543 166.065 35.7357 165.78C34.9283 165.495 34.3432 165.116 34.3959 165.006C34.4485 164.895 35.0979 165.093 35.8819 165.367C36.6659 165.646 37.2978 165.897 37.2685 166.019Z" fill="#263238"/>
<path d="M48.4785 164.743C48.5429 164.842 48.1509 165.221 47.6009 165.582C47.051 165.943 46.5478 166.152 46.4835 166.053C46.4191 165.954 46.8111 165.576 47.3611 165.215C47.911 164.854 48.4142 164.639 48.4785 164.743Z" fill="#263238"/>
<path d="M49.093 170.531C49.1164 170.647 48.7069 170.833 48.1686 170.944C47.6362 171.055 47.1857 171.049 47.1565 170.932C47.1331 170.816 47.5426 170.63 48.0809 170.519C48.6133 170.408 49.0638 170.414 49.093 170.531Z" fill="#263238"/>
<path d="M49.8003 177.045C49.7477 177.156 49.1568 176.987 48.4722 176.673C47.7877 176.358 47.2787 176.015 47.3314 175.904C47.384 175.793 47.9749 175.962 48.6595 176.277C49.3381 176.591 49.8471 176.935 49.8003 177.045Z" fill="#263238"/>
<path d="M48.2971 183.379C48.2035 183.455 47.8174 183.141 47.4371 182.681C47.0568 182.215 46.8228 181.778 46.9105 181.703C47.0041 181.627 47.3903 181.941 47.7706 182.401C48.1567 182.867 48.3907 183.304 48.2971 183.379Z" fill="#263238"/>
<path d="M47.9931 160.477C48.0691 160.57 47.8117 160.89 47.3729 161.106C46.9341 161.327 46.5246 161.338 46.4953 161.222C46.4602 161.106 46.782 160.913 47.174 160.716C47.5718 160.523 47.917 160.384 47.9931 160.477Z" fill="#263238"/>
<path d="M53.4864 166.315C53.5274 166.426 53.0184 166.706 52.3221 166.799C51.6259 166.898 51.0643 166.764 51.0701 166.647C51.076 166.525 51.6142 166.455 52.2636 166.368C52.9072 166.286 53.4455 166.205 53.4864 166.315Z" fill="#263238"/>
<path d="M52.3926 161.076C52.4453 161.181 51.9421 161.542 51.2225 161.769C50.5029 161.996 49.8827 161.996 49.8652 161.879C49.8476 161.757 50.4034 161.571 51.0879 161.355C51.7725 161.134 52.34 160.965 52.3926 161.076Z" fill="#263238"/>
<path d="M54.6857 174.437C54.6857 174.553 53.8198 174.629 52.7784 174.443C51.737 174.257 50.953 173.884 50.994 173.773C51.0349 173.657 51.8482 173.837 52.8545 174.012C53.8608 174.198 54.6857 174.315 54.6857 174.437Z" fill="#263238"/>
<path d="M52.6441 182.052C52.5739 182.145 51.9362 181.772 51.3043 181.138C50.6666 180.503 50.298 179.869 50.3916 179.799C50.4911 179.723 51.0001 180.218 51.6144 180.829C52.2229 181.446 52.7202 181.959 52.6441 182.052Z" fill="#263238"/>
<path d="M43.6691 154.876C43.7335 154.969 41.9256 155.697 39.8369 157.891C37.7483 160.034 35.5952 163.818 35.0628 168.388C34.8113 170.658 35.0277 172.859 35.3495 174.821C35.6888 176.783 36.1452 178.529 36.5606 179.985C36.9818 181.44 37.368 182.605 37.6254 183.408C37.8828 184.217 38.0232 184.666 37.994 184.677C37.9647 184.689 37.7775 184.258 37.4674 183.466C37.1574 182.675 36.7303 181.522 36.2681 180.072C35.8117 178.623 35.3261 176.876 34.9575 174.891C34.6065 172.912 34.3725 170.676 34.6299 168.341C35.174 163.667 37.4265 159.813 39.6146 157.682C40.7028 156.599 41.7267 155.877 42.4756 155.458C42.8383 155.231 43.1484 155.109 43.3532 155.004C43.5521 154.911 43.6632 154.864 43.6691 154.876Z" fill="#263238"/>
<path d="M49.631 184.957C49.5374 184.91 50.6139 183.257 51.5968 180.288C52.609 177.348 53.4456 172.999 52.7728 168.277C52.4569 165.92 51.7723 163.736 50.9123 161.874C50.0172 160.034 48.8646 158.526 47.7413 157.472C46.577 156.448 45.4303 155.86 44.6287 155.516C43.8214 155.179 43.3358 155.103 43.3416 155.068C43.3416 155.056 43.4645 155.062 43.6985 155.097C43.9267 155.138 44.266 155.213 44.6872 155.365C45.5239 155.668 46.7057 156.221 47.9402 157.245C49.1396 158.311 50.3272 159.813 51.275 161.705C52.176 163.603 52.884 165.821 53.2058 168.219C53.8903 173.034 52.9893 177.447 51.8894 180.392C51.6436 181.143 51.3219 181.79 51.0878 182.366C50.807 182.925 50.573 183.414 50.3623 183.798C49.9119 184.555 49.6544 184.968 49.631 184.957Z" fill="#263238"/>
<path d="M32.6992 183.926H56.7921L56.9384 188.723H32.6992V183.926Z" fill="#FF6652"/>
<path d="M34.7468 186.325L36.1276 200.973H53.7438L55.1596 186.488L34.7468 186.325Z" fill="#FF6652"/>
<path d="M56.9384 188.782C56.9384 188.904 51.5148 188.997 44.8217 188.997C38.1286 188.997 32.7051 188.898 32.7051 188.782C32.7051 188.665 38.1286 188.566 44.8217 188.566C51.5148 188.566 56.9384 188.66 56.9384 188.782Z" fill="#263238"/>
<path d="M54.4928 193.241C54.5162 193.252 54.3524 193.59 53.9779 194.155C53.5977 194.714 53.0009 195.505 52.1116 196.349L52.0004 196.454L51.8893 196.338C50.7308 195.127 49.1336 193.642 47.1678 192.228L47.4369 192.216C46.7641 192.804 46.0621 193.415 45.3424 194.044C44.4882 194.783 43.6574 195.505 42.8676 196.186L42.733 196.303L42.5985 196.186C41.1007 194.929 39.7317 193.788 38.5733 192.821L38.8073 192.798C37.9765 193.805 37.2803 194.655 36.7245 195.325C36.2213 195.919 35.9346 196.233 35.9054 196.216C35.882 196.198 36.1218 195.837 36.5782 195.214C37.0989 194.521 37.76 193.642 38.544 192.6L38.6435 192.466L38.778 192.577C39.954 193.526 41.3406 194.644 42.8618 195.872L42.5868 195.878C43.3766 195.191 44.2016 194.469 45.0499 193.724C45.7695 193.095 46.4774 192.49 47.1503 191.902L47.279 191.791L47.4135 191.89C49.3969 193.34 50.9824 194.877 52.1116 196.134L51.8893 196.128C53.6854 194.516 54.4226 193.194 54.4928 193.241Z" fill="#263238"/>
<path d="M343.987 196.954H88.947C84.2372 196.954 80.4226 193.159 80.4226 188.472V26.3953C80.4226 21.7088 84.2372 17.9131 88.947 17.9131H343.987C348.697 17.9131 352.512 21.7088 352.512 26.3953V188.472C352.512 193.153 348.697 196.954 343.987 196.954Z" fill="#455A64"/>
<path d="M355.888 201.053H81.9324C76.1813 201.053 71.5183 196.413 71.5183 190.69V185.387H366.302V190.69C366.302 196.419 361.639 201.053 355.888 201.053Z" fill="#455A64"/>
<path d="M189.648 183.71L193.305 189.503H244.779L248.172 183.71H189.648Z" fill="#263238"/>
<path d="M350.171 183.71C350.171 183.809 289.781 183.884 215.303 183.884C140.801 183.884 80.4226 183.809 80.4226 183.71C80.4226 183.611 140.801 183.535 215.303 183.535C289.781 183.535 350.171 183.611 350.171 183.71Z" fill="#263238"/>
<path d="M341.741 178.977H90.1348C89.0759 178.977 88.2217 178.121 88.2217 177.073V30.1156C88.2217 29.0619 89.0817 28.2119 90.1348 28.2119H341.747C342.806 28.2119 343.66 29.0677 343.66 30.1156V177.073C343.654 178.121 342.8 178.977 341.741 178.977Z" fill="#EBEBEB"/>
<path d="M343.385 179.198H87.9409L88.2159 39.4766H343.385V179.198Z" fill="white"/>
<path d="M109.167 34.0337C109.167 35.1573 108.254 36.0655 107.125 36.0655C105.996 36.0655 105.083 35.1573 105.083 34.0337C105.083 32.9101 105.996 32.002 107.125 32.002C108.254 32.002 109.167 32.9101 109.167 34.0337Z" fill="#263238"/>
<path d="M96.8047 34.0337C96.8047 35.1573 95.892 36.0655 94.7628 36.0655C93.6336 36.0655 92.7209 35.1573 92.7209 34.0337C92.7209 32.9101 93.6336 32.002 94.7628 32.002C95.892 32.002 96.8047 32.9101 96.8047 34.0337Z" fill="#263238"/>
<path d="M102.737 34.0337C102.737 35.1573 101.824 36.0655 100.695 36.0655C99.5658 36.0655 98.6531 35.1573 98.6531 34.0337C98.6531 32.9101 99.5658 32.002 100.695 32.002C101.824 32.002 102.737 32.9101 102.737 34.0337Z" fill="#263238"/>
<path d="M343.654 165.704H87.9409V179.199H343.654V165.704Z" fill="#263238"/>
<path d="M97.6062 174.011V174.442H95.5702V174.098L96.6701 173.062C96.9392 172.806 96.986 172.649 96.986 172.492C96.986 172.241 96.8105 172.096 96.4712 172.096C96.202 172.096 95.9797 172.189 95.8217 172.381L95.4648 172.107C95.6755 171.822 96.0616 171.653 96.5121 171.653C97.1147 171.653 97.5009 171.956 97.5009 172.445C97.5009 172.713 97.4248 172.957 97.0445 173.313L96.3073 174.011H97.6062Z" fill="white"/>
<path d="M97.8811 172.648C97.8811 172.45 98.0274 172.322 98.2029 172.322C98.3784 172.322 98.5247 172.45 98.5247 172.648C98.5247 172.835 98.3784 172.974 98.2029 172.974C98.0274 172.974 97.8811 172.84 97.8811 172.648ZM97.8811 174.144C97.8811 173.947 98.0274 173.818 98.2029 173.818C98.3784 173.818 98.5247 173.947 98.5247 174.144C98.5247 174.331 98.3784 174.47 98.2029 174.47C98.0274 174.47 97.8811 174.337 97.8811 174.144Z" fill="white"/>
<path d="M99.8116 171.694V174.442H99.2967V172.119H98.7117V171.688H99.8116V171.694Z" fill="white"/>
<path d="M102.825 173.819H102.333V174.442H101.836V173.819H100.321V173.464L101.684 171.694H102.234L100.952 173.388H101.859V172.835H102.339V173.388H102.83V173.819H102.825Z" fill="white"/>
<path d="M316.929 172.719H107.336V173.668H316.929V172.719Z" fill="white"/>
<path d="M172.676 171.7H107.178V174.238H172.676V171.7Z" fill="#FF6652"/>
<path d="M174.794 173.196C174.794 174.949 173.366 176.369 171.605 176.369C169.844 176.369 168.417 174.949 168.417 173.196C168.417 171.444 169.844 170.023 171.605 170.023C173.366 170.023 174.794 171.444 174.794 173.196Z" fill="#FF6652"/>
<path d="M322.206 173.167C322.206 173.714 321.761 174.058 321.194 174.058C320.439 174.058 320 173.575 320 172.69C320 171.747 320.55 171.229 321.351 171.229C321.626 171.229 321.89 171.287 322.077 171.403L321.89 171.787C321.738 171.688 321.556 171.654 321.363 171.654C320.842 171.654 320.515 171.974 320.515 172.602V172.608C320.679 172.416 320.948 172.323 321.252 172.323C321.802 172.323 322.206 172.655 322.206 173.167ZM321.708 173.19C321.708 172.905 321.492 172.725 321.158 172.725C320.825 172.725 320.597 172.923 320.597 173.196C320.597 173.452 320.802 173.662 321.17 173.662C321.492 173.656 321.708 173.476 321.708 173.19Z" fill="white"/>
<path d="M322.458 172.223C322.458 172.026 322.604 171.897 322.779 171.897C322.955 171.897 323.101 172.026 323.101 172.223C323.101 172.41 322.955 172.55 322.779 172.55C322.604 172.55 322.458 172.41 322.458 172.223ZM322.458 173.72C322.458 173.522 322.604 173.394 322.779 173.394C322.955 173.394 323.101 173.522 323.101 173.72C323.101 173.906 322.955 174.046 322.779 174.046C322.604 174.046 322.458 173.906 322.458 173.72Z" fill="white"/>
<path d="M323.435 172.643C323.435 171.741 323.932 171.229 324.587 171.229C325.248 171.229 325.746 171.741 325.746 172.643C325.746 173.546 325.248 174.058 324.587 174.058C323.932 174.058 323.435 173.546 323.435 172.643ZM325.225 172.643C325.225 171.98 324.967 171.671 324.587 171.671C324.213 171.671 323.949 171.98 323.949 172.643C323.949 173.307 324.213 173.615 324.587 173.615C324.967 173.615 325.225 173.307 325.225 172.643Z" fill="white"/>
<path d="M326.084 172.643C326.084 171.741 326.582 171.229 327.237 171.229C327.898 171.229 328.395 171.741 328.395 172.643C328.395 173.546 327.898 174.058 327.237 174.058C326.582 174.058 326.084 173.546 326.084 172.643ZM327.881 172.643C327.881 171.98 327.623 171.671 327.243 171.671C326.868 171.671 326.605 171.98 326.605 172.643C326.605 173.307 326.868 173.615 327.243 173.615C327.617 173.615 327.881 173.307 327.881 172.643Z" fill="white"/>
<path d="M332.859 172.474H331.906V169.732H334.65V170.681H332.859V172.474Z" fill="white"/>
<path d="M334.656 176.049H331.9V173.318H332.854V175.1H334.656V176.049Z" fill="white"/>
<path d="M339.044 176.049H336.294V175.1H338.084V173.307H339.044V176.049Z" fill="white"/>
<path d="M339.044 172.469H338.091V170.681H336.289V169.732H339.044V172.469Z" fill="white"/>
<path d="M122.975 47.7842H107.915L100.391 60.755L107.915 73.7316H122.975L130.498 60.755L122.975 47.7842Z" fill="#EBEBEB"/>
<path d="M109.144 63.2995C108.471 62.5601 107.792 61.8091 107.301 60.9359C106.809 60.0626 106.517 59.0496 106.68 58.0599C106.774 57.4836 107.02 56.9363 107.061 56.3542C107.113 55.5508 106.774 54.7124 107.061 53.9614C107.505 52.7854 109.097 52.605 110.062 51.7958C110.811 51.1612 111.18 50.1366 112.005 49.6068C112.724 49.1411 113.654 49.1527 114.503 49.2749C115.351 49.3972 116.211 49.6068 117.06 49.4962C117.668 49.4147 118.235 49.1702 118.832 49.0246C119.429 48.8791 120.09 48.8383 120.617 49.1469C121.143 49.4554 121.442 50.2006 121.096 50.7013C122.085 50.2472 123.337 51.0156 123.606 52.0577C123.875 53.1056 123.337 54.2351 122.501 54.9278C121.664 55.6206 120.582 55.9408 119.517 56.1388C116.498 56.7035 113.216 56.3833 110.612 54.759" fill="#263238"/>
<path d="M123.103 66.501C123.004 64.6438 122.477 60.8364 121.968 57.3958C121.418 53.6932 118.101 51.0385 114.351 51.2888L113.976 51.3121C109.975 51.8127 108.167 55.4746 108.781 59.445L109.957 73.7374H119.728C119.728 73.7374 119.499 71.2282 119.494 71.2049C119.494 71.1991 123.314 70.3433 123.103 66.501Z" fill="#FFBE9D"/>
<path d="M119.494 71.1473C119.494 71.1473 117.066 71.5082 114.363 70.0586C114.363 70.0586 115.737 72.7424 119.57 72.1428L119.494 71.1473Z" fill="#EB996E"/>
<path d="M121.267 59.3278C121.203 59.4035 120.764 59.1241 120.173 59.1648C119.582 59.1998 119.167 59.5316 119.096 59.4617C119.061 59.4326 119.126 59.2987 119.301 59.1474C119.477 58.996 119.787 58.8446 120.155 58.8213C120.524 58.7981 120.846 58.9145 121.033 59.0426C121.226 59.1648 121.296 59.2929 121.267 59.3278Z" fill="#263238"/>
<path d="M115.44 59.8288C115.375 59.9045 114.936 59.6251 114.345 59.6658C113.755 59.7007 113.339 60.0326 113.269 59.9627C113.234 59.9336 113.298 59.7997 113.48 59.6483C113.655 59.497 113.965 59.3456 114.334 59.3223C114.702 59.299 115.024 59.4155 115.211 59.5436C115.399 59.6658 115.469 59.7939 115.44 59.8288Z" fill="#263238"/>
<path d="M117.885 64.0606C117.879 64.0257 118.242 63.9383 118.839 63.8219C118.991 63.7986 119.131 63.7579 119.149 63.6531C119.178 63.5425 119.102 63.3853 119.02 63.2106C118.85 62.8555 118.681 62.4829 118.493 62.0928C117.762 60.4977 117.218 59.1878 117.282 59.1587C117.347 59.1296 117.996 60.3987 118.727 61.9939C118.903 62.3898 119.073 62.7623 119.236 63.1233C119.307 63.2921 119.418 63.4784 119.353 63.7113C119.318 63.8277 119.213 63.915 119.119 63.95C119.026 63.9849 118.938 63.9907 118.862 64.0024C118.265 64.0664 117.891 64.0955 117.885 64.0606Z" fill="#263238"/>
<path d="M115.434 57.4995C115.387 57.6625 114.79 57.6276 114.1 57.7557C113.403 57.8721 112.859 58.1108 112.754 57.9769C112.707 57.9128 112.795 57.7557 113.011 57.581C113.228 57.4122 113.573 57.2375 113.988 57.1677C114.404 57.092 114.79 57.1327 115.053 57.2201C115.317 57.3074 115.457 57.4238 115.434 57.4995Z" fill="#263238"/>
<path d="M120.933 57.6341C120.839 57.7738 120.418 57.6632 119.927 57.6865C119.435 57.6981 119.026 57.8378 118.92 57.7039C118.874 57.6399 118.932 57.5002 119.102 57.3604C119.271 57.2207 119.564 57.0985 119.903 57.0868C120.243 57.0752 120.541 57.18 120.722 57.3022C120.904 57.4303 120.974 57.5642 120.933 57.6341Z" fill="#263238"/>
<path d="M109.29 62.263C109.22 62.2397 106.581 61.6576 106.844 64.2832C107.108 66.9029 109.963 66.053 109.957 65.9773C109.957 65.8958 109.29 62.263 109.29 62.263Z" fill="#FFBE9D"/>
<path d="M108.787 65.1155C108.775 65.1096 108.746 65.1504 108.67 65.197C108.599 65.2377 108.471 65.2726 108.324 65.2377C108.038 65.162 107.757 64.7487 107.698 64.2771C107.669 64.0384 107.698 63.8056 107.763 63.6134C107.821 63.4155 107.938 63.27 108.073 63.2292C108.207 63.1826 108.319 63.2583 108.354 63.3282C108.395 63.398 108.383 63.4504 108.4 63.4563C108.406 63.4621 108.453 63.4097 108.418 63.2991C108.4 63.2467 108.365 63.1885 108.295 63.1477C108.225 63.1011 108.131 63.0837 108.032 63.1069C107.833 63.1419 107.663 63.3456 107.593 63.561C107.511 63.7764 107.47 64.0384 107.505 64.3062C107.576 64.8302 107.897 65.3017 108.289 65.3716C108.476 65.4007 108.629 65.3309 108.705 65.261C108.792 65.1795 108.798 65.1155 108.787 65.1155Z" fill="#EB996E"/>
<path d="M121.775 53.8039C121.594 54.846 119.47 55.8008 117.703 55.7542C116.077 55.7077 115.275 54.9043 114.093 54.3337C113.345 53.9728 113.345 53.9728 112.332 54.1358C111.513 54.2697 111.086 55.2303 110.624 55.9172C111.502 57.8209 111.145 60.0332 110.776 62.0941C110.735 62.3211 110.683 62.5657 110.507 62.7228C110.209 62.9848 109.729 62.8276 109.442 62.5598C108.974 62.1348 108.764 61.5061 108.611 60.8948C108.26 59.5034 108.132 58.048 108.348 56.6333C108.57 55.2186 109.156 53.8389 110.133 52.7851C111.35 51.4636 113.122 50.701 114.924 50.6078C116.72 50.5147 118.528 51.0677 120.032 52.0516C120.722 52.5115 121.377 53.0704 121.775 53.8039Z" fill="#263238"/>
<path d="M118.277 65.3898C117.826 65.1802 117.382 64.9764 116.931 64.7668C116.855 64.7319 116.773 64.697 116.685 64.7028C116.592 64.7144 116.516 64.7843 116.451 64.86C116.141 65.2326 116.059 65.8031 116.305 66.2281C116.545 66.6531 117.112 66.8743 117.563 66.688C118.037 66.4901 118.271 65.9428 118.306 65.4305L118.277 65.3898Z" fill="#EB996E"/>
<path d="M117.609 66.7864C117.633 66.8097 117.329 67.0018 116.82 66.8563C116.574 66.7806 116.293 66.5943 116.123 66.2916C115.948 65.9947 115.884 65.5755 116.036 65.1971C116.106 65.0108 116.223 64.842 116.363 64.7139C116.433 64.6498 116.504 64.5916 116.591 64.5451C116.679 64.481 116.861 64.4752 116.942 64.5218C117.247 64.6906 117.457 64.8361 117.662 64.97C118.054 65.232 118.288 65.4067 118.265 65.4474C118.241 65.4824 117.972 65.3717 117.551 65.1563C117.305 65.0283 117.071 64.906 116.831 64.7837C116.773 64.7663 116.779 64.7663 116.726 64.7954C116.673 64.8303 116.609 64.8769 116.562 64.9293C116.457 65.0341 116.369 65.1622 116.316 65.3077C116.199 65.5988 116.24 65.919 116.369 66.1635C116.498 66.408 116.697 66.571 116.896 66.6583C117.299 66.8272 117.598 66.734 117.609 66.7864Z" fill="#263238"/>
<path d="M117.183 60.7556C117.153 60.7556 117.159 60.5111 117.036 60.1036C116.919 59.7019 116.638 59.1139 116.03 58.6656C115.439 58.2174 114.474 57.967 113.543 58.3163C112.619 58.6365 111.823 59.6146 111.835 60.7556C111.823 61.8967 112.619 62.8748 113.543 63.1949C114.474 63.5442 115.439 63.2939 116.03 62.8456C116.638 62.3974 116.925 61.8094 117.036 61.4077C117.159 61.0002 117.153 60.7556 117.183 60.7556C117.194 60.7556 117.2 60.8139 117.206 60.9303C117.212 61.0467 117.2 61.2214 117.153 61.4368C117.066 61.8676 116.802 62.508 116.159 63.0145C115.539 63.521 114.48 63.8237 113.444 63.4569C112.414 63.1193 111.513 62.0306 111.525 60.7556C111.513 59.4807 112.414 58.392 113.444 58.0544C114.485 57.6818 115.539 57.9845 116.159 58.4968C116.802 59.0033 117.066 59.6495 117.153 60.0745C117.2 60.2899 117.212 60.4646 117.206 60.581C117.2 60.6974 117.194 60.7556 117.183 60.7556Z" fill="#263238"/>
<path d="M123.753 60.4992C123.723 60.4992 123.723 60.2605 123.612 59.8646C123.501 59.4745 123.226 58.904 122.629 58.4674C122.056 58.0307 121.114 57.7921 120.207 58.1297C119.306 58.4383 118.534 59.393 118.546 60.505C118.534 61.6169 119.312 62.5659 120.207 62.8803C121.114 63.2179 122.056 62.9792 122.629 62.5426C123.226 62.106 123.501 61.5354 123.612 61.1454C123.729 60.7379 123.723 60.4992 123.753 60.4992C123.764 60.4992 123.77 60.5574 123.776 60.6738C123.782 60.7844 123.77 60.9533 123.729 61.1687C123.647 61.5878 123.39 62.2108 122.764 62.7114C122.161 63.2063 121.132 63.5032 120.114 63.1422C119.107 62.8104 118.23 61.7508 118.241 60.505C118.23 59.2591 119.107 58.1996 120.114 57.8677C121.126 57.5068 122.155 57.8037 122.764 58.2986C123.39 58.7934 123.647 59.4221 123.729 59.8413C123.776 60.0509 123.782 60.2197 123.776 60.3362C123.77 60.4409 123.764 60.4992 123.753 60.4992Z" fill="#263238"/>
<path d="M118.394 59.8998C118.335 59.958 118.072 59.7892 117.721 59.8008C117.37 59.8008 117.118 59.9813 117.054 59.9231C116.972 59.8823 117.218 59.5039 117.715 59.4923C118.212 59.4864 118.47 59.8532 118.394 59.8998Z" fill="#263238"/>
<path d="M111.847 60.3711C111.899 60.4409 111.384 60.9009 110.706 61.4073C110.027 61.9138 109.43 62.269 109.384 62.1991C109.331 62.1292 109.846 61.6693 110.524 61.1628C111.203 60.6563 111.794 60.3012 111.847 60.3711Z" fill="#263238"/>
<path d="M166.152 60.6269C166.152 60.7085 159.383 60.7783 151.034 60.7783C142.685 60.7783 135.916 60.7085 135.916 60.6269C135.916 60.5454 142.685 60.4756 151.034 60.4756C159.383 60.4756 166.152 60.5396 166.152 60.6269Z" fill="#263238"/>
<path d="M152.169 63.7767C152.169 63.8582 148.577 63.9281 144.142 63.9281C139.707 63.9281 136.115 63.8582 136.115 63.7767C136.115 63.6952 139.707 63.6253 144.142 63.6253C148.577 63.6195 152.169 63.6894 152.169 63.7767Z" fill="#263238"/>
<path d="M256.719 83.8857C256.719 83.8857 264.752 87.7805 267.578 97.8404C270.403 107.9 279.039 134.098 279.039 134.098C279.039 134.098 283.977 139.879 284.509 144.158C285.036 148.437 283.983 158.794 282.391 160.727C280.806 162.66 278.542 162.339 278.542 162.339L257.754 160.377L249.569 105.839L256.719 83.8857Z" fill="#FF6652"/>
<path d="M187.986 82.9362C187.986 82.9362 173.125 87.5761 169.422 91.6106L181.591 147.947L181.398 165.721H251.863C251.863 164.842 252.495 106.706 252.495 106.706L256.73 83.891L231.684 79.5014L226.746 75.6416L198.88 77.0446L194.644 81.2596L187.986 82.9362Z" fill="#FF6652"/>
<g opacity="0.3">
<path opacity="0.3" d="M193.632 131.81C193.416 131.332 193.106 130.814 192.591 130.71C191.742 130.535 191.175 131.536 190.888 132.345C188.601 138.796 185.57 144.728 181.633 150.329L181.451 158.98C185.558 155.539 189.607 151.854 192.228 147.191C194.837 142.528 195.844 136.677 193.632 131.81Z" fill="black"/>
</g>
<path d="M169.416 91.6113C169.416 91.6113 164.519 98.2539 162.483 102.591C160.447 106.928 143.597 143.349 142.585 147.11C141.567 150.871 138.952 162.718 146.651 165.466H162.483L178.373 133.487L179.187 96.3735L169.416 91.6113Z" fill="#FF6652"/>
<path d="M163.501 142.365C163.478 142.388 163.15 142.057 162.419 141.643C161.693 141.236 160.558 140.764 159.095 140.444C158.364 140.287 157.551 140.159 156.673 140.106C155.796 140.054 154.854 140.066 153.894 140.287C151.975 140.712 150.068 141.923 148.564 143.617C147.037 145.311 146.101 147.314 145.545 149.2C144.984 151.092 144.744 152.868 144.592 154.352C144.445 155.842 144.387 157.053 144.334 157.892C144.311 158.282 144.287 158.602 144.276 158.858C144.258 159.079 144.247 159.196 144.235 159.196C144.223 159.196 144.217 159.079 144.217 158.858C144.217 158.602 144.217 158.282 144.223 157.892C144.241 157.053 144.264 155.837 144.381 154.335C144.504 152.838 144.726 151.045 145.276 149.118C145.82 147.203 146.774 145.148 148.336 143.413C149.875 141.678 151.841 140.438 153.836 140.013C154.83 139.792 155.802 139.786 156.691 139.856C157.58 139.92 158.405 140.06 159.142 140.234C160.622 140.584 161.757 141.09 162.477 141.538C162.834 141.765 163.097 141.969 163.261 142.121C163.425 142.272 163.507 142.359 163.501 142.365Z" fill="#263238"/>
<path d="M155.995 135.996C155.995 135.972 156.182 135.943 156.527 135.908C156.872 135.868 157.376 135.856 157.996 135.891C158.616 135.92 159.353 136.025 160.155 136.211C160.95 136.409 161.816 136.7 162.676 137.102C163.53 137.515 164.303 137.998 164.958 138.493C165.607 139 166.152 139.5 166.567 139.966C166.982 140.426 167.292 140.822 167.474 141.113C167.661 141.404 167.76 141.567 167.743 141.579C167.696 141.614 167.269 140.979 166.409 140.112C165.982 139.675 165.432 139.198 164.788 138.72C164.133 138.249 163.378 137.783 162.542 137.381C161.699 136.985 160.863 136.7 160.084 136.49C159.3 136.292 158.587 136.17 157.978 136.118C156.761 135.99 155.995 136.054 155.995 135.996Z" fill="#263238"/>
<path d="M170.306 134.243C170.3 134.266 170.042 134.243 169.574 134.185C169.106 134.126 168.428 134.057 167.591 133.992C165.918 133.864 163.589 133.835 161.038 134.138C158.493 134.447 156.235 135.023 154.638 135.535C153.836 135.791 153.193 136.018 152.754 136.187C152.315 136.35 152.063 136.432 152.057 136.414C152.052 136.397 152.28 136.275 152.713 136.077C153.14 135.873 153.772 135.617 154.573 135.331C156.165 134.761 158.435 134.144 161.009 133.835C163.577 133.533 165.935 133.597 167.614 133.777C168.457 133.864 169.135 133.969 169.598 134.062C170.06 134.167 170.311 134.225 170.306 134.243Z" fill="#263238"/>
<path d="M215.408 103.126C215.402 103.132 215.349 103.068 215.244 102.934C215.133 102.783 214.986 102.591 214.811 102.358C214.425 101.822 213.886 101.083 213.22 100.163C211.85 98.2417 209.949 95.5695 207.702 92.42L207.948 92.385C207.094 94.8767 206.152 97.6304 205.163 100.524L205.099 100.704L204.941 100.599C204.836 100.535 204.724 100.46 204.613 100.39C203.303 99.5632 202.144 98.5677 201.167 97.4907C200.19 96.4078 199.377 95.2551 198.704 94.1024C197.358 91.7912 196.545 89.5149 195.995 87.5879C195.445 85.6551 195.159 84.0483 194.971 82.948C194.878 82.4182 194.808 81.9991 194.749 81.6789C194.72 81.5333 194.691 81.4285 194.673 81.3529C194.644 81.2888 194.632 81.2481 194.638 81.2481C194.702 81.219 194.872 81.8302 195.088 82.9305C195.317 84.025 195.633 85.6202 196.206 87.5355C196.779 89.4451 197.604 91.6981 198.95 93.9685C199.623 95.1038 200.424 96.2332 201.39 97.2986C202.361 98.3523 203.496 99.3304 204.777 100.14C204.888 100.209 204.999 100.279 205.099 100.343L204.877 100.425C205.877 97.5314 206.825 94.7836 207.685 92.2977L207.773 92.0357L207.931 92.2628C210.136 95.4356 212.008 98.1311 213.354 100.07C213.998 101.007 214.507 101.764 214.881 102.311C215.045 102.556 215.174 102.754 215.279 102.911C215.367 103.05 215.413 103.12 215.408 103.126Z" fill="#263238"/>
<g opacity="0.3">
<path opacity="0.3" d="M233.75 130.017C233.094 136.531 234.539 143.238 237.822 148.908C241.098 154.584 245.907 159.638 251.892 162.356C252.085 156.575 251.805 149.764 251.998 143.983L233.75 130.017Z" fill="black"/>
</g>
<path d="M233.088 122.408C233.088 122.408 230.531 123.112 232.45 128.334C234.369 133.551 235.007 133.236 236.288 138.121C237.57 142.999 239.062 147.459 241.302 150.218C243.543 152.978 251.863 158.601 251.863 158.601L259.328 151.598C259.328 151.598 258.099 146.376 258.392 142.83C258.685 139.285 259.433 130.581 259.328 129.097C259.223 127.612 257.62 124.003 257.62 124.003V121.535L253.782 109.78C253.782 109.78 251.646 108.826 250.903 112.22L249.622 108.616C249.622 108.616 247.598 108.296 247.065 112.435C246.533 116.574 247.492 122.303 247.492 122.303L246.427 129.522L244.83 134.401L243.444 134.61C243.444 134.61 241.355 134.045 240.214 130.133C239.062 126.227 235.967 121.558 233.088 122.408Z" fill="#FFBE9D"/>
<path d="M256.824 140.862C256.818 140.862 256.806 140.769 256.789 140.595C256.777 140.391 256.76 140.135 256.736 139.814C256.695 139.104 256.643 138.12 256.578 136.892C256.461 134.359 256.303 130.832 256.116 126.716L256.151 126.803C255.806 126.395 255.198 126.273 254.642 126.413C254.074 126.547 253.571 126.896 253.255 127.42C252.606 128.462 252.565 129.824 252.366 131.14C251.962 134.115 251.576 136.944 251.225 139.529C251.049 140.816 250.862 142.044 250.605 143.179C250.359 144.315 250.014 145.351 249.68 146.277C249.353 147.202 249.06 148.04 248.879 148.797C248.697 149.554 248.621 150.218 248.639 150.765C248.662 151.86 248.984 152.418 248.932 152.43C248.92 152.436 248.861 152.296 248.75 152.023C248.662 151.743 248.54 151.324 248.516 150.771C248.481 150.218 248.54 149.531 248.709 148.762C248.879 147.994 249.16 147.144 249.476 146.212C249.797 145.281 250.125 144.262 250.359 143.133C250.599 142.009 250.774 140.787 250.944 139.5C251.289 136.915 251.664 134.086 252.062 131.111C252.155 130.447 252.225 129.795 252.342 129.137C252.459 128.485 252.641 127.833 253.004 127.274C253.343 126.704 253.94 126.285 254.572 126.139C255.198 125.982 255.941 126.122 256.368 126.634L256.397 126.675V126.721C256.537 130.837 256.66 134.365 256.748 136.904C256.777 138.132 256.806 139.116 256.824 139.832C256.83 140.152 256.83 140.408 256.83 140.612C256.836 140.775 256.83 140.862 256.824 140.862Z" fill="#EB996E"/>
<path d="M252.74 127.49C252.723 127.496 252.606 127.263 252.424 126.826C252.249 126.39 252.015 125.744 251.798 124.923C251.582 124.108 251.377 123.112 251.26 122C251.202 121.441 251.161 120.848 251.231 120.23C251.295 119.613 251.477 118.961 251.874 118.408C252.214 117.931 252.694 117.547 253.238 117.389L253.355 117.354L253.413 117.459C254.496 119.357 255.432 121.034 256.093 122.239C256.397 122.804 256.649 123.275 256.859 123.665C257.035 124.003 257.122 124.189 257.105 124.201C257.087 124.213 256.97 124.038 256.766 123.718C256.537 123.345 256.257 122.885 255.923 122.338C255.215 121.156 254.244 119.503 253.15 117.611L253.325 117.681C252.857 117.82 252.43 118.152 252.126 118.589C251.769 119.089 251.594 119.683 251.529 120.265C251.465 120.853 251.494 121.43 251.541 121.977C251.64 123.077 251.816 124.061 252.009 124.876C252.196 125.691 252.395 126.343 252.536 126.792C252.682 127.234 252.764 127.484 252.74 127.49Z" fill="#EB996E"/>
<path d="M250.956 128.451C250.932 128.451 250.909 128.212 250.885 127.775C250.868 127.275 250.839 126.658 250.809 125.93C250.757 124.37 250.71 122.216 250.675 119.834C250.657 117.453 250.564 115.294 250.768 113.728C250.868 112.947 251.026 112.324 251.166 111.911C251.307 111.492 251.424 111.282 251.441 111.288C251.494 111.306 251.114 112.208 250.979 113.757C250.833 115.299 250.956 117.453 250.973 119.834C251.008 122.216 251.02 124.37 251.02 125.93C251.014 126.658 251.002 127.275 250.997 127.781C250.991 128.206 250.979 128.445 250.956 128.451Z" fill="#EB996E"/>
<path d="M244.643 148.018C244.602 147.983 245.064 147.436 245.644 146.44C245.936 145.946 246.235 145.329 246.509 144.63C246.773 143.92 247.013 143.122 247.176 142.266C247.329 141.405 247.381 140.578 247.381 139.821C247.37 139.064 247.305 138.383 247.206 137.824C247.013 136.695 246.767 136.02 246.82 136.002C246.837 135.996 246.913 136.159 247.03 136.462C247.153 136.765 247.288 137.219 247.416 137.784C247.545 138.354 247.633 139.047 247.662 139.815C247.68 140.59 247.627 141.44 247.475 142.319C247.311 143.198 247.059 144.013 246.773 144.729C246.474 145.439 246.147 146.062 245.825 146.551C245.509 147.04 245.222 147.419 245 147.657C244.789 147.902 244.661 148.03 244.643 148.018Z" fill="#EB996E"/>
<path d="M257.749 144.367L264.225 146.603C264.225 146.603 270.409 143.418 274.674 146.603C278.939 149.787 282.643 158.176 281.473 161.57C281.473 161.57 278.53 165.186 276.289 165.715C274.048 166.245 265.343 164.149 261.721 163.387C258.088 162.624 251.851 158.59 251.851 158.59L257.749 144.367Z" fill="#FFBE9D"/>
<path d="M258.545 153.862C258.521 153.862 258.498 153.658 258.474 153.292C258.451 152.855 258.416 152.337 258.381 151.737C258.31 150.422 258.223 148.605 258.193 146.591C258.164 144.577 258.223 142.754 258.346 141.439C258.404 140.781 258.474 140.251 258.539 139.884C258.603 139.517 258.65 139.319 258.673 139.325C258.72 139.331 258.621 140.14 258.556 141.45C258.492 142.76 258.468 144.577 258.498 146.585C258.533 148.553 258.568 150.334 258.591 151.731C258.597 152.389 258.597 152.925 258.585 153.292C258.585 153.658 258.568 153.862 258.545 153.862Z" fill="#EB996E"/>
<path d="M279.905 146.347C279.858 146.394 279.191 145.474 277.752 144.414C276.33 143.355 274.025 142.225 271.299 142.074C268.566 141.929 266.15 142.796 264.623 143.693C263.073 144.589 262.312 145.427 262.271 145.381C262.259 145.369 262.441 145.154 262.803 144.804C263.172 144.455 263.74 143.989 264.512 143.512C266.039 142.552 268.508 141.62 271.316 141.777C274.124 141.934 276.476 143.128 277.886 144.246C278.6 144.804 279.121 145.334 279.443 145.718C279.764 146.109 279.922 146.341 279.905 146.347Z" fill="#263238"/>
<path d="M279.075 140.973C279.034 141.037 278.168 140.164 276.377 139.494C274.616 138.807 271.884 138.493 269.082 139.279C267.683 139.669 266.402 140.222 265.308 140.839C264.214 141.462 263.301 142.143 262.576 142.76C261.85 143.378 261.294 143.919 260.914 144.292C260.534 144.67 260.323 144.874 260.306 144.862C260.294 144.85 260.475 144.618 260.832 144.21C261.189 143.808 261.722 143.244 262.441 142.597C263.155 141.951 264.068 141.241 265.173 140.595C266.279 139.954 267.578 139.378 269.006 138.982C271.878 138.179 274.681 138.54 276.459 139.291C277.36 139.657 278.027 140.082 278.454 140.408C278.677 140.566 278.823 140.717 278.928 140.81C279.028 140.915 279.08 140.967 279.075 140.973Z" fill="#263238"/>
<path d="M279.127 136.316C279.11 136.374 277.98 136.03 276.097 135.78C275.155 135.646 274.025 135.57 272.773 135.57C271.521 135.588 270.146 135.693 268.719 135.931C267.297 136.188 265.969 136.56 264.781 136.968C263.605 137.393 262.57 137.847 261.733 138.295C260.054 139.174 259.106 139.879 259.071 139.832C259.06 139.815 259.288 139.634 259.721 139.314C259.931 139.151 260.2 138.965 260.522 138.767C260.844 138.569 261.207 138.324 261.628 138.109C262.459 137.637 263.5 137.16 264.682 136.712C265.875 136.287 267.221 135.902 268.66 135.64C270.105 135.396 271.498 135.297 272.768 135.297C274.037 135.314 275.178 135.413 276.12 135.576C276.594 135.635 277.015 135.745 277.39 135.821C277.764 135.897 278.08 135.984 278.331 136.06C278.852 136.205 279.133 136.298 279.127 136.316Z" fill="#263238"/>
<path d="M229.496 79.3096C229.496 79.3096 229.794 79.8685 229.946 81.0212C230.104 82.168 230.081 83.8913 229.701 86.022C229.508 87.0874 229.25 88.2576 228.864 89.5092C228.46 90.7609 227.852 92.0417 227.161 93.3807C225.769 96.0587 224.008 98.9754 221.978 102.09L221.738 102.457V102.02C221.732 99.9651 221.732 97.8052 221.726 95.558L221.954 95.6686C220.211 97.0658 218.38 98.5387 216.49 100.058L216.537 99.9883C215.273 103.982 214.436 108.43 214.109 113.058C213.576 120.143 214.003 126.92 214.343 133.067C214.629 139.221 214.817 144.769 215.01 149.421C215.197 154.078 215.367 157.839 215.507 160.441C215.583 161.728 215.642 162.735 215.683 163.434C215.706 163.765 215.724 164.022 215.735 164.214C215.747 164.388 215.741 164.481 215.741 164.481C215.741 164.481 215.724 164.394 215.7 164.219C215.683 164.033 215.653 163.771 215.618 163.445C215.554 162.764 215.472 161.751 215.384 160.453C215.209 157.85 215.004 154.09 214.793 149.432C214.583 144.775 214.337 139.233 214.056 133.085C213.705 126.943 213.266 120.149 213.799 113.041C214.132 108.395 214.969 103.924 216.25 99.9068L216.262 99.8661L216.297 99.837C218.187 98.3233 220.024 96.8563 221.767 95.459L221.995 95.2786V95.5697C221.99 97.811 221.99 99.9709 221.984 102.032L221.744 101.962C225.763 95.7618 229.034 90.3709 229.537 86.0104C229.941 83.8971 229.987 82.1913 229.853 81.0445C229.794 80.4681 229.683 80.0431 229.613 79.752C229.531 79.4551 229.496 79.3096 229.496 79.3096Z" fill="#263238"/>
<path d="M219 154.404L218.79 154.398C217.941 154.422 217.187 155.19 217.187 156.034C217.187 156.879 217.935 157.653 218.778 157.682C219.626 157.711 220.428 156.989 220.48 156.151C220.545 155.307 219.843 154.486 219 154.404Z" fill="white"/>
<path d="M219 131.968L218.79 131.962C217.941 131.985 217.187 132.754 217.187 133.598C217.187 134.442 217.935 135.216 218.778 135.245C219.626 135.274 220.428 134.553 220.48 133.714C220.545 132.87 219.843 132.049 219 131.968Z" fill="white"/>
<path d="M218.784 111.894C219.632 111.923 220.434 111.201 220.486 110.363C220.545 109.524 219.843 108.704 219 108.622L218.79 108.616C217.941 108.639 217.187 109.408 217.187 110.252C217.187 111.09 217.935 111.865 218.784 111.894Z" fill="white"/>
<path d="M193.52 53.0188C191.467 50.7599 189.402 48.472 187.904 45.8173C186.406 43.1626 185.517 40.0596 186.014 37.0556C186.301 35.2974 187.056 33.6266 187.173 31.851C187.336 29.4058 186.307 26.8501 187.173 24.5622C188.536 20.9818 193.38 20.4287 196.317 17.9545C198.605 16.0275 199.716 12.9012 202.238 11.277C204.438 9.86231 207.264 9.89142 209.855 10.2582C212.447 10.625 215.057 11.277 217.654 10.9277C219.503 10.6773 221.247 9.93799 223.06 9.48972C224.874 9.04144 226.892 8.92501 228.507 9.85648C230.122 10.788 231.029 13.0701 229.97 14.6012C232.977 13.2214 236.798 15.556 237.622 18.7463C238.447 21.9366 236.798 25.3889 234.247 27.4905C231.696 29.598 228.402 30.576 225.149 31.1873C215.934 32.9163 205.941 31.9383 198.002 26.9782" fill="#263238"/>
<path d="M225.915 83.8394C225.465 80.3696 225.096 77.4762 225.073 77.1153C225.073 77.1153 236.727 74.5071 236.084 62.7822C235.774 57.1176 234.176 45.4917 232.614 34.9951C230.935 23.7242 220.819 15.632 209.393 16.3888L208.258 16.4645C196.054 17.9898 190.542 29.1559 192.415 41.2534L198.997 81.8134C198.997 81.8134 201.805 90.7847 207.819 92.3391L215.402 103.121L216.654 98.481L222.305 93.5849C222.305 93.5849 223.604 92.1877 225.09 89.4573C226.319 87.2276 226.062 84.928 225.915 83.8394Z" fill="#FFBE9D"/>
<path d="M225.079 76.9463C225.079 76.9463 217.678 78.0466 209.434 73.6279C209.434 73.6279 213.629 81.8191 225.307 79.9794L225.079 76.9463Z" fill="#EB996E"/>
<path d="M230.473 40.915C230.28 41.1479 228.94 40.2921 227.133 40.4202C225.325 40.5192 224.055 41.5322 223.844 41.3284C223.739 41.2352 223.926 40.8277 224.476 40.3736C225.02 39.9195 225.962 39.448 227.092 39.3781C228.221 39.3082 229.198 39.6575 229.771 40.0476C230.356 40.426 230.567 40.8103 230.473 40.915Z" fill="#263238"/>
<path d="M212.711 42.4346C212.517 42.6674 211.178 41.8116 209.37 41.9397C207.562 42.0387 206.292 43.0517 206.082 42.8479C205.976 42.7548 206.164 42.3472 206.714 41.8932C207.252 41.4391 208.2 40.9675 209.323 40.8976C210.452 40.8278 211.429 41.1771 212.003 41.5671C212.588 41.9455 212.804 42.3298 212.711 42.4346Z" fill="#263238"/>
<path d="M220.17 55.353C220.152 55.2541 221.264 54.9804 223.072 54.6311C223.528 54.5554 223.961 54.4332 224.019 54.113C224.107 53.7753 223.879 53.2921 223.622 52.7682C223.113 51.6853 222.58 50.5501 222.019 49.3566C219.784 44.4955 218.134 40.4901 218.333 40.4028C218.532 40.3155 220.497 44.1811 222.732 49.0423C223.271 50.2415 223.785 51.3826 224.277 52.4771C224.488 52.9894 224.827 53.5599 224.64 54.2644C224.54 54.6137 224.218 54.8873 223.926 54.9863C223.633 55.0969 223.376 55.1201 223.148 55.1493C221.322 55.3705 220.187 55.452 220.17 55.353Z" fill="#263238"/>
<path d="M212.699 35.3446C212.553 35.8453 210.733 35.7346 208.627 36.1305C206.515 36.4856 204.841 37.2192 204.531 36.7942C204.391 36.5904 204.66 36.1131 205.321 35.5891C205.976 35.071 207.041 34.547 208.305 34.32C209.569 34.0987 210.751 34.221 211.546 34.483C212.342 34.7508 212.763 35.1117 212.699 35.3446Z" fill="#263238"/>
<path d="M229.455 35.7458C229.162 36.1766 227.887 35.8332 226.389 35.9147C224.886 35.9438 223.639 36.3746 223.318 35.9671C223.177 35.7691 223.347 35.3441 223.879 34.9192C224.4 34.5 225.295 34.1216 226.325 34.0808C227.355 34.0459 228.273 34.3544 228.823 34.7387C229.385 35.1287 229.584 35.5363 229.455 35.7458Z" fill="#263238"/>
<path d="M193.959 49.8699C193.754 49.7942 185.71 48.0244 186.506 56.0235C187.301 64.0167 196.007 61.4144 196.001 61.1815C195.989 60.9486 193.959 49.8699 193.959 49.8699Z" fill="#FFBE9D"/>
<path d="M192.438 58.556C192.403 58.5327 192.31 58.6666 192.081 58.8005C191.859 58.9286 191.473 59.0392 191.04 58.9227C190.162 58.6957 189.314 57.4266 189.133 55.9886C189.039 55.2609 189.127 54.5564 189.326 53.9568C189.513 53.3455 189.852 52.9031 190.274 52.7866C190.689 52.6469 191.017 52.874 191.139 53.0894C191.268 53.3048 191.233 53.4678 191.28 53.4736C191.303 53.4911 191.438 53.3222 191.344 52.9962C191.297 52.839 191.18 52.6644 190.976 52.5247C190.765 52.3849 190.478 52.3384 190.18 52.3966C189.566 52.5014 189.062 53.1243 188.84 53.7822C188.583 54.4458 188.472 55.2434 188.577 56.0584C188.787 57.6652 189.765 59.0916 190.964 59.307C191.543 59.4001 191.999 59.1847 192.222 58.9693C192.444 58.7481 192.468 58.5676 192.438 58.556Z" fill="#EB996E"/>
<path d="M232.024 24.0735C231.474 27.258 224.985 30.1689 219.609 30.0175C214.653 29.872 212.202 27.4269 208.598 25.6862C206.316 24.5859 206.316 24.5859 203.227 25.0865C200.723 25.494 199.43 28.4282 198.026 30.5298C200.699 36.3341 199.617 43.0815 198.488 49.3689C198.365 50.0617 198.207 50.8127 197.675 51.2785C196.774 52.0702 195.305 51.5987 194.422 50.7895C193 49.497 192.351 47.57 191.888 45.7129C190.829 41.4747 190.42 37.0327 191.093 32.713C191.766 28.3933 193.562 24.2016 196.528 20.9764C200.231 16.9477 205.649 14.6249 211.131 14.3454C216.613 14.066 222.119 15.7543 226.705 18.7467C228.829 20.1264 230.818 21.8438 232.024 24.0735Z" fill="#263238"/>
<path d="M221.358 59.3993C219.995 58.7648 218.626 58.1302 217.262 57.5015C217.028 57.3908 216.777 57.2802 216.519 57.3152C216.227 57.3559 215.999 57.5713 215.811 57.7925C214.864 58.9394 214.624 60.6626 215.355 61.9551C216.092 63.2475 217.818 63.9286 219.199 63.3581C220.65 62.7585 221.358 61.0818 221.469 59.5216L221.358 59.3993Z" fill="#EB996E"/>
<path d="M219.328 63.6488C219.34 63.6838 219.141 63.8002 218.731 63.8875C218.327 63.9632 217.695 63.9981 216.97 63.7594C216.25 63.5324 215.437 62.9735 214.934 62.077C214.425 61.2037 214.238 59.9753 214.682 58.8634C214.893 58.3103 215.227 57.8213 215.63 57.437C215.835 57.2449 216.051 57.0819 216.297 56.9364C216.426 56.8665 216.584 56.7966 216.771 56.785C216.952 56.7734 217.116 56.8199 217.245 56.8781C217.514 56.9946 217.684 57.1227 217.883 57.2391C218.076 57.3555 218.257 57.472 218.439 57.5826C218.79 57.8038 219.123 58.0076 219.433 58.2055C220.65 58.974 221.376 59.4805 221.335 59.5561C221.294 59.626 220.486 59.2476 219.217 58.5781C218.895 58.4034 218.55 58.2172 218.181 58.0192C217.994 57.9144 217.801 57.8096 217.608 57.7048C217.415 57.6 217.198 57.4661 217.029 57.4021C216.841 57.3381 216.759 57.3439 216.578 57.4429C216.397 57.5535 216.204 57.7048 216.04 57.8678C215.7 58.1997 215.425 58.613 215.244 59.0846C214.87 60.0219 215.004 61.0407 215.42 61.815C215.829 62.5951 216.49 63.1074 217.11 63.3636C217.736 63.6255 218.31 63.6605 218.696 63.6605C219.094 63.643 219.31 63.6081 219.328 63.6488Z" fill="#263238"/>
<path d="M218.034 45.2762C217.987 45.2821 218.04 44.5311 217.712 43.2503C217.391 41.9986 216.548 40.1531 214.653 38.721C213.711 38.0224 212.529 37.4344 211.166 37.1957C209.814 36.9686 208.281 37.0094 206.83 37.5625C206.099 37.8186 205.391 38.197 204.747 38.6802C204.092 39.1518 203.495 39.7398 203.004 40.4209C201.992 41.7657 201.418 43.489 201.401 45.2646C201.418 47.0402 201.986 48.7693 203.004 50.1141C203.495 50.7952 204.092 51.3832 204.747 51.8606C205.397 52.3438 206.099 52.728 206.83 52.9784C208.281 53.5314 209.814 53.5722 211.166 53.3452C212.529 53.1065 213.711 52.5185 214.653 51.8199C216.548 50.3935 217.391 48.548 217.712 47.2906C218.04 46.0156 217.987 45.2704 218.034 45.2762C218.04 45.2762 218.04 45.3228 218.04 45.4101C218.04 45.5208 218.034 45.6488 218.034 45.806C218.034 45.9807 218.028 46.1961 217.982 46.4522C217.946 46.7084 217.917 46.9995 217.824 47.3255C217.689 47.9775 217.391 48.7518 216.917 49.5785C216.437 50.3994 215.741 51.261 214.781 51.9945C213.828 52.7222 212.617 53.3393 211.212 53.5955C209.82 53.84 208.24 53.8051 206.737 53.2462C205.976 52.99 205.245 52.5942 204.572 52.0993C203.893 51.6103 203.273 51.0048 202.764 50.3004C201.711 48.909 201.114 47.1217 201.097 45.2762C201.114 43.4308 201.711 41.6435 202.764 40.2521C203.273 39.5477 203.893 38.9422 204.572 38.4532C205.245 37.9583 205.976 37.5624 206.737 37.3063C208.246 36.7416 209.82 36.7067 211.212 36.957C212.617 37.2131 213.828 37.8361 214.781 38.558C215.741 39.2915 216.437 40.1531 216.917 40.974C217.391 41.8007 217.689 42.575 217.824 43.227C217.917 43.5472 217.946 43.8441 217.982 44.1002C218.023 44.3564 218.034 44.5718 218.034 44.7465C218.034 44.9036 218.04 45.0375 218.04 45.1423C218.04 45.2297 218.04 45.2762 218.034 45.2762Z" fill="#263238"/>
<path d="M238.067 44.4904C238.02 44.4962 238.073 43.7627 237.751 42.5168C237.435 41.2942 236.616 39.4953 234.767 38.1098C233.855 37.4286 232.702 36.8523 231.374 36.6252C230.058 36.404 228.566 36.4447 227.15 36.9862C226.436 37.2307 225.752 37.6033 225.12 38.0748C224.482 38.5347 223.903 39.1111 223.423 39.7748C222.434 41.0847 221.878 42.7613 221.861 44.4962C221.878 46.2311 222.434 47.9077 223.417 49.2176C223.897 49.8813 224.476 50.4518 225.114 50.9176C225.746 51.3891 226.43 51.7617 227.144 52.0062C228.56 52.5418 230.046 52.5884 231.368 52.3672C232.696 52.1343 233.849 51.5579 234.762 50.8826C236.61 49.4912 237.429 47.6981 237.739 46.4756C238.073 45.2181 238.02 44.4845 238.067 44.4904C238.079 44.4904 238.079 44.6708 238.073 45.0085C238.073 45.1773 238.067 45.3927 238.026 45.6373C237.991 45.8876 237.962 46.1729 237.874 46.4872C237.587 47.7331 236.786 49.5902 234.908 51.0398C233.978 51.7501 232.796 52.3555 231.427 52.6C230.069 52.8387 228.531 52.8038 227.062 52.2566C226.325 52.0062 225.611 51.622 224.956 51.133C224.295 50.6556 223.692 50.0676 223.195 49.3806C222.165 48.0242 221.586 46.2835 221.574 44.4846C221.592 42.6856 222.171 40.9449 223.201 39.5885C223.698 38.9015 224.301 38.3077 224.962 37.8361C225.617 37.3529 226.331 36.9687 227.068 36.7184C228.536 36.1711 230.075 36.1362 231.433 36.3749C232.802 36.6252 233.983 37.2307 234.914 37.9351C236.792 39.3847 237.593 41.236 237.88 42.4877C237.968 42.8021 238.003 43.0873 238.032 43.3377C238.073 43.5822 238.085 43.7976 238.079 43.9664C238.079 44.3099 238.079 44.4904 238.067 44.4904Z" fill="#263238"/>
<path d="M221.72 42.6498C221.685 42.6847 221.492 42.5217 221.141 42.3529C220.79 42.184 220.263 42.021 219.666 42.0327C219.075 42.0385 218.549 42.2248 218.204 42.4053C217.853 42.5857 217.671 42.7546 217.636 42.7255C217.607 42.7022 217.742 42.4693 218.093 42.2248C218.438 41.9803 218.999 41.7416 219.661 41.7299C220.316 41.7183 220.889 41.9337 221.246 42.1666C221.597 42.3994 221.743 42.6265 221.72 42.6498Z" fill="#263238"/>
<path d="M201.758 44.0879C201.811 44.1577 200.167 45.4618 198.09 46.9987C196.013 48.5415 194.293 49.7349 194.24 49.6709C194.188 49.601 195.832 48.297 197.909 46.76C199.986 45.2173 201.712 44.018 201.758 44.0879Z" fill="#263238"/>
<g opacity="0.3">
<path opacity="0.3" d="M194.837 81.9756C194.024 89.8757 197.043 98.2182 203.408 103.004C203.906 103.382 204.538 103.749 205.123 103.539C205.532 103.394 205.796 103.004 206.012 102.625C207.826 99.499 208.434 96.0467 207.913 92.4722C206.907 95.1152 206.041 97.7059 205.023 100.471C199.471 97.1237 196.013 89.9979 194.837 81.9756Z" fill="black"/>
</g>
<path opacity="0.3" d="M216.397 99.9416L221.072 98.2417L221.844 106.107C221.844 106.107 226.887 96.9609 228.976 92.7867C231.064 88.6125 229.988 81.248 229.988 81.248C229.988 81.248 230.737 87.6636 225.682 95.8431L221.867 102.014V95.552L216.397 99.9416Z" fill="black"/>
<g opacity="0.3">
<path opacity="0.3" d="M162.032 139.914C159.95 138.936 157.551 138.802 155.263 139.07C152.847 139.35 150.419 140.089 148.523 141.608C146.628 143.128 145.346 145.526 145.581 147.937L145.815 147.972C147.447 143.582 150.688 140.386 154.871 139.996C159.054 139.611 163.132 141.463 166.005 144.513C165.724 142.231 164.121 140.892 162.032 139.914Z" fill="black"/>
</g>
<g opacity="0.3">
<path opacity="0.3" d="M280.209 144.402C278.642 142.719 276.442 141.701 274.172 141.305C270.187 140.612 265.911 141.846 262.909 144.548L263.798 143.826C266.063 142.504 268.672 141.724 271.299 141.8C273.92 141.875 276.547 142.842 278.448 144.641C280.198 146.294 281.245 148.535 282.245 150.719C282.643 148.466 281.777 146.084 280.209 144.402Z" fill="black"/>
</g>
<path d="M250.085 107.877C250.067 107.871 250.143 107.644 250.295 107.242C250.476 106.782 250.699 106.218 250.962 105.548C251.53 104.122 252.302 102.148 253.127 99.9593C253.946 97.7645 254.654 95.7677 255.163 94.3181C255.403 93.6427 255.608 93.0722 255.771 92.6065C255.918 92.2048 256.011 91.9835 256.029 91.9894C256.046 91.9952 255.994 92.2281 255.882 92.6414C255.771 93.0547 255.596 93.6544 255.368 94.3879C254.911 95.855 254.233 97.8693 253.414 100.064C252.594 102.259 251.781 104.221 251.167 105.63C250.857 106.334 250.599 106.899 250.412 107.289C250.219 107.673 250.102 107.888 250.085 107.877Z" fill="#263238"/>
<path d="M176.326 108.447C176.244 108.464 175.606 105.693 174.904 102.259C174.202 98.8237 173.699 96.0293 173.781 96.0118C173.863 95.9943 174.501 98.7655 175.203 102.2C175.905 105.635 176.408 108.43 176.326 108.447Z" fill="#263238"/>
<path d="M175.22 143.081C175.407 143.175 173.079 124.941 173.079 124.941C173.079 124.941 174.547 111.103 175.372 110.462L175.396 105.578C175.396 105.578 177.672 104.204 178.28 106.422C178.28 106.422 180.299 104.681 180.65 108.826C181.001 112.977 181.077 117.216 181.077 117.216L185.564 128.382L186.301 128.754C186.301 128.754 187.267 120.004 187.828 118.718C188.39 117.431 188.776 114.299 190.9 114.77C193.029 115.242 193.205 116.994 192.825 119.847C192.444 122.7 191.965 125.645 192.146 127.491C192.322 129.336 193.164 133.394 192.907 136.614C192.649 139.839 190.876 143.239 189.01 145.626C187.15 148.012 183.592 152.949 181.656 154.44C180.977 154.964 175.22 143.081 175.22 143.081Z" fill="#FFBE9D"/>
<path d="M177.49 128.242C177.467 128.242 177.472 127.963 177.502 127.462C177.543 126.903 177.589 126.193 177.648 125.343C177.783 123.556 177.993 121.087 178.245 118.363C178.373 117.006 178.496 115.708 178.607 114.526C178.666 113.938 178.701 113.385 178.625 112.879C178.555 112.372 178.356 111.936 178.063 111.621C177.472 110.981 176.706 110.818 176.232 110.824C175.735 110.818 175.477 110.952 175.466 110.923C175.46 110.911 175.524 110.882 175.647 110.83C175.776 110.783 175.969 110.725 176.226 110.707C176.729 110.672 177.549 110.8 178.221 111.482C178.555 111.819 178.789 112.308 178.871 112.844C178.964 113.385 178.929 113.962 178.882 114.556C178.777 115.743 178.66 117.036 178.543 118.398C178.292 121.122 178.046 123.585 177.859 125.366C177.759 126.211 177.677 126.921 177.613 127.474C177.554 127.969 177.508 128.242 177.49 128.242Z" fill="#EB996E"/>
<path d="M179.901 120.784C179.947 120.819 179.444 121.256 179.105 122.222C178.742 123.171 178.613 124.603 178.356 126.158C178.116 127.718 177.876 129.127 177.695 130.14C177.508 131.159 177.373 131.781 177.332 131.776C177.291 131.77 177.35 131.129 177.484 130.105C177.613 129.08 177.818 127.666 178.058 126.105C178.309 124.557 178.473 123.119 178.906 122.135C179.111 121.646 179.357 121.291 179.555 121.069C179.748 120.86 179.889 120.773 179.901 120.784Z" fill="#EB996E"/>
<path d="M178.251 106.184C178.274 106.178 178.327 106.382 178.409 106.76C178.491 107.133 178.59 107.674 178.701 108.349C178.924 109.694 179.169 111.563 179.327 113.641C179.479 115.72 179.514 117.606 179.491 118.968C179.479 119.649 179.462 120.202 179.433 120.581C179.409 120.959 179.386 121.169 179.362 121.169C179.316 121.169 179.31 120.325 179.275 118.968C179.239 117.606 179.175 115.731 179.023 113.665C178.871 111.598 178.66 109.729 178.491 108.379C178.321 107.022 178.21 106.19 178.251 106.184Z" fill="#EB996E"/>
<path d="M191.198 123.276C191.245 123.346 190.543 123.666 189.689 123.404C188.829 123.148 188.431 122.49 188.507 122.461C188.577 122.403 189.022 122.897 189.776 123.119C190.525 123.352 191.175 123.188 191.198 123.276Z" fill="#EB996E"/>
<path d="M175.472 140.812L163.613 145.772H156.545C156.545 145.772 149.559 147.943 148.483 154.458C147.406 160.978 147.254 164.331 150.326 165.135C153.397 165.938 162.074 166.031 166.374 164.611C170.674 163.19 181.943 154.143 181.943 154.143L183.031 147.6L175.472 140.812Z" fill="#FFBE9D"/>
<path d="M178.251 148.019C178.233 148.03 178.116 147.926 177.912 147.71C177.701 147.506 177.444 147.169 177.139 146.738C176.554 145.865 175.911 144.543 175.484 143.006C175.039 141.469 174.852 140.031 174.752 138.995C174.665 137.959 174.664 137.313 174.705 137.307C174.752 137.301 174.822 137.941 174.963 138.966C175.115 139.991 175.337 141.405 175.77 142.919C176.192 144.438 176.788 145.737 177.315 146.621C177.859 147.501 178.292 147.978 178.251 148.019Z" fill="#EB996E"/>
<path d="M183.417 150.085C183.352 150.062 183.885 149.165 184.089 147.553C184.189 146.755 184.177 145.783 183.949 144.741C183.721 143.699 183.223 142.627 182.498 141.626C181.778 140.619 180.965 139.746 180.286 138.901C179.596 138.057 179.046 137.236 178.683 136.491C178.321 135.746 178.151 135.088 178.087 134.628C178.028 134.168 178.052 133.912 178.069 133.912C178.128 133.901 178.11 134.954 178.876 136.392C179.251 137.108 179.813 137.9 180.503 138.721C181.193 139.548 182.012 140.421 182.75 141.446C183.493 142.464 184.013 143.594 184.23 144.671C184.452 145.748 184.435 146.755 184.306 147.57C184.177 148.391 183.949 149.025 183.762 149.445C183.674 149.654 183.586 149.811 183.522 149.916C183.458 150.038 183.422 150.091 183.417 150.085Z" fill="#EB996E"/>
<path d="M165.134 121.674C165.058 121.715 163.765 119.369 162.243 116.44C160.722 113.512 159.552 111.108 159.622 111.067C159.698 111.026 160.991 113.372 162.513 116.301C164.034 119.229 165.21 121.633 165.134 121.674Z" fill="white"/>
<path d="M184.312 100.431C184.236 100.396 185.037 98.446 186.096 96.0707C187.161 93.6955 188.085 91.7976 188.161 91.8325C188.237 91.8674 187.436 93.8177 186.377 96.193C185.312 98.5683 184.388 100.466 184.312 100.431Z" fill="white"/>
<path d="M203.093 114.216C203.028 114.269 201.823 112.93 200.407 111.224C198.986 109.518 197.891 108.092 197.956 108.04C198.02 107.987 199.225 109.326 200.641 111.032C202.057 112.738 203.157 114.164 203.093 114.216Z" fill="white"/>
<path d="M198.769 133.178C198.699 133.132 199.606 131.769 200.793 130.139C201.981 128.509 202.999 127.228 203.063 127.281C203.134 127.327 202.227 128.69 201.039 130.32C199.857 131.95 198.839 133.231 198.769 133.178Z" fill="white"/>
<path d="M192.953 159.964C192.918 159.981 192.649 159.539 192.269 158.794C191.883 158.049 191.385 157.007 190.888 155.836C190.385 154.66 189.981 153.583 189.706 152.792C189.437 152 189.297 151.499 189.338 151.488C189.379 151.476 189.589 151.947 189.911 152.716C190.28 153.589 190.701 154.602 191.169 155.72C191.649 156.832 192.087 157.833 192.468 158.706C192.795 159.463 192.994 159.941 192.953 159.964Z" fill="white"/>
<path d="M209.476 148.577C209.458 148.658 207.867 148.419 205.925 148.047C203.976 147.674 202.414 147.302 202.432 147.22C202.449 147.139 204.041 147.377 205.983 147.75C207.931 148.122 209.493 148.495 209.476 148.577Z" fill="white"/>
<path d="M222.294 123.549C222.23 123.49 223.751 121.767 225.682 119.689C227.613 117.616 229.233 115.98 229.292 116.039C229.356 116.097 227.835 117.82 225.904 119.898C223.968 121.971 222.353 123.607 222.294 123.549Z" fill="white"/>
<path d="M235.183 156.925C235.119 156.977 233.229 154.8 230.959 152.058C228.689 149.316 226.905 147.051 226.969 146.999C227.033 146.947 228.923 149.124 231.193 151.866C233.463 154.608 235.248 156.873 235.183 156.925Z" fill="white"/>
<path d="M155.158 142.703C155.199 142.784 153.473 143.657 151.589 145.095C149.7 146.522 148.395 147.954 148.325 147.89C148.296 147.867 148.582 147.476 149.12 146.9C149.653 146.33 150.449 145.584 151.402 144.857C152.356 144.135 153.292 143.57 153.988 143.203C154.684 142.842 155.141 142.668 155.158 142.703Z" fill="white"/>
<path d="M159.98 129.837C160.05 129.883 159.435 130.925 158.605 132.165C157.774 133.405 157.048 134.372 156.978 134.325C156.908 134.279 157.522 133.236 158.353 131.996C159.178 130.756 159.909 129.79 159.98 129.837Z" fill="white"/>
<path d="M170.838 142.469C170.774 142.51 170.159 141.491 169.843 140.076C169.516 138.667 169.627 137.485 169.703 137.491C169.797 137.491 169.826 138.638 170.142 140.006C170.446 141.38 170.92 142.428 170.838 142.469Z" fill="white"/>
<path d="M172.447 102.346C172.459 102.428 171.453 102.643 170.195 102.818C168.937 102.998 167.907 103.074 167.895 102.992C167.884 102.911 168.89 102.695 170.148 102.521C171.406 102.34 172.435 102.265 172.447 102.346Z" fill="white"/>
<path d="M180.603 87.9496C180.644 88.0253 179.76 88.59 178.631 89.213C177.502 89.8359 176.548 90.2841 176.507 90.2085C176.466 90.1328 177.35 89.5681 178.479 88.9451C179.614 88.3222 180.562 87.8798 180.603 87.9496Z" fill="white"/>
<path d="M203.543 94.0319C203.479 94.0843 202.467 92.8734 201.285 91.3307C200.103 89.7879 199.202 88.5013 199.272 88.4489C199.337 88.3965 200.349 89.6074 201.531 91.1502C202.707 92.6871 203.614 93.9796 203.543 94.0319Z" fill="white"/>
<path d="M232.662 108.505C232.603 108.557 231.538 107.469 230.556 105.885C229.561 104.302 229.052 102.875 229.122 102.846C229.204 102.811 229.836 104.168 230.813 105.728C231.79 107.288 232.732 108.447 232.662 108.505Z" fill="white"/>
<path d="M243.778 112.15C243.854 112.185 243.315 113.536 242.572 115.16C241.829 116.79 241.168 118.082 241.086 118.047C241.01 118.013 241.548 116.662 242.291 115.038C243.035 113.408 243.702 112.115 243.778 112.15Z" fill="white"/>
<path d="M245.334 97.0541C245.269 97.1065 243.947 95.6336 242.379 93.759C240.811 91.8844 239.594 90.3184 239.659 90.266C239.723 90.2136 241.045 91.6865 242.613 93.5611C244.175 95.4415 245.398 97.0018 245.334 97.0541Z" fill="white"/>
<path d="M228.355 84.7935C228.274 84.7993 228.151 83.536 228.092 81.97C228.028 80.4098 228.051 79.1406 228.133 79.1348C228.215 79.129 228.338 80.3923 228.396 81.9583C228.461 83.5244 228.443 84.7935 228.355 84.7935Z" fill="white"/>
<path d="M242.198 84.0314C242.21 84.1129 240.589 84.3981 238.588 84.6659C236.582 84.9337 234.949 85.0793 234.938 84.9978C234.926 84.9163 236.541 84.631 238.547 84.3632C240.548 84.0954 242.187 83.9499 242.198 84.0314Z" fill="white"/>
<path d="M263.997 99.9649C263.921 99.9998 262.95 98.1543 261.821 95.8431C260.697 93.5319 259.843 91.6223 259.919 91.5874C259.995 91.5525 260.967 93.398 262.096 95.7092C263.219 98.0204 264.073 99.9299 263.997 99.9649Z" fill="white"/>
<path d="M260.323 113.733C260.241 113.716 260.47 112.231 260.832 110.421C261.195 108.604 261.558 107.149 261.64 107.166C261.722 107.184 261.493 108.668 261.131 110.479C260.768 112.289 260.411 113.751 260.323 113.733Z" fill="white"/>
<path d="M270.439 124.585C270.357 124.614 269.585 122.612 268.702 120.114C267.824 117.617 267.175 115.568 267.256 115.538C267.338 115.509 268.111 117.512 268.994 120.01C269.872 122.513 270.515 124.556 270.439 124.585Z" fill="white"/>
<path d="M269.029 130.936C269.011 131.012 267.613 130.721 266.074 129.882C264.53 129.056 263.518 128.048 263.576 127.996C263.635 127.926 264.711 128.811 266.221 129.62C267.718 130.43 269.058 130.849 269.029 130.936Z" fill="white"/>
<path d="M281.982 145.409C281.906 145.444 281.438 144.559 280.935 143.436C280.431 142.312 280.086 141.375 280.162 141.34C280.238 141.305 280.706 142.19 281.21 143.313C281.713 144.437 282.058 145.374 281.982 145.409Z" fill="white"/>
<path d="M205.479 165.599C205.397 165.611 205.193 164.452 205.023 163.02C204.853 161.588 204.789 160.418 204.871 160.406C204.953 160.395 205.157 161.553 205.327 162.985C205.497 164.417 205.561 165.588 205.479 165.599Z" fill="white"/>
<path d="M245.223 164.598C245.141 164.58 245.31 163.451 245.603 162.077C245.896 160.703 246.2 159.603 246.282 159.62C246.364 159.638 246.194 160.767 245.901 162.141C245.609 163.515 245.305 164.615 245.223 164.598Z" fill="white"/>
<path d="M252.84 49.1583L257.977 40.1463C255.701 36.4728 254.391 32.153 254.391 27.5248C254.391 14.2105 265.238 3.41699 278.618 3.41699C291.999 3.41699 302.846 14.2105 302.846 27.5248C302.846 40.8391 291.999 51.6325 278.618 51.6325C273.031 51.6325 267.888 49.7463 263.793 46.5851L263.799 46.5967L252.84 49.1583Z" fill="#FAFAFA"/>
<path d="M252.84 49.1582C253.361 49.0417 256.83 48.25 263.816 46.6606L263.927 46.6374L263.857 46.5442L263.851 46.5326L263.746 46.6374C265.127 47.7027 266.782 48.7507 268.731 49.6297C270.679 50.4913 272.914 51.19 275.377 51.516C276.606 51.6732 277.893 51.7721 279.215 51.7081C279.876 51.6732 280.549 51.6557 281.228 51.5975C281.9 51.4985 282.585 51.3937 283.275 51.2889C286.019 50.7475 288.822 49.7112 291.443 48.0986C294.058 46.486 296.48 44.3029 298.423 41.619C300.359 38.9352 301.828 35.7566 302.518 32.3043C303.197 28.852 303.144 25.1552 302.231 21.5748C301.313 18.0061 299.599 14.5247 297.036 11.6604L296.047 10.5776C295.72 10.2108 295.333 9.91391 294.982 9.57625C294.614 9.26188 294.28 8.90093 293.882 8.62149L292.718 7.75405C292.344 7.45132 291.928 7.20681 291.513 6.9623C291.103 6.71196 290.694 6.46745 290.284 6.21712C289.851 6.00753 289.424 5.80377 288.997 5.59419C288.564 5.39625 288.149 5.16338 287.698 5.01784C284.176 3.62645 280.426 3.09667 276.834 3.35864C273.241 3.6148 269.807 4.63943 266.864 6.2928C263.91 7.9287 261.417 10.1177 259.492 12.557C257.562 15.0021 256.204 17.6917 255.362 20.3756C254.525 23.071 254.297 25.7432 254.309 28.2174C254.379 30.6975 254.835 32.9854 255.497 34.9881C256.158 36.9966 257.029 38.7256 257.925 40.1752V40.1054C254.677 45.8922 253.092 48.7157 252.84 49.1582C253.098 48.7157 254.718 45.9155 258.042 40.1811L258.065 40.1461L258.042 40.1112C257.158 38.6616 256.304 36.9384 255.654 34.9415C255.011 32.9447 254.566 30.68 254.508 28.2174C254.508 25.7607 254.742 23.1176 255.578 20.4512C256.421 17.7965 257.772 15.136 259.686 12.72C261.593 10.3098 264.062 8.14993 266.987 6.53731C269.901 4.90723 273.3 3.90007 276.845 3.64973C280.391 3.3994 284.1 3.92335 287.575 5.29728C288.02 5.437 288.43 5.66987 288.857 5.86781C289.278 6.07157 289.705 6.27533 290.126 6.48491C290.53 6.72943 290.934 6.97394 291.343 7.21845C291.753 7.46297 292.162 7.70165 292.531 8.00438L293.678 8.86018C294.07 9.1338 294.397 9.48892 294.76 9.8033C295.105 10.1351 295.491 10.432 295.813 10.793L296.79 11.8642C299.324 14.6935 301.014 18.1342 301.921 21.6563C302.822 25.1901 302.881 28.8462 302.214 32.2577C301.535 35.6692 300.09 38.8188 298.177 41.4677C296.264 44.1282 293.871 46.2939 291.285 47.889C288.699 49.4958 285.926 50.5263 283.211 51.0677C282.526 51.1725 281.848 51.2773 281.187 51.3763C280.514 51.4345 279.847 51.4519 279.197 51.4927C277.887 51.5625 276.611 51.4636 275.394 51.3122C272.949 50.9978 270.732 50.3109 268.795 49.4667C266.858 48.6051 265.209 47.5747 263.828 46.5268L263.377 46.1833L263.722 46.6315L263.728 46.6432L263.769 46.5268C256.819 48.1976 253.361 49.0359 252.84 49.1582Z" fill="#263238"/>
<path d="M285.159 26.517C285.159 27.8152 286.218 28.8748 287.529 28.8748C288.839 28.8748 289.898 27.821 289.898 26.517C289.898 25.2187 288.839 24.1592 287.529 24.1592C286.218 24.1592 285.159 25.2187 285.159 26.517Z" fill="#263238"/>
<path d="M275.687 26.517C275.687 27.8152 276.745 28.8748 278.056 28.8748C279.367 28.8748 280.426 27.821 280.426 26.517C280.426 25.2187 279.367 24.1592 278.056 24.1592C276.745 24.1592 275.687 25.2187 275.687 26.517Z" fill="#263238"/>
<path d="M266.238 25.3421C265.583 26.4715 265.975 27.9095 267.104 28.5615C268.239 29.2136 269.684 28.8235 270.339 27.6999C270.995 26.5705 270.603 25.1325 269.474 24.4805C268.339 23.8285 266.888 24.2127 266.238 25.3421Z" fill="#263238"/>
</g>
<defs>
<clipPath id="clip0_28_4138">
<rect width="423" height="209" fill="white"/>
</clipPath>
</defs>
</svg>
