<svg width="193" height="220" viewBox="0 0 193 220" fill="none" xmlns="http://www.w3.org/2000/svg">
<g filter="url(#filter0_d_28_2258)">
<rect x="70" y="45" width="80" height="80" rx="10" fill="white"/>
</g>
<g clip-path="url(#clip0_28_2258)">
<path d="M130.463 109.999H115.647C113.418 109.999 111.61 108.191 111.61 105.962V91.1463C111.61 88.9168 113.418 87.1094 115.647 87.1094H130.463C132.692 87.1094 134.5 88.9168 134.5 91.1463V105.962C134.5 108.191 132.692 109.999 130.463 109.999Z" fill="#BDF4E3"/>
<path d="M129.15 106.433H116.96C115.976 106.433 115.177 105.635 115.177 104.65V92.4608C115.177 91.4761 115.976 90.6777 116.96 90.6777H129.15C130.134 90.6777 130.933 91.4761 130.933 92.4608V104.65C130.933 105.635 130.134 106.433 129.15 106.433Z" fill="#FFDCB6"/>
<path d="M130.463 87.1094H126.095C127.808 87.1094 129.197 88.498 129.197 90.2109V101.594C129.197 103.307 127.808 104.696 126.095 104.696H114.712C112.999 104.696 111.611 103.307 111.611 101.594V105.962C111.611 108.191 113.418 109.999 115.648 109.999H130.463C132.693 109.999 134.5 108.191 134.5 105.962V91.1463C134.5 88.9167 132.693 87.1094 130.463 87.1094Z" fill="#B1B7E3"/>
<path d="M129.197 90.6797V101.595C129.197 103.308 127.808 104.696 126.095 104.696H115.18C115.205 105.659 115.992 106.433 116.961 106.433H129.15C130.135 106.433 130.933 105.634 130.933 104.65V92.4605C130.933 91.4914 130.16 90.7048 129.197 90.6797Z" fill="#EFA5B6"/>
<path d="M127.526 87.0877H112.711C110.481 87.0877 108.674 85.2803 108.674 83.0508V68.2352C108.674 66.0057 110.481 64.1982 112.711 64.1982H127.526C129.756 64.1982 131.563 66.0057 131.563 68.2352V83.0509C131.563 85.2804 129.756 87.0877 127.526 87.0877Z" fill="#EF8BBD"/>
<path d="M126.213 83.52H114.024C113.04 83.52 112.241 82.7217 112.241 81.7369V69.5478C112.241 68.563 113.04 67.7646 114.024 67.7646H126.213C127.198 67.7646 127.996 68.563 127.996 69.5478V81.7369C127.996 82.7217 127.198 83.52 126.213 83.52Z" fill="#FFDCB6"/>
<path d="M127.526 64.1982H123.158C124.871 64.1982 126.26 65.5869 126.26 67.2998V78.6828C126.26 80.3957 124.871 81.7844 123.158 81.7844H111.775C110.063 81.7844 108.674 80.3957 108.674 78.6828V83.0508C108.674 85.2803 110.481 87.0877 112.711 87.0877H127.526C129.756 87.0877 131.563 85.2803 131.563 83.0508V68.2352C131.563 66.0057 129.756 64.1982 127.526 64.1982Z" fill="#E068BD"/>
<path d="M126.26 67.7676V78.6827C126.26 80.3956 124.872 81.7843 123.159 81.7843H112.242C112.267 82.7472 113.055 83.5205 114.024 83.5205H126.213C127.198 83.5205 127.996 82.7222 127.996 81.7374V69.5483C127.996 68.5794 127.223 67.7927 126.26 67.7676Z" fill="#EFA5B6"/>
<path d="M104.353 109.999H89.5369C87.3074 109.999 85.5 108.191 85.5 105.962V91.1463C85.5 88.9168 87.3074 87.1094 89.5369 87.1094H104.353C106.582 87.1094 108.39 88.9168 108.39 91.1463V105.962C108.389 108.191 106.582 109.999 104.353 109.999Z" fill="#CAB4EF"/>
<path d="M103.039 106.431H90.85C89.8652 106.431 89.0669 105.633 89.0669 104.648V92.4589C89.0669 91.4741 89.8652 90.6758 90.85 90.6758H103.039C104.024 90.6758 104.822 91.4741 104.822 92.4589V104.648C104.822 105.633 104.024 106.431 103.039 106.431Z" fill="#FFDCB6"/>
<path d="M104.354 87.1094H99.9854C101.698 87.1094 103.087 88.498 103.087 90.2109V101.594C103.087 103.307 101.698 104.696 99.9854 104.696H88.6025C86.8896 104.696 85.501 103.307 85.501 101.594V105.962C85.5009 108.191 87.3083 109.999 89.5378 109.999H104.354C106.583 109.999 108.39 108.192 108.39 105.962V91.1463C108.39 88.9168 106.583 87.1094 104.354 87.1094Z" fill="#BE87EF"/>
<path d="M103.086 90.6787V101.594C103.086 103.307 101.697 104.695 99.9844 104.695H89.0693C89.0944 105.658 89.8811 106.432 90.8501 106.432H103.039C104.024 106.432 104.822 105.633 104.822 104.648V92.4595C104.822 91.4904 104.049 90.7037 103.086 90.6787Z" fill="#EFA5B6"/>
<path d="M91.7427 98.8779C91.2033 98.8779 90.7661 98.4406 90.7661 97.9014V96.6943C90.7661 96.1551 91.2033 95.7178 91.7427 95.7178C92.282 95.7178 92.7192 96.1551 92.7192 96.6943V97.9014C92.7192 98.4407 92.282 98.8779 91.7427 98.8779Z" fill="white"/>
<path d="M91.7427 94.8149C91.2033 94.8149 90.7661 94.3776 90.7661 93.8384V93.3955C90.7661 92.8562 91.2033 92.4189 91.7427 92.4189C92.282 92.4189 92.7192 92.8562 92.7192 93.3955V93.8384C92.7192 94.3777 92.282 94.8149 91.7427 94.8149Z" fill="white"/>
<path d="M124.082 104.64C123.563 104.606 123.171 104.152 123.171 103.632V94.4209H121.996C121.476 94.4209 121.022 94.0284 120.988 93.5095C120.952 92.9407 121.402 92.4678 121.963 92.4678H124.238C124.727 92.4678 125.124 92.8645 125.124 93.3538V103.666C125.124 104.226 124.651 104.677 124.082 104.64Z" fill="#D58A9C"/>
<path d="M119.644 81.8325C117.684 81.8325 117.54 81.7844 117.408 81.7405C117.083 81.6321 116.84 81.3861 116.741 81.0657C116.571 80.513 116.81 80.2009 117.447 79.3667C117.967 78.686 118.934 77.4191 120.556 75.1023C121.038 74.4134 121.349 73.7964 121.48 73.2673L121.515 72.9931C121.486 72.1147 120.763 71.4091 119.878 71.4091C119.096 71.4091 118.42 71.9644 118.269 72.7292C118.165 73.2585 117.652 73.6032 117.123 73.4993C116.594 73.3954 116.249 72.8821 116.353 72.3529C116.683 70.6744 118.165 69.4561 119.878 69.4561C121.858 69.4561 123.469 71.0674 123.469 73.048V73.1102L123.405 73.616L123.394 73.6641C123.212 74.4476 122.796 75.3083 122.156 76.2224C120.942 77.9566 120.088 79.1125 119.512 79.8772C120.476 79.8737 121.736 79.8686 122.914 79.8538C122.918 79.8537 122.922 79.8537 122.926 79.8537C123.46 79.8537 123.896 80.2829 123.903 80.818C123.909 81.3572 123.478 81.8 122.938 81.8067C121.481 81.8249 120.42 81.8325 119.644 81.8325Z" fill="#D58A9C"/>
<path d="M96.9449 99.5314C96.4055 99.5314 95.9683 99.0941 95.9683 98.5549C95.9683 98.0156 96.4055 97.5783 96.9449 97.5783C97.8486 97.5783 98.5837 96.8432 98.5837 95.9395C98.5837 95.0358 97.8486 94.3007 96.9449 94.3007C96.1633 94.3007 95.4871 94.856 95.3369 95.6208C95.233 96.15 94.7201 96.4953 94.1904 96.3909C93.6612 96.287 93.3164 95.7737 93.4204 95.2445C93.75 93.566 95.2323 92.3477 96.9449 92.3477C98.9255 92.3477 100.537 93.959 100.537 95.9395C100.537 97.9201 98.9255 99.5314 96.9449 99.5314Z" fill="#D58A9C"/>
<path d="M96.9449 104.762C95.1629 104.762 93.6335 103.433 93.3876 101.67C93.3646 101.505 93.353 101.337 93.353 101.17C93.353 100.631 93.7902 100.193 94.3296 100.193C94.8689 100.193 95.3062 100.631 95.3062 101.17C95.3062 101.247 95.3115 101.324 95.322 101.4C95.4341 102.203 96.1318 102.809 96.945 102.809C97.8487 102.809 98.5839 102.074 98.5839 101.17C98.5839 100.266 97.8487 99.5312 96.945 99.5312C96.4057 99.5312 95.9685 99.0939 95.9685 98.5547C95.9685 98.0154 96.4057 97.5781 96.945 97.5781C98.9257 97.5781 100.537 99.1895 100.537 101.17C100.537 103.151 98.9256 104.762 96.9449 104.762Z" fill="#D58A9C"/>
<path d="M102.237 60.2532L103.087 62.6434C103.123 62.7458 103.196 62.8268 103.286 62.8678L105.41 63.8247C105.71 63.9598 105.71 64.4379 105.41 64.573L103.286 65.5299C103.196 65.5708 103.123 65.6519 103.087 65.7543L102.237 68.1446C102.117 68.4823 101.692 68.4823 101.572 68.1446L100.722 65.7543C100.685 65.6519 100.613 65.5709 100.522 65.5299L98.3988 64.573C98.0988 64.4379 98.0988 63.9598 98.3988 63.8247L100.522 62.8678C100.613 62.8268 100.685 62.7458 100.722 62.6434L101.572 60.2532C101.692 59.9156 102.117 59.9156 102.237 60.2532Z" fill="#F7C4DB"/>
<path d="M91.5763 81.0203C91.9689 80.0731 91.5193 78.9869 90.572 78.5943C89.6248 78.2016 88.5386 78.6512 88.146 79.5984C87.7533 80.5456 88.203 81.6318 89.1502 82.0244C90.0975 82.4171 91.1837 81.9675 91.5763 81.0203Z" fill="#EF8BBD"/>
<path d="M93.8122 67.8917C93.8816 67.4633 93.5906 67.0596 93.1621 66.9902C92.7336 66.9207 92.33 67.2117 92.2605 67.6402C92.1911 68.0687 92.4821 68.4723 92.9106 68.5418C93.3391 68.6112 93.7427 68.3202 93.8122 67.8917Z" fill="#EF8BBD"/>
<path d="M97.1916 74.8129L97.8222 76.5859C97.8491 76.6618 97.9027 76.7219 97.97 76.7523L99.5453 77.4621C99.7679 77.5624 99.7679 77.917 99.5453 78.0173L97.97 78.727C97.9026 78.7574 97.8491 78.8176 97.8222 78.8934L97.1916 80.6665C97.1026 80.917 96.7875 80.917 96.6984 80.6665L96.0678 78.8934C96.0408 78.8176 95.9873 78.7574 95.9199 78.727L94.3447 78.0173C94.1221 77.917 94.1221 77.5624 94.3447 77.4621L95.9199 76.7523C95.9874 76.7219 96.0408 76.6618 96.0678 76.5859L96.6984 74.8129C96.7874 74.5624 97.1025 74.5624 97.1916 74.8129Z" fill="#F7C4DB"/>
</g>
<defs>
<filter id="filter0_d_28_2258" x="0" y="0" width="220" height="220" filterUnits="userSpaceOnUse" color-interpolation-filters="sRGB">
<feFlood flood-opacity="0" result="BackgroundImageFix"/>
<feColorMatrix in="SourceAlpha" type="matrix" values="0 0 0 0 0 0 0 0 0 0 0 0 0 0 0 0 0 0 127 0" result="hardAlpha"/>
<feOffset dy="25"/>
<feGaussianBlur stdDeviation="35"/>
<feColorMatrix type="matrix" values="0 0 0 0 0.0392157 0 0 0 0 0.0117647 0 0 0 0 0.235294 0 0 0 0.15 0"/>
<feBlend mode="normal" in2="BackgroundImageFix" result="effect1_dropShadow_28_2258"/>
<feBlend mode="normal" in="SourceGraphic" in2="effect1_dropShadow_28_2258" result="shape"/>
</filter>
<clipPath id="clip0_28_2258">
<rect width="50" height="50" fill="white" transform="translate(85 60)"/>
</clipPath>
</defs>
</svg>
