<svg width="220" height="220" viewBox="0 0 220 220" fill="none" xmlns="http://www.w3.org/2000/svg">
<g filter="url(#filter0_d_28_2208)">
<rect x="70" y="45" width="80" height="80" rx="10" fill="white"/>
</g>
<g clip-path="url(#clip0_28_2208)">
<path d="M111.896 68.7466C111.503 68.7473 111.159 68.4816 111.06 68.1008C110.962 67.72 111.133 67.3206 111.478 67.1302C118.067 63.475 126.117 60.7509 128.944 64.0785C129.253 64.4413 129.21 64.9862 128.847 65.2957C128.485 65.6052 127.94 65.5619 127.63 65.1992C126.178 63.4931 120.452 64.1267 112.314 68.6423C112.186 68.7114 112.042 68.7473 111.896 68.7466Z" fill="#E57E25"/>
<path d="M91.2498 91.6981C90.8963 91.6983 90.5785 91.4827 90.4481 91.1541C89.2679 88.1843 91.9412 83.0757 97.6033 77.486C97.947 77.1871 98.464 77.2072 98.7835 77.5319C99.103 77.8566 99.1147 78.3739 98.8102 78.7127C93.13 84.3248 91.3222 88.6852 92.0498 90.517C92.1555 90.7824 92.1229 91.083 91.9627 91.3195C91.8025 91.556 91.5355 91.6978 91.2498 91.6981Z" fill="#E57E25"/>
<path d="M108.327 68.8718C108.179 68.8718 108.035 68.8341 107.906 68.7623C99.5284 64.0657 94.0362 63.5614 92.475 65.0761C92.1341 65.4094 91.5875 65.4032 91.2543 65.0623C90.921 64.7214 90.9272 64.1749 91.2681 63.8416C94.3327 60.8588 102.303 63.6502 108.741 67.2571C109.084 67.4487 109.254 67.8479 109.155 68.2279C109.055 68.6079 108.712 68.8727 108.319 68.8718H108.327Z" fill="#E57E25"/>
<path d="M128.783 91.6118C128.503 91.6118 128.24 91.4752 128.078 91.2457C127.917 91.0162 127.877 90.7225 127.972 90.4584C128.785 88.1972 126.123 83.5868 121.189 78.7127C120.86 78.3766 120.861 77.8384 121.191 77.5035C121.522 77.1685 122.06 77.1608 122.401 77.486C127.977 82.9955 130.666 88.0627 129.594 91.0412C129.471 91.3832 129.147 91.6114 128.783 91.6118Z" fill="#E57E25"/>
<path d="M103.104 103.103H100.517C100.041 103.103 99.6553 102.717 99.6553 102.241C99.6553 101.765 100.041 101.379 100.517 101.379H103.104C103.58 101.379 103.966 101.765 103.966 102.241C103.966 102.717 103.58 103.103 103.104 103.103Z" fill="#7F8284"/>
<path d="M119.483 103.103H116.897C116.421 103.103 116.035 102.717 116.035 102.241C116.035 101.765 116.421 101.379 116.897 101.379H119.483C119.959 101.379 120.345 101.765 120.345 102.241C120.345 102.717 119.959 103.103 119.483 103.103Z" fill="#7F8284"/>
<path d="M125.448 80.4655C125.107 84.0008 123.557 87.3102 121.06 89.8362C118.436 92.4348 116.94 95.9622 116.897 99.6552H103.103C103.097 97.8279 102.719 96.021 101.991 94.3448C101.262 92.666 100.227 91.1373 98.9397 89.8362C94.9684 85.8076 93.5074 79.9353 95.128 74.5155C96.7486 69.0956 101.193 64.9892 106.724 63.8017C107.122 63.7204 107.41 63.372 107.414 62.9655V62.5862C107.414 61.1579 108.572 60 110 60C111.428 60 112.586 61.1579 112.586 62.5862V62.9655C112.59 63.372 112.878 63.7204 113.276 63.8017C120.974 65.4626 126.207 72.6268 125.448 80.4655Z" fill="#F0C419"/>
<path d="M122.692 80.4655C122.458 83.8803 121.202 87.1456 119.086 89.8362C116.863 92.6253 115.657 96.0885 115.666 99.6552H104.335C104.333 97.8461 104.024 96.0504 103.421 94.3448C102.846 92.7109 101.999 91.1864 100.914 89.8362C98.7984 87.1456 97.5421 83.8803 97.3088 80.4655C96.6855 72.3707 101.176 65.3966 107.309 63.8017C107.663 63.6804 107.894 63.3393 107.875 62.9655V62.5862C107.759 61.2886 108.705 60.1374 110 60C110.59 60.0132 111.141 60.292 111.502 60.7586C111.913 61.2783 112.133 61.9236 112.125 62.5862V62.9655C112.106 63.3393 112.337 63.6804 112.692 63.8017C118.824 65.3966 123.315 72.3707 122.692 80.4655Z" fill="#F3D55B"/>
<path d="M116.897 99.6553V104.828C116.894 105.779 116.124 106.549 115.172 106.552H104.828C103.877 106.549 103.106 105.779 103.104 104.828V99.6553H116.897Z" fill="#95A5A5"/>
<path d="M114.31 106.983C114.31 108.647 112.379 110 110 110C107.62 110 105.689 108.647 105.689 106.983C105.689 106.838 105.706 106.693 105.741 106.552H114.258C114.293 106.693 114.31 106.838 114.31 106.983Z" fill="#393F4A"/>
<path d="M95.1264 93.6207C93.8628 93.6904 92.6117 93.3387 91.5695 92.6207C91.3101 92.4373 91.1726 92.1261 91.2116 91.8107C91.2507 91.4954 91.46 91.2272 91.7564 91.1126C92.0527 90.9981 92.3881 91.0559 92.629 91.2629C93.8652 92.2259 96.642 92.0948 100.247 90.9052C103.506 89.7857 106.628 88.3007 109.552 86.4784C110.687 85.7888 111.794 85.0655 112.854 84.3345C117.095 81.4655 120.93 78.0375 124.255 74.1431C127.067 70.7164 128.468 67.6578 128.003 65.9603C127.881 65.5025 128.151 65.0319 128.609 64.9068C129.066 64.7817 129.538 65.0489 129.666 65.5052C130.474 68.456 127.895 72.4259 125.589 75.2362C122.162 79.2548 118.208 82.7925 113.835 85.7534C112.751 86.5034 111.613 87.2431 110.449 87.9526C107.411 89.8436 104.168 91.3841 100.782 92.5448C98.9627 93.1887 97.0555 93.5514 95.1264 93.6207Z" fill="#F29C1F"/>
<path d="M124.87 93.6276C122.94 93.5619 121.031 93.1961 119.213 92.5432C115.83 91.3825 112.589 89.8425 109.552 87.9526C108.387 87.2423 107.248 86.5026 106.164 85.7518C101.791 82.7909 97.8371 79.2532 94.4101 75.2345C92.0765 72.3897 89.479 68.3802 90.3584 65.4251C90.4967 64.972 90.9745 64.7154 91.4286 64.8504C91.8826 64.9854 92.1426 65.4614 92.0109 65.9164C91.5101 67.6052 92.9058 70.6802 95.7463 74.1414C99.0704 78.036 102.905 81.4643 107.145 84.3337C108.202 85.0656 109.313 85.788 110.449 86.4794C113.372 88.3006 116.491 89.7847 119.748 90.9035C123.523 92.1492 126.437 92.2251 127.546 91.1069C127.882 90.7691 128.428 90.7674 128.766 91.1031C129.103 91.4387 129.105 91.9847 128.77 92.3225C127.698 93.2644 126.293 93.7349 124.87 93.6276Z" fill="#F29C1F"/>
<path d="M91.4655 94.4827C93.1319 94.4827 94.4827 93.1319 94.4827 91.4655C94.4827 89.7991 93.1319 88.4482 91.4655 88.4482C89.7991 88.4482 88.4482 89.7991 88.4482 91.4655C88.4482 93.1319 89.7991 94.4827 91.4655 94.4827Z" fill="#3B97D3"/>
<path d="M91.4655 67.7581C93.1319 67.7581 94.4827 66.4072 94.4827 64.7409C94.4827 63.0745 93.1319 61.7236 91.4655 61.7236C89.7991 61.7236 88.4482 63.0745 88.4482 64.7409C88.4482 66.4072 89.7991 67.7581 91.4655 67.7581Z" fill="#3B97D3"/>
<path d="M128.534 94.4827C130.201 94.4827 131.552 93.1319 131.552 91.4655C131.552 89.7991 130.201 88.4482 128.534 88.4482C126.868 88.4482 125.517 89.7991 125.517 91.4655C125.517 93.1319 126.868 94.4827 128.534 94.4827Z" fill="#3B97D3"/>
<path d="M128.534 67.7581C130.201 67.7581 131.552 66.4072 131.552 64.7409C131.552 63.0745 130.201 61.7236 128.534 61.7236C126.868 61.7236 125.517 63.0745 125.517 64.7409C125.517 66.4072 126.868 67.7581 128.534 67.7581Z" fill="#3B97D3"/>
<path d="M99.2112 74.4337C98.9123 74.4336 98.6347 74.2788 98.4777 74.0245C98.3206 73.7701 98.3066 73.4526 98.4405 73.1854C100.059 69.9434 102.964 67.5299 106.448 66.5328C106.748 66.4374 107.076 66.5128 107.304 66.7295C107.532 66.9461 107.623 67.2697 107.543 67.5738C107.463 67.8778 107.224 68.1142 106.919 68.1906C103.901 69.0556 101.384 71.1477 99.9827 73.9569C99.8367 74.2492 99.5379 74.4338 99.2112 74.4337Z" fill="white"/>
</g>
<defs>
<filter id="filter0_d_28_2208" x="0" y="0" width="220" height="220" filterUnits="userSpaceOnUse" color-interpolation-filters="sRGB">
<feFlood flood-opacity="0" result="BackgroundImageFix"/>
<feColorMatrix in="SourceAlpha" type="matrix" values="0 0 0 0 0 0 0 0 0 0 0 0 0 0 0 0 0 0 127 0" result="hardAlpha"/>
<feOffset dy="25"/>
<feGaussianBlur stdDeviation="35"/>
<feColorMatrix type="matrix" values="0 0 0 0 0.0392157 0 0 0 0 0.0117647 0 0 0 0 0.235294 0 0 0 0.15 0"/>
<feBlend mode="normal" in2="BackgroundImageFix" result="effect1_dropShadow_28_2208"/>
<feBlend mode="normal" in="SourceGraphic" in2="effect1_dropShadow_28_2208" result="shape"/>
</filter>
<clipPath id="clip0_28_2208">
<rect width="50" height="50" fill="white" transform="translate(85 60)"/>
</clipPath>
</defs>
</svg>
