<svg width="518" height="647" viewBox="0 0 518 647" fill="none" xmlns="http://www.w3.org/2000/svg">
<path d="M0 62.1432C0 34.5746 0 20.7903 5.78448 12.8805C10.829 5.98262 18.5758 1.56341 27.0809 0.731874C36.8336 -0.22164 48.699 6.79396 72.4299 20.8252L494.43 270.339C503.022 275.419 507.318 277.959 510.439 281.477C513.202 284.59 515.286 288.244 516.56 292.207C518 296.685 518 301.675 518 311.657V599C518 615.802 518 624.202 514.73 630.62C511.854 636.265 507.265 640.854 501.62 643.73C495.202 647 486.802 647 470 647H48C31.1984 647 22.7976 647 16.3803 643.73C10.7354 640.854 6.14601 636.265 3.2698 630.62C0 624.202 0 615.802 0 599V62.1432Z" fill="url(#paint0_linear_28_2188)"/>
<defs>
<linearGradient id="paint0_linear_28_2188" x1="259" y1="72.0216" x2="259" y2="647" gradientUnits="userSpaceOnUse">
<stop stop-color="#FF6652" stop-opacity="0"/>
<stop offset="1" stop-color="#FF6652"/>
</linearGradient>
</defs>
</svg>
