<svg width="220" height="220" viewBox="0 0 220 220" fill="none" xmlns="http://www.w3.org/2000/svg">
<g filter="url(#filter0_d_28_2231)">
<rect x="70" y="45" width="80" height="80" rx="10" fill="white"/>
</g>
<g clip-path="url(#clip0_28_2231)">
<path d="M92.4139 86.1465H90.0173C89.605 86.1472 89.2509 86.4399 89.1725 86.8448L85.3967 106.224C85.2987 106.73 85.4324 107.254 85.7612 107.651C86.09 108.048 86.5793 108.277 87.0949 108.276H105.69C105.69 109.224 107.621 110 110 110C112.379 110 114.31 109.224 114.31 108.276H132.905C133.421 108.277 133.91 108.048 134.239 107.651C134.568 107.254 134.702 106.73 134.604 106.224L130.828 86.8448C130.749 86.4399 130.395 86.1472 129.983 86.1465H92.4139Z" fill="#E64C3C"/>
<path d="M110 88.6548V104.827C108.739 104.279 107.424 103.863 106.078 103.586C100.958 102.473 95.6351 102.744 90.6552 104.37C90.369 104.458 90.058 104.392 89.832 104.195C89.606 103.999 89.4969 103.7 89.5432 103.405L92.4139 86.1462L92.6552 84.6893C92.717 84.3196 93.0089 84.0311 93.3794 83.9738C93.9656 83.8876 94.569 83.8014 95.1725 83.7324C96.2259 85.7802 98.3352 87.0677 100.638 87.0686C100.793 87.0686 100.94 87.06 101.086 87.0514C101.66 87.0066 102.226 86.8848 102.767 86.6893C102.769 86.7076 102.775 86.7253 102.785 86.741C103.43 88.5477 105.142 89.7526 107.06 89.7497C108.141 89.7532 109.185 89.3642 110 88.6548Z" fill="#F5EFCA"/>
<path d="M129.345 104.37C124.365 102.744 119.042 102.473 113.922 103.586C112.576 103.863 111.261 104.279 110 104.827V88.6547C110.181 88.5065 110.349 88.342 110.5 88.1633C111.361 88.5059 112.28 88.6815 113.207 88.6806H113.259C113.303 89.297 113.538 89.8843 113.931 90.3616C114.768 91.1888 115.814 91.7728 116.957 92.0513C117.786 92.3161 118.526 92.8054 119.095 93.4651C119.602 94.0928 120.46 94.3136 121.207 94.0082C121.864 93.7242 122.291 93.0776 122.293 92.3616C122.294 92.1743 122.265 91.988 122.207 91.8099C122.121 91.5426 122.026 91.2754 121.914 91.0168C121.698 90.4826 121.414 89.9785 121.069 89.5168C122.779 88.5921 123.979 86.9447 124.336 85.034C124.362 84.9995 124.397 84.965 124.422 84.9306C124.717 84.5835 124.959 84.1941 125.138 83.7754C125.638 83.8357 126.129 83.8961 126.621 83.9737C126.991 84.031 127.283 84.3195 127.345 84.6892L127.586 86.1461L130.457 103.405C130.503 103.7 130.394 103.999 130.168 104.195C129.942 104.391 129.631 104.458 129.345 104.37Z" fill="#F9EAB0"/>
<path d="M114.311 108.276C114.311 109.224 112.38 110 110 110C107.621 110 105.69 109.224 105.69 108.276L106.078 103.586C107.425 103.864 108.739 104.28 110 104.827C111.261 104.28 112.576 103.864 113.923 103.586L114.311 108.276Z" fill="#C03A2B"/>
<path d="M125.517 81.9743C125.517 82.5947 125.387 83.2081 125.138 83.7761C124.959 84.1948 124.718 84.5842 124.423 84.9312C124.397 84.9657 124.362 85.0002 124.336 85.0347C123.98 86.9454 122.779 88.5928 121.069 89.5174C121.414 89.9792 121.698 90.4833 121.914 91.0174C122.026 91.2761 122.121 91.5433 122.207 91.8106C122.265 91.9887 122.294 92.1749 122.293 92.3623C122.291 93.0783 121.864 93.7249 121.207 94.0088C120.46 94.3143 119.602 94.0935 119.095 93.4657C118.527 92.8061 117.787 92.3168 116.957 92.0519C115.814 91.7735 114.768 91.1894 113.931 90.3623C113.539 89.885 113.304 89.2977 113.259 88.6812H113.207C112.28 88.6821 111.362 88.5066 110.5 88.164C110.349 88.3427 110.181 88.5072 110 88.6554C109.185 89.3647 108.141 89.7538 107.061 89.7502C105.142 89.7532 103.43 88.5482 102.785 86.7416C102.775 86.7259 102.769 86.7082 102.767 86.6899C102.226 86.8854 101.66 87.0071 101.086 87.0519C100.94 87.0605 100.793 87.0692 100.638 87.0692C98.3082 87.0675 96.1786 85.7514 95.1351 83.6681C94.0917 81.5849 94.313 79.0912 95.7071 77.2243C95.6034 76.9428 95.5509 76.645 95.5519 76.345C95.5467 75.071 96.4416 73.9705 97.6899 73.7157C97.6945 73.711 97.7006 73.708 97.7071 73.7071C97.6985 73.6037 97.6899 73.5002 97.6899 73.3881C97.6887 72.91 97.7886 72.437 97.983 72.0002C98.533 70.7281 99.7867 69.9047 101.173 69.9054C101.695 69.9029 102.212 70.0209 102.681 70.2502C103.599 68.705 105.263 67.7582 107.061 67.7588C108.294 67.7543 109.485 68.2057 110.405 69.0261C110.934 68.1736 111.895 67.6889 112.895 67.7707C113.894 67.8524 114.764 68.487 115.147 69.414C115.393 69.3865 115.64 69.3721 115.888 69.3709C119.228 69.3764 122.008 71.9388 122.285 75.2674H122.311C123.021 75.2674 123.702 75.5502 124.203 76.0532C124.705 76.5563 124.985 77.2382 124.983 77.9485C124.981 78.4129 124.863 78.8695 124.638 79.2761C125.21 80.0594 125.518 81.0044 125.517 81.9743Z" fill="#FB7B76"/>
<path d="M110 62.5862C109.524 62.5862 109.138 62.2002 109.138 61.7241V60.8621C109.138 60.386 109.524 60 110 60C110.476 60 110.862 60.386 110.862 60.8621V61.7241C110.862 62.2002 110.476 62.5862 110 62.5862Z" fill="#F0C419"/>
<path d="M123.894 68.5197C123.546 68.5196 123.231 68.3096 123.098 67.9875C122.964 67.6654 123.038 67.2947 123.285 67.0481L124.147 66.1861C124.363 65.962 124.684 65.8721 124.985 65.951C125.286 66.0299 125.522 66.2652 125.601 66.5666C125.68 66.8681 125.59 67.1886 125.366 67.405L124.504 68.2671C124.342 68.4288 124.123 68.5196 123.894 68.5197Z" fill="#F0C419"/>
<path d="M96.1063 68.5197C95.8777 68.5196 95.6585 68.4288 95.4969 68.2671L94.6348 67.405C94.4107 67.1886 94.3208 66.8681 94.3997 66.5666C94.4786 66.2652 94.714 66.0299 95.0154 65.951C95.3168 65.8721 95.6373 65.962 95.8537 66.1861L96.7158 67.0481C96.9623 67.2947 97.036 67.6654 96.9026 67.9875C96.7692 68.3096 96.455 68.5196 96.1063 68.5197Z" fill="#F0C419"/>
<path d="M102.743 64.8916C102.394 64.8917 102.08 64.6818 101.946 64.3597L100.956 61.9701C100.831 61.6841 100.869 61.3525 101.057 61.1032C101.246 60.854 101.554 60.7261 101.864 60.7689C102.173 60.8118 102.435 61.0187 102.549 61.3097L103.539 63.6994C103.627 63.9107 103.627 64.1483 103.54 64.3599C103.452 64.5714 103.284 64.7394 103.073 64.827C102.968 64.8697 102.856 64.8916 102.743 64.8916Z" fill="#F0C419"/>
<path d="M117.258 64.8916C117.145 64.8914 117.032 64.8691 116.928 64.8261C116.716 64.7386 116.549 64.5707 116.461 64.3593C116.374 64.148 116.374 63.9106 116.461 63.6994L117.452 61.3097C117.565 61.0187 117.827 60.8118 118.137 60.7689C118.446 60.7261 118.755 60.854 118.943 61.1032C119.131 61.3525 119.17 61.6841 119.044 61.9701L118.054 64.3597C117.921 64.6818 117.606 64.8917 117.258 64.8916Z" fill="#F0C419"/>
<path d="M127.522 75.1571C127.109 75.1583 126.754 74.8676 126.673 74.4632C126.593 74.0589 126.81 73.6542 127.191 73.4976L129.581 72.5079C129.866 72.3901 130.191 72.4331 130.436 72.6207C130.68 72.8082 130.806 73.1119 130.765 73.4172C130.725 73.7226 130.525 73.9832 130.24 74.101L127.852 75.0907C127.747 75.1343 127.635 75.1569 127.522 75.1571Z" fill="#F0C419"/>
<path d="M92.4784 75.1571C92.365 75.1569 92.2528 75.1343 92.1482 75.0907L89.7594 74.101C89.4748 73.9832 89.2747 73.7226 89.2345 73.4172C89.1942 73.1118 89.3199 72.8082 89.5642 72.6207C89.8085 72.4331 90.1343 72.3901 90.4189 72.5079L92.8086 73.4976C93.1899 73.6542 93.407 74.0589 93.3265 74.4632C93.2461 74.8676 92.8906 75.1583 92.4784 75.1571Z" fill="#F0C419"/>
<path d="M124.422 84.9312C124.397 84.9657 124.362 85.0002 124.336 85.0347C124.184 85.8649 123.868 86.6563 123.405 87.3623C122.954 87.4904 122.486 87.5542 122.017 87.5519C121.163 87.5495 120.321 87.3457 119.56 86.9571C119.2 86.7643 118.862 86.5331 118.552 86.2674C118.208 86.4006 117.843 86.4707 117.474 86.4743C116.335 86.4802 115.292 85.8383 114.784 84.8191C114.646 84.5435 114.665 84.2148 114.834 83.957C115.004 83.6991 115.298 83.5513 115.606 83.5691C115.914 83.5869 116.189 83.7676 116.328 84.0433C116.498 84.3701 116.799 84.6088 117.157 84.6994C117.514 84.7899 117.893 84.7237 118.198 84.5174C118.543 84.2821 118.749 83.8918 118.75 83.4743C118.751 83.2745 118.707 83.0769 118.621 82.8967C118.447 82.4799 118.625 81.9997 119.027 81.796C119.43 81.5923 119.922 81.734 120.155 82.1209C120.365 82.5412 120.474 83.0046 120.474 83.4743C120.467 84.0767 120.278 84.6628 119.931 85.1553C120.069 85.2502 120.207 85.345 120.345 85.4226C120.862 85.6889 121.435 85.8278 122.017 85.8278C122.901 85.8327 123.757 85.5138 124.422 84.9312Z" fill="#FF5364"/>
<path d="M113.879 81.5462C114.996 80.7768 115.764 79.5977 116.016 78.2652C116.08 77.9601 115.975 77.6442 115.74 77.4389C115.506 77.2336 115.178 77.171 114.885 77.2751C114.591 77.3792 114.376 77.6338 114.323 77.941C114.154 78.8302 113.641 79.6167 112.895 80.1298C111.461 81.0958 109.538 80.8766 108.358 79.6126C108.036 79.2603 107.49 79.235 107.138 79.5561C106.786 79.8773 106.761 80.4232 107.082 80.7755C107.813 81.5829 108.779 82.1402 109.845 82.3686C109.362 83.0474 108.579 83.4498 107.746 83.4479C107.27 83.4479 106.884 83.8339 106.884 84.31C106.884 84.7861 107.27 85.1721 107.746 85.1721C109.531 85.1792 111.132 84.077 111.763 82.4074C112.523 82.281 113.246 81.9868 113.879 81.5462Z" fill="#FF5364"/>
<path d="M121.914 91.0176C121.28 91.3409 120.599 91.5621 119.897 91.6728C119.851 91.6799 119.805 91.6828 119.759 91.6814C119.305 91.6856 118.925 91.3369 118.891 90.8841C118.857 90.4314 119.18 90.0298 119.629 89.9659C120.129 89.8902 120.615 89.7391 121.069 89.5176C121.414 89.9793 121.698 90.4834 121.914 91.0176Z" fill="#FF5364"/>
<path d="M102.707 85.0001C102.663 85.242 102.64 85.4871 102.638 85.7329C102.636 86.0563 102.68 86.3784 102.767 86.6898C102.226 86.8853 101.66 87.007 101.086 87.0518C100.976 86.6295 100.918 86.1952 100.914 85.7587C99.3951 85.5931 98.2441 84.3121 98.2412 82.7846C98.2383 82.3045 98.6232 81.9119 99.1033 81.9053C99.3309 81.9039 99.5496 81.9931 99.7113 82.1532C99.8731 82.3133 99.9645 82.5312 99.9654 82.7587V82.7846C99.9783 83.4658 100.518 84.0202 101.198 84.0518C101.317 83.663 101.482 83.2897 101.69 82.9398C101.805 82.7421 101.996 82.5995 102.218 82.5443C102.441 82.4891 102.676 82.5261 102.871 82.6467C103.276 82.8972 103.406 83.4261 103.164 83.8363C102.945 84.1947 102.79 84.5885 102.707 85.0001Z" fill="#FF5364"/>
<path d="M115.526 90.0428C115.008 90.2085 114.473 90.3155 113.931 90.3618C113.538 89.8845 113.303 89.2972 113.258 88.6807C113.342 88.6823 113.425 88.6795 113.508 88.6721C114.02 88.6396 114.527 88.5471 115.017 88.3963C115.314 88.2943 115.644 88.3622 115.876 88.5735C116.109 88.7849 116.208 89.1061 116.135 89.4118C116.062 89.7176 115.829 89.9593 115.526 90.0428Z" fill="#FF5364"/>
<path d="M108.103 74.655C108.103 74.1789 107.718 73.793 107.241 73.793C105.052 73.7953 103.278 75.5694 103.276 77.7585C103.276 78.2346 103.662 78.6206 104.138 78.6206C104.614 78.6206 105 78.2346 105 77.7585C105 77.164 105.236 76.5939 105.657 76.1736C106.077 75.7533 106.647 75.5171 107.241 75.5171C107.718 75.5171 108.103 75.1311 108.103 74.655Z" fill="#FF5364"/>
<path d="M96.8516 79.5026C96.6951 79.5028 96.5415 79.4598 96.4077 79.3785C95.6968 78.9495 95.159 78.2847 94.8878 77.5C94.7567 77.1269 94.6899 76.7343 94.6904 76.3388C94.6904 74.3851 96.2712 72.7997 98.2249 72.794C99.3444 72.7897 100.398 73.3213 101.06 74.2241C101.244 74.4715 101.282 74.798 101.159 75.0808C101.037 75.3635 100.773 75.5595 100.467 75.595C100.161 75.6304 99.8595 75.4999 99.6758 75.2526C99.3379 74.7916 98.8 74.5199 98.2284 74.5216C97.4124 74.5261 96.699 75.0728 96.4824 75.8595C96.2658 76.6462 96.5987 77.4809 97.2973 77.9026C97.6295 78.1023 97.7875 78.4992 97.6836 78.8726C97.5796 79.246 97.2392 79.5041 96.8516 79.5035V79.5026Z" fill="#FF5364"/>
<path d="M115.351 71.3029C114.875 71.3029 114.489 70.9169 114.489 70.4408C114.489 69.4393 113.677 68.6275 112.675 68.6275C111.674 68.6275 110.862 69.4393 110.862 70.4408C110.862 70.9169 110.476 71.3029 110 71.3029C109.524 71.3029 109.138 70.9169 109.138 70.4408C109.138 68.4871 110.721 66.9033 112.675 66.9033C114.629 66.9033 116.213 68.4871 116.213 70.4408C116.213 70.6695 116.122 70.8887 115.96 71.0504C115.799 71.2121 115.579 71.3029 115.351 71.3029Z" fill="#FF5364"/>
<path d="M123.437 81.2429C123.037 81.239 122.692 80.96 122.604 80.5695C122.517 80.1789 122.71 79.7794 123.07 79.6049C123.413 79.4435 123.699 79.1797 123.886 78.8498C124.325 78.1024 124.172 77.149 123.522 76.5758C122.872 76.0026 121.907 75.9704 121.221 76.4989C120.84 76.7846 120.299 76.7074 120.014 76.3265C119.728 75.9456 119.805 75.4053 120.186 75.1196C120.789 74.6629 121.524 74.4137 122.281 74.4093C123.947 74.398 125.395 75.548 125.762 77.1726C126.129 78.7973 125.315 80.4582 123.806 81.1636C123.691 81.2173 123.564 81.2444 123.437 81.2429Z" fill="#FF5364"/>
</g>
<defs>
<filter id="filter0_d_28_2231" x="0" y="0" width="220" height="220" filterUnits="userSpaceOnUse" color-interpolation-filters="sRGB">
<feFlood flood-opacity="0" result="BackgroundImageFix"/>
<feColorMatrix in="SourceAlpha" type="matrix" values="0 0 0 0 0 0 0 0 0 0 0 0 0 0 0 0 0 0 127 0" result="hardAlpha"/>
<feOffset dy="25"/>
<feGaussianBlur stdDeviation="35"/>
<feColorMatrix type="matrix" values="0 0 0 0 0.0392157 0 0 0 0 0.0117647 0 0 0 0 0.235294 0 0 0 0.15 0"/>
<feBlend mode="normal" in2="BackgroundImageFix" result="effect1_dropShadow_28_2231"/>
<feBlend mode="normal" in="SourceGraphic" in2="effect1_dropShadow_28_2231" result="shape"/>
</filter>
<clipPath id="clip0_28_2231">
<rect width="50" height="50" fill="white" transform="translate(85 60)"/>
</clipPath>
</defs>
</svg>
