<svg width="318" height="218" viewBox="0 0 318 218" fill="none" xmlns="http://www.w3.org/2000/svg">
<g clip-path="url(#clip0_28_5641)">
<path d="M10.6851 136.543C18.3584 124.352 28.8698 114.64 39.7827 105.898C48.9265 98.5664 59.0146 91.0178 62.7861 79.3206C64.8483 72.9433 64.7886 65.8935 67.1057 59.6247C70.1935 51.268 79.7606 41.1435 87.9114 37.4939C100.382 31.9083 115.451 40.3789 128.399 36.0243C133.75 34.2239 135.161 30.7912 138.846 27.185C142.791 23.3239 147.534 19.9617 152.092 16.8652C161.03 10.7916 170.928 5.91101 181.586 3.79066C200.356 0.0542929 220.381 5.39041 235.874 17.0442C245.186 24.0506 252.886 33.2423 258.644 43.5729C264.146 53.4534 266.577 64.4077 271.673 74.3858C281.224 93.0839 301.047 103.447 310.425 122.254C317.322 136.098 317.604 153.018 313.974 168.283C310.343 183.543 303.12 197.464 295.534 210.874C295.496 210.934 295.463 210.988 295.431 211.042H282.906C235.109 210.88 29.1736 210.24 24.2788 211.205H14.7605C7.81985 205.164 1.48697 188.478 0.222565 178.402C-1.62247 163.739 3.0173 148.734 10.6851 136.543Z" fill="#EDDCFF"/>
<path d="M110.606 121.271C112.342 123.993 116.879 127.166 120.097 127.122C131.059 126.922 134.667 119.46 135.85 116.743C135.628 116.689 135.253 116.645 134.988 116.613C132.969 116.32 130.907 114.324 130.304 112.074C129.528 109.146 128.573 103.419 128.687 99.7803L114.822 107.448C114.844 108.5 114.914 109.65 115.012 110.81C115.083 111.515 115.153 112.21 115.235 112.882C115.311 113.527 115.397 114.14 115.479 114.704C115.734 116.602 114.887 118.484 113.286 119.53L110.606 121.271Z" fill="#FE8E68"/>
<path d="M109.412 91.4518C110.161 93.4149 109.846 95.6437 109.086 97.6014C108.549 98.9842 107.355 97.7641 105.868 97.7912C103.567 97.8291 101.771 95.4376 100.382 89.0983C99.4975 84.4455 99.275 82.0865 99.4541 81.6364C100.089 80.0258 102.184 79.1636 103.909 79.0117" fill="#3D302A"/>
<path d="M105.912 77.5092C102.287 81.8746 100.969 94.1574 104.029 102.715C106.205 108.799 108.734 112.725 111.686 112.601C116.169 112.411 124.857 108.729 127.684 105.654C132.779 100.117 131.298 89.2606 130.245 82.4277C129.29 76.2185 126.381 68.1547 118.573 69.6894C113.439 70.6872 109.163 73.5884 105.912 77.5092Z" fill="#FE8E68"/>
<path d="M126.501 81.4351C125.698 82.395 124.281 82.6064 123.115 82.7962C121.546 83.0511 120.77 83.5826 119.956 85.0088C119.441 85.9198 118.925 86.9176 118.003 87.4111C117.569 87.6443 116.907 87.6768 116.695 87.2322C117.107 86.9556 117.248 86.3916 117.145 85.9036C117.042 85.4209 116.744 85.0034 116.429 84.6183C116.163 84.9762 116.136 85.4535 115.989 85.8819C115.794 86.4458 115.376 86.9231 114.844 87.1888C114.758 87.2322 114.665 87.2701 114.573 87.2539C114.448 87.2376 114.351 87.1291 114.269 87.0315C113.699 86.3482 113.14 85.0467 112.348 84.6292C112.191 85.3721 111.903 85.9632 111.447 86.576C111.046 87.1129 110.568 87.666 109.912 87.7907C109.7 87.8341 109.434 87.8016 109.336 87.6118C109.212 87.3786 109.407 87.1454 109.374 86.9068C109.347 86.6845 109.244 86.5868 109.13 86.397C108.837 85.9144 108.577 85.448 108.191 85.025C107.415 85.909 106.569 86.7224 105.663 87.4708C105.462 87.6335 105.169 87.7961 104.968 87.6335C104.859 87.5467 104.832 87.4003 104.811 87.2593C104.697 86.5706 104.588 85.8819 104.474 85.1932C104.409 84.8081 104.187 84.3038 103.807 84.4014C103.622 84.4502 103.514 84.6292 103.411 84.7919C103.286 84.9979 101.055 87.346 101.012 87.1671C100.665 85.8331 99.9538 84.6183 99.6065 83.2843C97.3761 74.6945 107.339 67.7911 114.953 67.7532C116.646 67.7423 118.231 68.1002 119.875 68.4636C121.628 68.854 123.44 69.1414 125.03 70.0145C127.261 71.2347 128.948 73.4526 128.514 76.099" fill="#3D302A"/>
<path d="M122.832 79.1633C121.725 80.416 121.432 82.1784 121.329 83.8432C121.177 86.354 121.383 88.9624 122.545 91.1912C122.876 91.8257 123.12 94.9656 123.63 94.792C123.793 94.7378 123.766 92.3029 124.194 90.9906C124.856 88.957 127.906 88.1815 129.279 89.4668C131.471 91.5112 130.185 93.9949 129.458 95.5404C129.024 96.4731 128.335 97.5197 128.215 98.5067C128.069 99.7702 128.025 104.374 128.85 105.448C129.539 106.348 130.272 101.999 130.896 101.142C135.514 94.7595 139.942 78.5071 132.057 74.9822C130.858 74.4454 127.157 74.1688 126.034 74.8521" fill="#3D302A"/>
<path d="M93.6367 208.358C93.1809 208.434 92.7196 208.499 92.2421 208.515C89.7024 208.597 87.2496 208.038 84.7696 207.615C82.5881 207.241 81.9966 207.035 82.04 204.405C82.4199 183.575 85.486 162.8 90.9994 142.708C91.8405 139.639 92.7576 136.548 94.3693 133.804C97.1206 129.124 103.437 125.084 108.283 122.817C108.967 122.497 111.8 124.298 112.489 123.989C113.091 123.718 113.623 123.295 114.231 123.029C116.011 122.253 117.205 123.875 118.691 124.553C119.462 124.9 120.319 125.122 121.166 125.084C121.855 125.057 122.479 124.639 123.109 124.965C125.941 126.429 132.974 115.562 132.974 115.562L136.019 118.745L144.935 128.078L167.216 158.755C167.216 158.755 171.259 183.895 174.038 200.375C174.521 203.217 176.431 209.361 176.811 211.514C176.729 211.048 157.79 210.923 156.77 210.923C143.605 210.923 131.341 210.923 118.17 210.923C116.005 210.923 110.182 211.839 108.663 210.251C106.791 208.298 104.626 199.34 104.512 196.829C104.137 188.385 104.718 180.007 104.832 171.515C104.783 174.969 103.79 178.093 103.367 181.477C102.819 185.831 102.037 190.18 101.332 194.513C100.767 197.995 100.225 201.487 99.7905 204.99C99.5952 206.568 99.8448 207.507 98.5098 208.125C97.3974 208.624 94.95 208.136 93.6367 208.358Z" fill="#BC744A"/>
<path d="M100.789 201.145C101.82 200.722 108.186 199.144 111.056 198.548C112.56 198.239 119.375 196.471 120.955 196.471C122.534 196.471 124.683 198.727 124.683 198.727L124.113 206.487C122.593 206.335 120.558 207.121 119.468 207.273C118.377 207.425 114.67 207.447 112.391 206.302C112.261 206.237 112.142 206.167 112.022 206.096C111.105 206.91 109.955 207.701 108.68 207.767C108.68 207.767 107.681 207.664 107.779 207.262C107.822 207.067 108.484 206.058 109.146 205.071C108.169 206.064 106.574 207.674 104.734 207.767C104.734 207.767 103.736 207.664 103.834 207.262C103.888 207.024 104.843 205.597 105.613 204.464C105.603 204.475 105.586 204.48 105.581 204.491C104.772 205.202 102.851 207.653 100.578 207.767C100.578 207.767 99.5791 207.664 99.6767 207.262C99.7093 207.116 100.089 206.514 100.55 205.814C99.9698 206.259 99.2589 206.731 98.3961 207.159C95.9378 208.374 94.5377 207.452 94.5377 207.159C94.5323 206.861 99.7582 201.568 100.789 201.145Z" fill="#FE8E68"/>
<path d="M122.925 192.132C122.925 192.132 118.963 194.377 119.316 199.149C119.669 203.921 121.101 209.453 127.081 208.872C133.062 208.292 122.925 192.132 122.925 192.132Z" fill="#874C2E"/>
<path d="M128.367 208.401C142.705 213.374 161.888 208.623 174.049 200.364C181.668 195.202 186.53 188.645 185.711 182.241C183.589 165.603 170.505 127.47 159.185 121.906C151.49 118.121 142.156 116.553 136.952 115.924C134.51 115.626 132.985 115.556 132.985 115.556L134.874 120.881L144.327 147.518C144.68 163.326 156 172.713 153.748 176.395C151.496 180.066 133.713 184.03 124.373 190.316C121.79 192.062 118.513 204.692 128.367 208.401Z" fill="#BC744A"/>
<path d="M185.71 182.653L185.743 183.765C185.743 183.949 185.77 184.134 185.743 184.318L185.678 184.866C185.624 185.229 185.624 185.603 185.531 185.956L185.271 187.024C184.837 188.423 184.234 189.774 183.41 190.988C181.836 193.461 179.752 195.587 177.451 197.409C172.844 201.064 167.537 203.797 162.001 205.782C156.477 207.816 150.687 209.155 144.81 209.643C141.874 209.892 138.917 209.925 135.981 209.676C133.04 209.448 130.12 208.911 127.287 208.027C130.06 209.084 132.991 209.708 135.937 210.071C138.895 210.408 141.88 210.446 144.853 210.267C147.827 210.099 150.785 209.654 153.693 209.014C156.602 208.379 159.473 207.555 162.278 206.547C165.073 205.511 167.808 204.301 170.424 202.87C173.034 201.433 175.563 199.817 177.842 197.886C180.126 195.972 182.205 193.759 183.741 191.189C184.527 189.915 185.086 188.51 185.472 187.073C185.857 185.63 185.884 184.117 185.71 182.653Z" fill="#874C2E"/>
<path d="M144.327 147.519C144.317 150.517 144.734 153.522 145.516 156.428C146.303 159.335 147.453 162.139 148.788 164.839C149.456 166.19 150.166 167.513 150.899 168.82C151.621 170.132 152.364 171.433 152.972 172.767C153.27 173.435 153.531 174.123 153.634 174.801C153.661 175.132 153.688 175.474 153.596 175.761C153.574 175.918 153.482 176.038 153.428 176.178C153.325 176.303 153.254 176.439 153.124 176.558C152.153 177.529 150.763 178.185 149.445 178.819C144.029 181.287 138.277 183.114 132.796 185.576C130.055 186.807 127.342 188.136 124.819 189.795L124.352 190.11C124.195 190.218 124.048 190.359 123.896 190.484C123.614 190.761 123.37 191.064 123.174 191.395C122.773 192.051 122.502 192.767 122.29 193.494C121.888 194.953 121.72 196.455 121.709 197.957C121.807 196.466 122.057 194.974 122.496 193.559C122.963 192.154 123.685 190.788 125.036 190.132C127.57 188.559 130.289 187.306 133.045 186.151C135.808 185.012 138.602 183.933 141.408 182.887C144.213 181.824 147.035 180.81 149.792 179.552C151.149 178.879 152.543 178.245 153.699 177.079C153.846 176.938 153.965 176.742 154.09 176.574C154.182 176.368 154.307 176.173 154.339 175.956C154.47 175.522 154.426 175.094 154.388 174.687C154.258 173.885 153.965 173.158 153.65 172.464C153.005 171.076 152.25 169.779 151.518 168.473C150.785 167.166 150.047 165.87 149.347 164.552C146.547 159.297 144.61 153.522 144.327 147.519Z" fill="#874C2E"/>
<path d="M107.171 123.333C108.539 124.688 114.628 129.021 120.434 129.021C121.4 129.021 122.42 128.934 123.5 128.734C128.373 127.844 132.476 124.596 134.874 120.876C135.319 120.176 135.71 119.455 136.03 118.734C136.464 117.801 136.774 116.847 136.953 115.925C134.511 115.627 132.177 115.014 131.797 114.58C131.385 117.422 127.874 122.552 122.556 123.517C121.888 123.642 121.259 123.696 120.656 123.707H120.646C118.149 123.75 116.234 122.953 114.926 122.15C114.915 122.15 112.381 120.155 112.37 120.144L107.171 123.333Z" fill="#BC744A"/>
<path d="M118.339 90.3286C117.118 89.2549 114.188 89.6724 112.94 90.4696C112.695 90.6268 112.43 90.2744 112.636 90.0737C113.477 89.2332 114.888 89.1844 116.011 89.2277C116.863 89.2603 118.258 89.2223 118.551 90.2147C118.583 90.3286 118.426 90.4045 118.339 90.3286Z" fill="#3D302A"/>
<path d="M106.428 91.0552C105.684 91.001 104.99 90.86 104.246 91.0444C103.503 91.2287 102.955 91.6843 102.292 92.0313C102.151 92.1073 102.021 91.9608 102.081 91.8198C102.732 90.3828 105.255 89.8567 106.514 90.719C106.65 90.8166 106.617 91.0661 106.428 91.0552Z" fill="#3D302A"/>
<path d="M109.418 95.1443C109.466 96.2614 109.423 97.4056 109.238 98.5119C109.173 98.9078 108.663 99.9707 108.745 100.307C108.837 100.676 109.483 101.137 109.705 101.505C109.819 101.69 109.597 101.88 109.423 101.787C108.761 101.446 108.001 100.936 108.142 100.139C108.267 99.3958 108.609 98.6854 108.723 97.9208C108.864 96.9989 108.869 96.0716 108.956 95.1389C108.978 94.8515 109.407 94.8406 109.418 95.1443Z" fill="#CC6144"/>
<path d="M121.111 109C119.581 110.795 116.965 111.998 114.616 112.069C114.382 112.074 114.323 111.695 114.561 111.651C117.052 111.19 118.892 110.334 120.883 108.766C121.041 108.636 121.252 108.837 121.111 109Z" fill="#CC6144"/>
<path d="M132.991 114.666C136.518 112.996 138.406 118.294 138.764 120.892C139.448 125.886 137.234 130.533 135.215 134.953C133.099 139.595 130.679 144.08 128.514 148.695C127.396 151.086 126.403 153.532 125.659 156.064C124.878 158.711 124.791 161.661 123.83 164.215C123.7 164.562 123.25 164.486 123.206 164.128C122.74 160.43 124.379 155.88 125.654 152.42C126.875 149.107 128.454 145.94 130.028 142.784C132.084 138.668 134.168 134.508 135.856 130.224C136.702 128.077 137.402 125.832 137.554 123.511C137.674 121.656 136.995 114.113 133.387 115.604C132.855 115.832 132.464 114.916 132.991 114.666Z" fill="#874C2E"/>
<path d="M112.381 120.372C107.942 122.058 109.494 130.165 110.101 133.679C110.839 137.958 112.223 142.107 113.96 146.082C117.34 153.831 121.899 161.022 125.98 168.408C126.316 169.015 125.394 169.557 125.046 168.955C119.972 160.056 114.193 151.423 110.845 141.673C109.293 137.15 108.3 132.389 108.229 127.595C108.186 124.406 108.652 120.529 112.109 119.363C112.744 119.146 112.994 120.133 112.381 120.372Z" fill="#874C2E"/>
<path d="M118.301 164.639C121.73 164.536 125.16 164.438 128.589 164.335C129.143 164.319 129.469 164.78 129.528 165.274C130.174 170.42 130.397 175.664 131.173 180.788C131.265 181.39 130.934 181.965 130.266 181.976C126.886 182.047 123.499 182.15 120.119 182.182C119.939 182.182 119.793 182.144 119.668 182.074C119.663 182.074 119.657 182.068 119.652 182.063C119.619 182.047 119.587 182.025 119.554 182.003C119.397 181.895 119.272 181.727 119.212 181.488C117.904 176.428 117.904 170.761 117.362 165.572C117.308 165.062 117.834 164.65 118.301 164.639Z" fill="#874C2E"/>
<path d="M104.691 185.512C104.544 182.719 104.821 179.893 104.837 177.095C104.859 174.199 104.772 171.304 104.615 168.408C104.463 165.604 104.241 162.801 103.92 160.013C103.589 157.139 102.987 154.292 102.683 151.418C102.64 151.033 103.258 150.962 103.351 151.326C104.023 153.967 104.284 156.781 104.604 159.487C104.951 162.448 105.212 165.425 105.353 168.408C105.494 171.298 105.51 174.199 105.445 177.095C105.38 179.893 105.38 182.784 104.805 185.528C104.799 185.598 104.696 185.577 104.691 185.512Z" fill="#874C2E"/>
<path d="M133.213 119.878C132.296 123.636 128.085 126.825 124.384 127.378C124.069 127.427 123.934 126.993 124.248 126.896C126.159 126.288 127.96 125.502 129.501 124.195C130.994 122.931 131.905 121.375 132.953 119.77C133.045 119.64 133.251 119.721 133.213 119.878Z" fill="#874C2E"/>
<path d="M120.884 127.399C120.238 127.253 119.598 127.101 118.963 126.922C118.393 126.759 117.796 126.651 117.303 126.32C117.156 126.222 117.21 125.989 117.395 125.984C118.562 125.951 119.918 126.596 121.004 126.981C121.264 127.068 121.161 127.459 120.884 127.399Z" fill="#874C2E"/>
<path d="M127.173 92.1836C126.815 91.6359 126.262 93.3387 126.24 93.4797C126.137 94.1413 126.272 94.7324 126.441 95.3668C126.506 95.6054 125.768 95.4156 125.681 95.2475C125.203 94.3256 125.165 92.7205 125.996 91.9613C126.517 91.4895 127.526 91.6196 127.9 92.2107C128.074 92.4764 127.293 92.368 127.173 92.1836Z" fill="#CC6144"/>
<path d="M126.001 93.4899C126.007 93.4195 126.001 93.349 125.979 93.2785C125.974 93.2568 125.974 93.2405 125.996 93.2242C126.289 92.8663 126.75 92.6982 127.195 92.8663C127.222 92.8772 127.314 92.9205 127.276 92.9639C127.168 93.0778 126.962 93.0724 126.826 93.1375C126.712 93.1917 126.631 93.2676 126.533 93.349C126.435 93.4357 126.316 93.4737 126.218 93.555C126.169 93.593 126.001 93.555 126.001 93.4899Z" fill="#CC6144"/>
<path d="M113.591 107.411C113.178 107.98 112.294 108.279 111.654 107.894C111.605 107.867 111.61 107.829 111.67 107.834C112.24 107.861 112.761 107.698 113.102 107.221C113.184 107.107 113.688 107.275 113.591 107.411Z" fill="#CC6144"/>
<path d="M117.618 96.0499C117.683 96.4892 117.666 96.8416 117.417 97.2267C117.205 97.552 116.928 97.7961 116.538 97.872C116.494 97.8828 116.266 97.834 116.321 97.7581C116.532 97.4653 116.852 97.2972 117.037 96.9718C117.2 96.679 117.352 96.3373 117.373 96.0011C117.373 95.936 117.607 95.9957 117.618 96.0499Z" fill="#CC6144"/>
<path d="M104.598 98.735C104.56 98.735 104.456 98.6748 104.543 98.6748C104.587 98.6748 104.685 98.735 104.598 98.735Z" fill="#CC6144"/>
<path d="M103.996 98.6199C103.638 98.4355 103.133 97.8986 103.47 97.4919C103.497 97.4594 103.6 97.4974 103.611 97.5299C103.779 97.9149 103.817 98.3271 104.229 98.5385C104.474 98.6633 104.11 98.6741 103.996 98.6199Z" fill="#CC6144"/>
<path d="M104.533 163.824C104.381 161.52 103.323 159.719 101.912 157.935C100.816 156.552 99.4484 155.657 98.1894 154.464C98.0537 154.334 98.1948 154.09 98.3739 154.144C100.208 154.719 101.695 156.579 102.791 158.065C103.942 159.622 105.537 161.818 104.832 163.857C104.777 164.03 104.549 163.998 104.533 163.824Z" fill="#874C2E"/>
<path d="M104.81 165.197C104.229 164.486 103.86 163.624 103.35 162.859C102.748 161.959 102.042 161.119 101.266 160.359C101.114 160.213 99.6764 158.743 99.5354 159.92C99.4485 160.663 100.935 160.945 101.375 161.211C101.869 161.509 102.2 161.742 102.2 162.35C102.2 162.545 101.907 162.643 101.815 162.453C101.228 161.276 99.1175 161.319 98.895 159.741C98.8082 159.107 99.3128 158.705 99.9315 158.771C101.044 158.89 102.2 160.506 102.824 161.281C103.692 162.366 104.718 163.716 104.929 165.121C104.94 165.186 104.859 165.256 104.81 165.197Z" fill="#874C2E"/>
<path d="M126.354 193.792C126.349 195.669 126.382 197.485 127.044 199.27C127.7 201.048 128.889 202.404 129.985 203.906C130.066 204.02 129.909 204.15 129.8 204.091C126.588 202.312 124.96 197.16 126.061 193.755C126.11 193.597 126.354 193.619 126.354 193.792Z" fill="#874C2E"/>
<path d="M112.044 176.53C112.505 179.421 113.037 182.056 114.535 184.627C116.022 187.181 118.138 189.399 120.618 191.004C120.819 191.134 120.64 191.443 120.433 191.324C115.457 188.493 111.268 182.528 111.615 176.59C111.626 176.362 112 176.275 112.044 176.53Z" fill="#874C2E"/>
<path d="M95.7425 102.959C95.1184 102.704 94.3153 102.46 93.9191 101.88C93.8594 101.793 93.9408 101.679 94.0385 101.674C94.7223 101.652 95.3843 102.156 95.9378 102.498C96.1657 102.644 96.0192 103.067 95.7425 102.959Z" fill="#874C2E"/>
<path d="M95.6555 104.581C95.2756 104.841 94.6624 105.08 94.2283 104.814C94.1034 104.738 94.098 104.548 94.2283 104.472C94.4073 104.369 94.619 104.342 94.8143 104.293C95.0314 104.239 95.243 104.174 95.4438 104.087C95.7477 103.968 95.8888 104.418 95.6555 104.581Z" fill="#874C2E"/>
<path d="M96.231 107.661C95.8619 107.877 95.3735 108.23 94.9231 108.203C94.8146 108.197 94.7332 108.078 94.7929 107.981C95.0317 107.595 95.5797 107.406 95.9759 107.232C96.2635 107.097 96.5186 107.487 96.231 107.661Z" fill="#874C2E"/>
<path d="M291.138 211.205H276.432H251.692H241.387H215.388H24.2789H14.7606H6.69122" stroke="black" stroke-width="2.1886" stroke-miterlimit="10" stroke-linecap="round"/>
<path d="M294.736 211.205H310.674" stroke="black" stroke-width="2.1886" stroke-miterlimit="10" stroke-linecap="round"/>
<path d="M1.7207 211.205H4.39062" stroke="black" stroke-width="2.1886" stroke-miterlimit="10" stroke-linecap="round"/>
<path d="M38.6649 207.93H128.747C129.615 207.93 130.326 208.635 130.326 209.508V209.622C130.326 210.489 129.62 211.2 128.747 211.2H38.6649C37.7966 211.2 37.0857 210.495 37.0857 209.622V209.508C37.0857 208.635 37.7912 207.93 38.6649 207.93Z" fill="#2D2442"/>
<path d="M21.0775 167.828C39.821 167.638 58.5645 167.448 77.3081 167.258C79.9671 167.231 82.6316 167.204 85.2907 167.177C85.7031 167.171 86.2349 167.415 86.414 167.817C91.5638 179.698 96.7137 191.58 101.864 203.461C102.596 205.159 103.334 206.851 104.067 208.548C104.094 208.602 104.105 208.662 104.121 208.716C104.121 208.716 104.121 208.716 104.121 208.722C104.137 208.776 104.154 208.83 104.164 208.884C104.311 209.573 103.964 210.381 103.117 210.484C102.922 210.544 102.721 210.555 102.526 210.506C83.2611 210.658 63.9966 210.804 44.7321 210.956C41.9808 210.978 39.2295 210.999 36.4836 211.021C35.8704 211.026 35.4363 210.609 35.2301 210.066C30.0965 196.531 24.9575 182.995 19.8239 169.46C19.5146 168.663 20.296 167.833 21.0775 167.828Z" fill="#2D2442"/>
<path d="M21.0778 166.938C38.3778 166.765 55.6833 166.591 72.9834 166.412C75.0889 166.39 77.1999 166.369 79.3054 166.347C81.2102 166.325 83.4134 165.995 85.2964 166.287C88.0911 166.721 88.8074 171.108 89.7625 173.31C93.1976 181.233 96.6272 189.156 100.062 197.073C101.533 200.468 103.009 203.857 104.474 207.252C105.028 208.532 105.565 210.083 104.111 211.053C103.372 211.547 102.26 211.389 101.462 211.4C99.3242 211.427 97.1807 211.433 95.0426 211.449C90.761 211.482 86.4794 211.514 82.1978 211.547C73.6346 211.612 65.0714 211.682 56.5136 211.747C52.2428 211.78 47.9775 211.812 43.7067 211.845C41.9865 211.856 40.2717 211.872 38.5515 211.883C37.2274 211.894 35.9141 212.149 34.8885 211.173C33.776 210.115 33.4016 207.713 32.8752 206.33C32.1264 204.351 31.372 202.366 30.6232 200.386C28.8704 195.766 27.1176 191.14 25.3648 186.52C23.7368 182.231 22.1088 177.936 20.4808 173.646C19.6668 171.499 17.3985 167.838 20.8498 166.949C21.9623 166.662 22.4344 168.381 21.3219 168.668C20.1823 168.961 24.0624 178.098 24.4477 179.118C25.7012 182.42 26.9548 185.723 28.2029 189.02C29.4564 192.323 30.71 195.625 31.9581 198.922C32.5225 200.408 33.0869 201.894 33.6512 203.38C34.2644 205.001 34.7094 207.398 35.7188 208.824C37.0157 210.668 39.7236 210.088 41.6446 210.072C43.392 210.055 45.134 210.045 46.8813 210.028C50.4466 210.001 54.0173 209.974 57.5826 209.947C64.7186 209.893 71.8547 209.833 78.9907 209.779C86.1267 209.725 93.2627 209.665 100.399 209.611C101.137 209.605 102.385 209.92 102.906 209.264C103.573 208.429 103.193 209.632 102.944 208.13C102.732 206.878 101.793 205.479 101.289 204.313C99.7963 200.869 98.304 197.431 96.8117 193.987C93.9519 187.388 91.092 180.783 88.2268 174.183C87.5919 172.719 87.0818 170.425 86.0833 169.232C84.7483 167.638 82.6319 168.066 80.8086 168.088C77.1185 168.126 73.4338 168.164 69.7437 168.202C53.5235 168.364 37.3033 168.527 21.0832 168.695C19.9273 168.728 19.9273 166.949 21.0778 166.938Z" fill="#2D2442"/>
<path d="M64.2348 193.602C61.8342 193.602 59.8881 192.185 59.8881 190.436C59.8881 188.686 61.8342 187.269 64.2348 187.269C66.6354 187.269 68.5815 188.686 68.5815 190.436C68.5815 192.185 66.6354 193.602 64.2348 193.602Z" fill="#5A4F72"/>
<path d="M55.8782 192.409C54.6254 192.409 53.6098 191.671 53.6098 190.761C53.6098 189.85 54.6254 189.112 55.8782 189.112C57.1309 189.112 58.1465 189.85 58.1465 190.761C58.1465 191.671 57.1309 192.409 55.8782 192.409Z" fill="#5A4F72"/>
<path d="M162.115 199.621C159.342 199.291 154.431 198.542 154.306 196.84C156.103 195.679 158.078 194.508 160.216 194.405C161.92 194.323 163.57 194.947 165.127 195.641C166.451 196.232 167.754 196.872 169.023 197.566C169.544 197.854 170.912 198.873 170.934 199.583C170.961 200.467 169.338 199.947 168.692 199.99C166.495 200.147 164.291 199.887 162.115 199.621Z" fill="#C1ADA4"/>
<path d="M168.665 198.178C168.665 198.178 164.975 210.244 163.027 210.537C161.073 210.825 141.982 210.971 141.477 210.754C140.973 210.537 140.897 210.174 140.897 210.174C140.897 210.174 128.747 210.971 128.53 210.678C128.312 210.385 128.53 208.943 129.11 208.726C129.691 208.509 148.054 204.393 149.644 203.813C151.234 203.233 156.227 203.379 156.227 203.379L157.242 196.367L168.665 198.178Z" fill="#FE8E68"/>
<path d="M164.21 46.7661C163.016 48.0459 162.365 49.8192 162.452 51.5708C162.506 52.612 162.804 53.6261 163.119 54.6239C163.722 56.5436 164.438 58.5284 165.93 59.8786C166.174 60.0956 166.478 60.3071 166.798 60.2528C167.395 58.409 167.998 56.5707 168.595 54.7269C168.882 53.843 169.17 52.9536 169.333 52.0372C169.604 50.4862 169.506 48.8648 168.985 47.3843C168.747 46.7119 168.405 46.0449 167.835 45.611C166.451 44.5482 165.154 45.7575 164.21 46.7661Z" fill="#433735"/>
<path d="M199.581 148.846C199.776 150.733 199.483 152.723 199.38 154.611C199.32 155.684 199.26 156.758 199.266 157.832C199.266 158.455 199.45 159.215 199.239 159.8C199.217 159.86 199.125 159.903 199.076 159.844C198.24 158.83 198.712 156.406 198.756 155.18C198.821 153.071 198.924 150.956 199.005 148.846C199.011 148.466 199.543 148.477 199.581 148.846Z" fill="#9B8580"/>
<path d="M194.203 145.127C196.211 149.682 197.323 154.318 200.074 158.575C200.232 158.814 199.841 159.042 199.689 158.798C197.258 154.98 194.61 149.736 193.969 145.219C193.953 145.094 194.138 144.98 194.203 145.127Z" fill="#9B8580"/>
<path d="M238.332 211.205L237.095 169.519L228.027 211.205H202.023C203.748 197.338 211.416 139.373 219.426 134.46L250.9 114.878C250.9 114.878 269.112 119.623 268.716 145.929C267.261 171.271 264.163 201.086 263.067 211.205H238.332Z" fill="#2D2442"/>
<path d="M154.377 196.883C155.05 197.908 158.49 197.138 159.505 197.235C160.417 197.322 161.274 197.669 162.159 197.897C164.97 198.629 168.112 198.244 170.641 199.675C170.717 199.719 170.809 199.768 170.896 199.741C170.993 199.713 171.037 199.605 171.069 199.513C172.687 195.044 173.945 190.381 175.362 185.825C177.489 178.982 179.611 172.133 181.738 165.289C182.834 161.753 183.936 158.217 185.032 154.682L192.754 118.929L189.319 93.7285L188.505 87.7851L188.445 87.335C188.445 87.335 188.277 87.3946 187.968 87.5031C186.893 87.8827 184.131 88.913 181.076 90.4043C176.176 92.7958 170.51 96.3803 169.74 100.437C169.74 100.453 169.734 100.464 169.734 100.48C169.327 103.327 168.866 106.163 168.421 109.005C167.629 114.043 166.826 119.075 166.017 124.108C165.013 130.371 164.009 136.634 163 142.898C161.947 149.427 160.894 155.951 159.842 162.474C158.903 168.299 157.959 174.123 157.014 179.942C156.342 184.096 155.669 188.249 154.996 192.403C154.811 193.553 154.621 194.703 154.437 195.852C154.404 196.053 154.231 196.525 154.296 196.72C154.317 196.78 154.345 196.834 154.377 196.883Z" fill="#EED9CE"/>
<path d="M188.451 87.3293L188.511 87.7794L189.325 93.7229L192.76 118.923L209.56 129.265C210.44 129.807 211.194 133.516 211.552 134.449C212.713 137.469 213.723 140.609 215.052 143.559C215.324 144.167 215.568 145.81 216.17 146.178C217.38 146.921 222.308 145.902 223.827 145.804C229.454 145.441 235.147 144.617 240.297 142.193C244.367 140.273 247.976 137.562 251.807 135.235C254.151 133.814 256.761 132.925 259.236 131.781C260.891 131.016 264.467 129.552 265.107 127.605C265.292 127.041 265.004 126.445 264.733 125.924C263.55 123.636 262.763 120.875 261.368 118.75C260.082 116.792 258.492 115.024 257.239 113.012C254.71 108.972 252.48 104.704 249.321 101.098C243.949 94.9593 239.429 87.9476 233.893 81.8305C231.435 79.1137 223.773 76.527 220.11 76.3751C216.778 76.2396 213.549 76.7873 210.722 77.5736C208.448 78.2135 206.429 79.0106 204.839 79.7265C202.506 80.7839 201.084 81.6787 201.084 81.6787L188.451 87.3293Z" fill="#EED9CE"/>
<path d="M182.242 120.859C180.473 119.769 172.208 114.498 171.465 112.594C171.123 111.71 169.245 108.988 167.628 106.434C166.668 104.921 164.242 101.955 163.629 101.32C162.576 100.23 161.062 97.5296 160.145 98.4189C159.005 99.5252 160.785 102.291 161.789 103.988C162.158 104.612 162.554 105.236 162.712 105.94C162.869 106.645 162.837 107.171 162.419 107.768C162.191 108.093 160.65 108.245 160.129 108.224C156.227 108.05 154.534 108.283 151.62 107.199C148.706 106.114 145.987 104.585 143.241 103.131C142.769 102.882 142.487 102.372 141.423 102.275C140.891 102.226 139.773 102.296 139.833 102.828C139.882 103.24 143.16 105.799 143.496 106.038C145.314 107.329 145.108 107.182 146.926 108.473C147.208 108.674 147.512 108.907 147.582 109.243C147.642 109.525 147.517 109.818 147.512 110.105C147.501 110.626 147.859 111.071 148.217 111.45C148.841 112.117 149.498 112.741 150.193 113.332C151.159 114.162 150.372 114.867 151.424 115.593C152.586 116.396 155.592 117.209 156.786 117.958C157.736 118.56 158.696 119.167 159.743 119.584C160.997 120.083 162.337 120.306 163.661 120.577C167.281 121.325 173.619 127.881 176.68 130.045" fill="#FE8E68"/>
<path d="M161.453 120.111C161.453 120.111 156.9 119.536 153.281 117.855C149.661 116.174 140.713 110.654 140.713 110.654C140.713 110.654 140.588 110.339 140.685 110.122C140.778 109.905 142.14 109.602 143.236 110.074C144.332 110.545 151.343 113.588 151.343 113.588" fill="#FE8E68"/>
<path d="M162.354 118.581C162.354 118.581 156.585 117.377 152.966 115.696C149.346 114.015 140.398 108.495 140.398 108.495C140.398 108.495 140.273 108.18 140.371 107.963C140.468 107.746 141.825 107.443 142.921 107.914C144.017 108.392 151.028 111.428 151.028 111.428" fill="#FE8E68"/>
<path d="M160.53 115.268C160.53 115.268 154.762 114.065 151.142 112.383C147.523 110.702 141.901 107.828 138.715 105.654C138.504 105.513 138.449 104.873 138.547 104.65C138.645 104.433 140.001 104.13 141.098 104.607C142.194 105.084 149.205 108.121 149.205 108.121" fill="#FE8E68"/>
<path d="M181.922 80.7508C181.922 80.7508 167.965 89.2539 164.704 72.0471C163.912 64.9268 162.924 53.3544 168.861 48.8317C174.797 44.309 188.456 43.7884 188.755 57.2155C188.234 61.0711 188.386 61.3694 188.386 61.3694C188.386 61.3694 193.508 59.9595 192.396 66.3368C191.804 69.2272 191.034 70.2684 191.034 70.2684C191.034 70.2684 201.513 78.4678 201.523 78.4786C202.489 79.2324 203.298 80.4905 204.633 79.8831C204.779 79.8181 204.921 79.7313 205.078 79.7042C205.235 79.6771 205.42 79.7259 205.501 79.8669C205.55 79.9536 205.545 80.0621 205.55 80.1651C205.566 80.6803 205.767 81.1629 205.903 81.6564C206.429 83.549 205.881 85.3223 204.883 86.96C204.036 88.3483 202.831 89.5305 201.409 90.3222C200.047 91.0814 198.517 91.4935 196.981 91.7701C195.049 92.1172 193.004 92.2527 191.093 91.7213C189.921 91.3959 189.124 91.0326 188.31 90.0836C188.158 89.9046 188.011 89.7203 187.908 89.5088C187.675 89.0316 187.664 88.4838 187.669 87.9524C187.669 87.8765 187.675 87.8006 187.724 87.7409C187.772 87.6813 187.859 87.6704 187.935 87.6596C188.787 87.5186 188.223 87.0685 187.87 86.6997C187.517 86.331 187.159 85.9676 186.801 85.5989C186.052 84.8342 185.292 84.075 184.533 83.3158C183.659 82.459 182.791 81.6022 181.922 80.7508Z" fill="#FE8E68"/>
<path d="M169.397 57.9273C171.525 57.1464 175.199 57.9869 176.544 59.8795C176.637 60.0097 176.479 60.2212 176.327 60.1561C175.258 59.7331 174.363 59.0498 173.229 58.7299C171.959 58.372 170.749 58.4696 169.463 58.4099C169.175 58.4045 169.137 58.0249 169.397 57.9273Z" fill="#433735"/>
<path d="M164.177 62.835C164.497 63.8653 164.177 65.0421 163.759 66.0399C163.342 67.0377 162.696 67.9162 162.061 68.7893C161.773 69.1797 161.486 69.5756 161.198 69.9661C162.093 70.2643 162.973 70.6331 163.814 71.0669C164.318 71.3272 164.861 71.6797 164.964 72.2383" fill="#FE8E68"/>
<path d="M181.423 117.845C191.604 122.568 207.455 131.098 207.455 131.098L209.729 114.678L233.682 114.873C233.682 114.873 226.752 153.05 221.407 156.613C221.407 156.613 215.074 161.358 204.779 154.238C197.985 149.536 182.183 137.183 174.418 130.426L181.423 117.845Z" fill="#EED9CE"/>
<path d="M226.42 145.511C226.578 142.886 227.82 140.039 228.488 137.502C229.437 133.901 230.387 130.3 231.277 126.683C232.878 120.143 234.245 113.57 235.673 106.998C235.716 106.808 236.036 106.846 236.02 107.047C235.488 113.603 233.757 120.159 232.178 126.52C231.31 130.029 230.414 133.537 229.432 137.014C228.672 139.698 228.135 143.179 226.681 145.582C226.616 145.696 226.415 145.658 226.42 145.511Z" fill="#DBC4BD"/>
<path d="M175.004 129.563C179.974 132.839 184.408 137.139 188.483 141.45C188.842 141.83 188.272 142.399 187.914 142.02C183.768 137.654 179.188 133.961 174.586 130.106C174.276 129.856 174.673 129.346 175.004 129.563Z" fill="#DBC4BD"/>
<path d="M191.62 123.116C189.976 122.866 188.326 122.026 186.845 121.299C185.553 120.664 183.849 120.063 182.997 118.864C182.845 118.647 183.095 118.436 183.301 118.468C184.706 118.68 186.069 119.824 187.333 120.458C188.804 121.196 190.437 121.738 191.826 122.617C192.108 122.79 191.918 123.164 191.62 123.116Z" fill="#DBC4BD"/>
<path d="M205.251 79.4711C207.091 77.5839 208.893 80.9461 209.446 82.4808C210.922 86.5859 210.043 91.4828 208.844 95.5337C207.389 100.469 204.953 104.986 203.651 109.98C202.169 115.674 201.078 121.374 201.301 127.279C201.317 127.643 200.758 127.637 200.736 127.279C200.232 119.579 202.082 110.973 204.958 103.847C206.407 100.252 208.041 96.7918 208.898 92.9849C209.381 90.8429 209.685 88.6087 209.587 86.4124C209.549 85.5502 208.073 77.3508 205.637 79.8453C205.392 80.1056 205.007 79.7206 205.251 79.4711Z" fill="#9B8580"/>
<path d="M186.92 86.5594C186.453 87.3348 185.992 88.1103 185.525 88.8804C185.433 89.3955 185.341 89.9161 185.248 90.4313C185.2 91.0007 185.227 91.581 185.265 92.1449C185.368 93.6905 185.748 95.2089 186.003 96.7381C186.486 99.6827 186.86 102.644 187.365 105.588C188.336 111.261 189.633 116.862 191.467 122.323C191.57 122.627 191.098 122.752 190.995 122.453C188.434 115.154 187.039 107.573 185.894 99.9376C185.368 96.4019 182.351 87.9693 187.115 86.1364C187.305 86.0605 187.49 86.2828 187.441 86.4618C187.424 86.516 187.408 86.5702 187.397 86.619C187.311 86.8847 186.931 86.8251 186.92 86.5594Z" fill="#9B8580"/>
<path d="M193.525 156.39C193.519 155.907 193.959 155.419 194.464 155.452C197.888 155.679 201.307 155.913 204.731 156.14C205.246 156.173 205.653 156.542 205.67 157.079C205.816 162.344 205.539 167.675 205.816 172.93C205.843 173.412 205.366 173.906 204.877 173.868C201.502 173.613 198.127 173.385 194.757 173.098C194.729 173.098 194.708 173.087 194.681 173.082C194.295 173.103 193.932 172.908 193.85 172.409C193.042 167.236 193.563 161.618 193.525 156.39Z" fill="#D6CED7"/>
<path d="M192.874 64.179C194.409 64.3851 195.581 64.7539 196.699 63.3439C197.15 62.7799 197.508 62.1888 198.208 61.9231C198.3 61.8906 198.371 62.0207 198.3 62.0804C197.432 62.8721 196.808 64.2333 195.663 64.6725C194.757 65.0196 193.639 64.7701 192.798 64.3526C192.689 64.3038 192.776 64.1628 192.874 64.179Z" fill="#594C4A"/>
<path d="M171.775 69.5262C169.152 69.5262 167.027 67.4018 167.027 64.7812C167.027 62.1606 169.152 60.0361 171.775 60.0361C174.397 60.0361 176.523 62.1606 176.523 64.7812C176.523 67.4018 174.397 69.5262 171.775 69.5262Z" stroke="#F9F9F9" stroke-width="1.0943" stroke-miterlimit="10"/>
<path d="M166.88 63.534C166.706 63.431 166.63 63.2683 166.473 63.1381C166.245 62.9483 165.946 62.8399 165.659 62.7856C165.393 62.7368 165.105 62.7368 164.85 62.8344C164.611 62.9266 164.552 63.1544 164.335 63.2466C164.275 63.2737 164.221 63.2628 164.177 63.2032C164.161 63.1815 164.145 63.1544 164.123 63.1327C164.074 63.0676 164.09 62.9863 164.123 62.9212C164.4 62.3247 165.197 62.2759 165.762 62.3952C166.245 62.4982 167.113 62.867 167.021 63.4743C167.021 63.5394 166.929 63.5611 166.88 63.534Z" fill="#F9F9F9"/>
<path d="M192.938 56.2726C190.512 58.0188 175.345 55.8768 170.445 53.6317C160.492 49.0711 159.515 41.0398 161.843 39.5322C162.126 39.3478 162.435 39.2068 162.766 39.1634C163.547 39.0713 164.264 39.5539 164.899 40.0148C164.649 39.1038 163.743 35.1505 166.158 33.5779C169.403 31.4684 173.484 35.0366 174.151 35.4813C178.78 38.5778 181.282 39.1038 181.282 39.1038C181.282 39.1038 180.468 31.3003 186.86 37.2925C188.873 39.1797 192.612 40.9422 194.62 42.8402C196.726 44.8304 197.925 48.0787 196.709 50.8552" fill="#433735"/>
<path d="M185.83 51.5443C184.44 52.6722 183.822 54.4781 183.42 56.2242C182.818 58.8489 182.579 61.6363 183.415 64.1959C183.654 64.9225 183.355 68.2847 183.925 68.1871C184.104 68.16 184.506 65.5841 185.184 64.2718C186.242 62.2382 189.601 61.9616 190.822 63.556C192.336 65.5299 191.365 66.9236 190.692 68.8921C190.193 70.3563 190.687 72.1946 192.477 72.699C194.149 73.1707 193.666 71.9072 194.333 70.725C195.766 68.1763 197.264 65.9475 198.224 63.1113C199.738 58.6374 200.986 51.848 196.303 48.7515C195.131 47.976 191.267 47.0324 189.965 47.553" fill="#433735"/>
<path d="M186.969 61.5281C186.269 62.9055 184.647 63.1767 183.268 63.5238C181.282 64.0227 179.155 64.4131 177.098 64.4077C176.74 64.4077 176.762 63.9088 177.098 63.8654C178.862 63.6431 180.615 63.4912 182.351 63.1116C183.784 62.8025 185.732 62.5259 186.703 61.3275C186.834 61.1702 187.051 61.3654 186.969 61.5281Z" fill="#F9F9F9"/>
<path d="M184.771 77.3358C184.033 78.7458 182.872 80.1394 181.429 80.8661C181.363 80.8986 181.293 80.8173 181.347 80.7631C182.487 79.608 183.621 78.5451 184.587 77.2328C184.668 77.1243 184.831 77.2165 184.771 77.3358Z" fill="#CC6144"/>
<path d="M156.314 60.6001C155.636 60.1554 154.908 59.7379 154.366 59.1251C154.328 59.0817 154.366 58.9895 154.431 59.0166C155.191 59.3095 155.831 59.8409 156.477 60.3235C156.639 60.4428 156.493 60.714 156.314 60.6001Z" fill="#433735"/>
<path d="M155.332 62.4876C154.822 62.3791 154.181 62.2598 153.747 61.9615C153.633 61.8802 153.677 61.7121 153.818 61.7012C154.344 61.6687 154.952 61.9073 155.446 62.0808C155.701 62.1676 155.598 62.5418 155.332 62.4876Z" fill="#433735"/>
<path d="M155.147 64.8138C154.833 64.727 154.518 64.6565 154.187 64.6185C153.921 64.5914 153.65 64.5914 153.389 64.5318C153.313 64.5155 153.291 64.3962 153.367 64.3582C153.932 64.0871 154.692 64.2173 155.25 64.445C155.473 64.5318 155.392 64.8788 155.147 64.8138Z" fill="#433735"/>
<path d="M255.535 134.231C256.919 134.188 256.859 136.346 256.989 137.268C257.163 138.521 257.515 140.137 256.436 141.08C256.251 141.243 256.001 141.124 255.974 140.89C255.969 140.831 255.963 140.771 255.958 140.717C255.942 140.581 256.099 140.538 256.197 140.581C256.257 140.608 256.322 140.636 256.381 140.663C256.257 140.695 256.137 140.728 256.012 140.76C256.647 139.795 256.577 138.862 256.441 137.772C256.305 136.677 256.381 135.218 255.443 134.47C255.334 134.388 255.426 134.237 255.535 134.231Z" fill="black"/>
<path d="M253.956 135.289C254.818 136.71 255.025 139.351 254.325 140.864C254.243 141.043 253.983 140.94 253.977 140.772C253.939 139.861 254.162 138.966 254.108 138.044C254.053 137.133 253.787 136.265 253.706 135.36C253.69 135.219 253.89 135.181 253.956 135.289Z" fill="black"/>
<path d="M227.229 146.765C227.413 147.329 227.587 147.898 227.837 148.44C228.065 148.934 228.412 149.368 228.629 149.861C228.732 150.094 228.472 150.322 228.265 150.138C227.419 149.378 226.952 147.909 226.871 146.808C226.86 146.602 227.169 146.575 227.229 146.765Z" fill="black"/>
<path d="M226.025 148.695C226.199 149.319 226.481 149.834 226.768 150.404C226.888 150.648 226.557 150.957 226.367 150.713C225.933 150.159 225.737 149.433 225.683 148.739C225.672 148.543 225.976 148.511 226.025 148.695Z" fill="black"/>
<path d="M267.125 134.156C265.41 135.186 263.62 136.054 261.916 137.127C260.429 138.06 258.866 138.939 257.097 139.172C256.836 139.204 256.782 138.771 257.037 138.716C259.088 138.266 260.771 137.279 262.518 136.162C263.864 135.3 265.438 134.123 267.082 134.004C267.169 134.004 267.19 134.118 267.125 134.156Z" fill="black"/>
<path d="M254.161 139.524C249.831 141.769 245.745 144.541 241.306 146.569C239.276 147.496 237.143 148.141 234.951 148.592C232.878 149.014 230.425 149.589 228.314 149.362C228.097 149.34 228.021 149.02 228.26 148.96C230.518 148.391 232.97 148.44 235.266 147.941C237.572 147.436 239.781 146.693 241.903 145.652C246.005 143.646 249.733 140.815 254.009 139.172C254.216 139.091 254.351 139.421 254.161 139.524Z" fill="black"/>
<path d="M234.523 170.365C233.834 169.567 233.134 168.781 232.336 168.092C231.886 167.702 229.58 165.658 228.874 166.341C228.809 166.406 228.679 166.341 228.711 166.249C229.064 165.164 230.605 166.287 231.121 166.623C232.553 167.566 233.812 168.765 234.691 170.24C234.757 170.338 234.605 170.457 234.523 170.365Z" fill="black"/>
<path d="M239.683 169.73C241.8 167.637 244.616 166.178 247.623 166.059C247.709 166.053 247.726 166.189 247.644 166.211C244.736 166.872 242.163 167.962 239.922 169.969C239.759 170.11 239.531 169.882 239.683 169.73Z" fill="black"/>
<path d="M234.734 171.747C232.146 172.658 230.116 174.269 229.519 177.073C229.389 176.975 229.259 176.872 229.129 176.774C229.796 176.346 230.377 175.814 230.865 175.191C231.212 174.746 231.462 174.155 231.869 173.759C232.314 173.331 233.014 173.184 233.54 173.526C233.573 173.548 233.551 173.602 233.513 173.586C232.341 173.152 231.674 174.968 231.12 175.646C230.621 176.265 230.029 176.758 229.395 177.23C229.194 177.382 228.966 177.132 229.004 176.932C229.541 174.269 231.837 171.617 234.691 171.454C234.875 171.444 234.886 171.693 234.734 171.747Z" fill="black"/>
<path d="M267.435 151.776C264.787 150.138 262.367 148.131 260.918 145.322C260.739 144.975 261.265 144.666 261.444 145.013C262.85 147.73 265.178 149.661 267.745 151.25C268.076 151.456 267.772 151.982 267.435 151.776Z" fill="black"/>
<path d="M235.77 148.7C235.586 151.438 235.184 154.112 235.239 156.867C235.298 159.757 235.667 162.626 236.297 165.446C236.357 165.712 235.944 165.831 235.884 165.56C235.26 162.783 234.88 159.969 234.81 157.122C234.739 154.351 234.794 151.357 235.543 148.667C235.575 148.543 235.776 148.564 235.77 148.7Z" fill="black"/>
<path d="M236.265 166.639C236.525 167.073 236.569 167.642 236.661 168.13C236.742 168.564 236.916 169.057 236.775 169.491C236.748 169.573 236.645 169.583 236.596 169.513C236.33 169.128 236.341 168.58 236.259 168.13C236.173 167.664 235.999 167.176 236.031 166.698C236.042 166.579 236.2 166.525 236.265 166.639Z" fill="black"/>
<path d="M231.912 148.993C231.988 151.157 231.901 153.332 231.88 155.495C231.858 157.518 231.674 159.611 231.874 161.623C232.211 164.942 235.44 166.629 236.65 169.541C236.731 169.736 236.395 169.877 236.308 169.687C235.038 166.878 231.918 165.305 231.413 162.1C231.104 160.132 231.348 158.017 231.381 156.032C231.419 153.69 231.391 151.331 231.532 148.988C231.543 148.749 231.901 148.749 231.912 148.993Z" fill="black"/>
<path d="M207.346 86.5589C207.39 90.6044 203.13 93.1586 199.489 93.5165C199.201 93.5436 199.185 93.1261 199.424 93.0393C201.133 92.4103 202.864 92.0849 204.378 90.9894C205.821 89.9374 206.891 88.3594 207.091 86.5644C207.108 86.3963 207.346 86.3908 207.346 86.5589Z" fill="#C1ADA4"/>
<path d="M197.209 93.49C196.639 93.6148 196.058 93.6093 195.478 93.6148C194.886 93.6256 194.322 93.6473 193.757 93.4467C193.627 93.3978 193.627 93.2243 193.757 93.1755C194.322 92.9803 194.886 93.002 195.478 93.0074C196.058 93.0182 196.639 93.0074 197.209 93.1321C197.382 93.1755 197.382 93.4521 197.209 93.49Z" fill="#C1ADA4"/>
<path d="M236.02 108.148C236.118 107.14 236.427 106.272 237.106 105.502C237.627 104.911 238.712 104.038 239.548 104.249C239.694 104.287 239.765 104.499 239.64 104.602C239.352 104.846 239.016 104.889 238.679 105.046C238.267 105.242 237.898 105.507 237.567 105.816C236.905 106.435 236.389 107.275 236.237 108.17C236.221 108.3 236.01 108.273 236.02 108.148Z" fill="#C1ADA4"/>
<path d="M186.144 67.9479C185.699 66.4945 187.181 63.5608 188.961 64.1844C189.482 64.3688 189.151 64.6182 188.744 64.5098C188.31 64.3905 187.469 65.8329 187.338 66.0824C187.007 66.7114 186.953 67.4327 186.633 68.0509C186.568 68.181 186.182 68.0672 186.144 67.9479Z" fill="#CC6144"/>
<path d="M187.202 65.8498C187.219 65.3672 187.653 65.1177 188.103 65.1611C188.342 65.1882 188.603 65.2641 188.792 65.416C188.906 65.5027 189.064 65.698 188.939 65.8281C188.868 65.8986 188.684 65.8227 188.624 65.7793C188.445 65.6546 188.353 65.4485 188.147 65.5407C187.951 65.622 187.816 65.8064 187.751 66.0016C187.702 66.1535 187.197 66.0125 187.202 65.8498Z" fill="#CC6144"/>
<path d="M172.876 65.8609C172.8 66.4086 172.426 66.7611 171.862 66.7448C171.84 66.7448 171.677 66.7014 171.726 66.658C171.862 66.5387 172.035 66.4628 172.176 66.3381C172.339 66.1917 172.518 65.991 172.6 65.7849C172.632 65.7144 172.893 65.7795 172.876 65.8609Z" fill="#CC6144"/>
<path d="M210.792 102.714C210.591 108.424 209.891 114.113 209.164 119.774C208.79 122.681 208.627 126.011 207.824 128.744C207.737 129.037 207.341 128.907 207.384 128.625C207.384 128.619 207.384 128.619 207.384 128.614C207.422 128.321 207.867 128.446 207.824 128.733C207.824 128.738 207.824 128.738 207.824 128.744C207.677 128.706 207.531 128.662 207.384 128.625C207.346 128.755 207.373 128.142 207.384 128.001C207.433 127.421 207.547 126.835 207.629 126.255C207.943 124.037 208.247 121.819 208.535 119.601C209.262 113.983 209.908 108.354 210.434 102.714C210.45 102.486 210.803 102.475 210.792 102.714Z" fill="#C1ADA4"/>
<path d="M200.959 127.649C203.19 128.137 205.257 129.151 207.33 130.127C209.468 131.13 211.677 132.085 213.625 133.43C213.766 133.527 213.685 133.771 213.506 133.717C209.088 132.388 205.062 129.742 200.856 127.909C200.699 127.839 200.813 127.616 200.959 127.649Z" fill="#C1ADA4"/>
<path d="M162.538 151.629C163.13 153.744 163.26 155.821 164.145 157.887C165.078 160.062 166.456 161.748 167.916 163.581C168.095 163.803 167.824 164.08 167.601 163.896C165.816 162.431 164.497 160.213 163.597 158.115C162.777 156.211 161.936 153.733 162.273 151.629C162.3 151.488 162.506 151.504 162.538 151.629Z" fill="#C1ADA4"/>
<path d="M257.195 132.345C257.7 130.637 258.096 128.859 258.129 127.069C258.167 125.231 257.689 123.55 257.407 121.76C257.374 121.538 257.678 121.359 257.803 121.592C259.485 124.753 259.035 129.363 257.537 132.486C257.445 132.682 257.141 132.546 257.195 132.345Z" fill="#C1ADA4"/>
<path d="M252.327 134.709C252.745 133.625 253.217 132.551 253.526 131.429C253.64 131.006 254.134 129.666 253.879 129.352C252.88 128.891 252.338 129.113 252.251 130.019C252.186 130.404 252.159 130.794 252.169 131.185C252.169 131.364 251.887 131.412 251.849 131.228C251.627 130.257 252.484 126.993 254.02 128.197C254.687 128.723 254.34 130.046 254.199 130.718C253.89 132.15 253.206 133.489 252.631 134.829C252.555 135.008 252.262 134.883 252.327 134.709Z" fill="#C1ADA4"/>
<path d="M241.968 141.131C243.124 139.271 243.645 137.4 244.237 135.323C244.275 135.198 244.454 135.225 244.459 135.355C244.546 137.492 243.504 139.677 242.186 141.299C242.082 141.418 241.887 141.266 241.968 141.131Z" fill="#C1ADA4"/>
<path d="M232.689 144.747C231.071 144.601 228.928 143.397 228.667 141.624C228.646 141.472 228.83 141.309 228.96 141.456C229.465 142.041 229.818 142.708 230.42 143.218C231.082 143.777 231.907 144.173 232.737 144.406C232.922 144.449 232.895 144.769 232.689 144.747Z" fill="#C1ADA4"/>
<path d="M232.645 142.941C231.592 142.578 230.29 141.645 230.105 140.458C230.084 140.317 230.263 140.159 230.382 140.3C230.735 140.718 230.99 141.201 231.386 141.586C231.798 141.992 232.292 142.307 232.819 142.54C233.041 142.643 232.884 143.023 232.645 142.941Z" fill="#C1ADA4"/>
<path d="M173.24 79.6234C172.751 79.4227 172.415 79.7427 171.964 79.8674C171.915 79.8782 171.78 79.8674 171.764 79.8023C171.666 79.439 172.16 79.3143 172.442 79.2872C172.795 79.2546 173.18 79.3197 173.467 79.5474C173.625 79.6722 173.299 79.6505 173.24 79.6234Z" fill="#CC6144"/>
<path d="M16.0788 55.3145H73.8723C78.7834 55.3145 82.9781 58.8556 83.803 63.6928L88.7955 93.036C89.8428 99.1802 85.0999 104.787 78.8648 104.787H78.5717L80.8238 116.815L69.7101 104.787H21.0768C16.1657 104.787 11.9709 101.246 11.146 96.4091L6.15355 67.0658C5.10078 60.9217 9.84364 55.3145 16.0788 55.3145Z" fill="#699DEE"/>
<path d="M49.241 66.3762C43.0818 66.707 36.9063 66.7883 30.7417 66.9239C27.7028 66.989 24.6638 67.0595 21.6249 67.1246C18.5372 67.1951 15.3192 67.5204 12.2423 67.2385C11.9222 67.2113 11.7865 66.6799 12.1609 66.6311C15.0804 66.2298 18.1411 66.3925 21.0931 66.322C24.2189 66.2515 27.35 66.181 30.4757 66.1105C36.7272 65.9695 42.9895 65.7634 49.241 65.8231C49.6046 65.8176 49.6046 66.3599 49.241 66.3762Z" fill="white"/>
<path d="M50.9066 73.8609C44.8885 74.2079 38.8649 74.3761 32.8414 74.3489C29.873 74.3381 26.8992 74.2784 23.9309 74.17C21.0385 74.0669 18.0593 74.0941 15.194 73.6494C14.787 73.5843 14.901 72.9607 15.2863 72.9552C18.2438 72.8793 21.2393 73.221 24.1968 73.324C27.1652 73.427 30.1335 73.4813 33.1073 73.4921C39.044 73.5084 44.9753 73.3403 50.9012 72.9932C51.471 72.9607 51.4655 73.8338 50.9066 73.8609Z" fill="white"/>
<path d="M50.8638 79.8362C45.4263 80.3297 39.9617 80.8666 34.5025 81.0727C29.0542 81.2787 23.5624 80.9533 18.1195 80.7635C17.4032 80.7364 17.3978 79.6139 18.1195 79.6464C23.5679 79.8579 29.0433 80.2646 34.5025 80.0857C39.9617 79.9067 45.4046 79.321 50.8638 79.1204C51.3304 79.1041 51.3196 79.7928 50.8638 79.8362Z" fill="white"/>
<path d="M78.5613 85.3787C63.0628 86.6639 47.4287 86.7453 31.8869 86.8808C28.1859 86.9134 24.4578 86.9893 20.7623 86.8266C20.1545 86.7995 20.1491 85.8939 20.7623 85.883C27.9417 85.7149 35.132 85.8667 42.3114 85.7963C50.6955 85.7149 59.0797 85.5685 67.4584 85.2919C71.1593 85.1672 74.8657 85.075 78.5667 84.8581C78.8977 84.8364 78.8923 85.3516 78.5613 85.3787Z" fill="white"/>
<path d="M79.2173 90.6492C63.8925 91.9236 48.4484 92.1513 33.0802 92.3466C29.4227 92.3954 25.738 92.4821 22.0804 92.3194C21.4727 92.2923 21.4672 91.3867 22.0804 91.3759C29.2544 91.2077 36.4447 91.3216 43.6241 91.2132C51.8291 91.0884 60.0396 90.8986 68.2392 90.5895C71.9022 90.454 75.5651 90.3455 79.2227 90.1286C79.5537 90.1069 79.5483 90.6221 79.2173 90.6492Z" fill="white"/>
<path d="M76.3087 63.3997C77.0305 66.0352 77.0956 68.7575 77.1065 71.4744C77.1119 72.8518 77.1119 74.2346 77.215 75.612C77.3235 77.0545 77.839 78.4428 77.915 79.869C77.9421 80.3733 77.2313 80.5252 76.9871 80.1185C76.4118 79.1532 76.3359 77.9168 76.2056 76.8105C76.032 75.3626 76.0103 73.9092 76.0103 72.4505C76.0049 69.5004 76.0754 66.5612 75.2343 63.6979C75.0281 63.0038 76.1188 62.7056 76.3087 63.3997Z" fill="white"/>
<path d="M75.2233 63.7689C68.2501 63.9045 61.3149 64.1323 54.3797 64.9077C54.5913 64.6312 54.8029 64.3492 55.0146 64.0726C55.758 69.3925 56.2355 74.696 56.2247 80.0701C56.2247 81.1222 54.5804 81.1276 54.5859 80.0701C54.6238 74.7882 54.3959 69.4847 53.7176 64.2462C53.6687 63.8665 54.0595 63.6171 54.3797 63.5846C61.2823 62.885 68.2881 62.5163 75.2233 62.9338C75.7551 62.9664 75.7659 63.7581 75.2233 63.7689Z" fill="white"/>
<path d="M76.7047 80.8674C73.2696 80.477 69.8183 80.336 66.3669 80.4878C64.7281 80.5583 63.0893 80.6939 61.4559 80.8837C60.5062 80.9975 59.5565 81.1385 58.6123 81.2795C57.8037 81.3988 57.1959 81.6103 56.4254 81.3121C56.0292 81.1602 55.7742 80.618 56.154 80.2872C57.2665 79.3056 59.2581 79.3815 60.6853 79.2351C62.4869 79.0507 64.2994 78.9423 66.1065 78.9043C69.7152 78.8338 73.3076 79.0833 76.8783 79.5822C77.6055 79.6852 77.4427 80.9487 76.7047 80.8674Z" fill="white"/>
<path d="M73.4865 66.697C73.7469 69.4952 73.9531 72.3043 74.0725 75.1133C74.0996 75.8021 72.9872 75.8075 72.9981 75.1133C73.0523 72.2989 72.9872 69.5061 72.7756 66.697C72.743 66.2415 73.443 66.2469 73.4865 66.697Z" fill="white"/>
<path d="M73.417 75.6506C67.9307 75.9977 62.3738 76.2797 56.8766 76.2905C56.1712 76.2905 56.182 75.2439 56.8766 75.2059C62.3629 74.886 67.9198 74.8372 73.417 74.848C73.9379 74.848 73.9325 75.6181 73.417 75.6506Z" fill="white"/>
<path d="M70.953 73.3127C70.7359 72.6565 70.5134 71.9949 70.2964 71.3388C70.1119 70.7856 69.9491 69.6848 69.5475 69.2618C68.4296 68.085 66.8451 71.6912 66.5032 72.1956C65.852 73.1608 64.6907 73.8929 63.8333 72.6836C63.2581 71.8756 63.2309 70.7802 62.8022 69.9071C62.7751 69.4462 62.5255 69.1696 62.0534 69.0774C61.8526 69.3323 61.6518 69.5817 61.4564 69.8366C61.1308 70.2487 60.8161 70.7531 60.3874 71.0785C59.9641 71.3984 59.4757 71.5177 58.9711 71.3062C58.1245 70.9483 58.1082 69.7607 57.3214 69.4028C55.6066 68.6273 58.7703 66.8052 58.5803 68.6815C58.5152 69.316 59.1393 70.4331 59.8502 70.0644C60.2897 69.8366 60.6967 69.0991 61.0332 68.7358C61.451 68.2802 61.9882 67.5861 62.71 67.8681C63.2309 68.0742 63.3395 68.7032 63.5131 69.1642C63.7627 69.8366 64.0395 70.5036 64.3054 71.1652C64.3434 71.7617 64.6527 72.06 65.2388 72.0654C65.4558 71.7997 65.6566 71.5231 65.8357 71.2303C66.5575 70.1783 67.518 67.8247 69.1839 68.1013C69.8677 68.2152 70.1824 68.7141 70.4537 69.2997C71.0073 70.4928 71.322 71.8593 71.7344 73.1066C71.8918 73.5892 71.1158 73.8007 70.953 73.3127Z" fill="white"/>
<path d="M100.621 7.16992H138.689C141.923 7.16992 144.685 9.50176 145.228 12.6904L148.516 32.0176C149.206 36.0631 146.085 39.7615 141.977 39.7615H141.782L145.591 45.3037L135.943 39.7615H103.91C100.675 39.7615 97.9077 37.4296 97.3705 34.241L94.0819 14.9138C93.3927 10.8629 96.5131 7.16992 100.621 7.16992Z" fill="#8434DC"/>
<path d="M139.665 13.9265C132.746 14.2844 125.811 14.42 118.881 14.6044C115.463 14.6966 112.044 14.7888 108.625 14.881C105.147 14.9732 101.571 15.3094 98.0975 15.0816C97.7502 15.0599 97.761 14.5881 98.0975 14.5502C101.467 14.1435 104.962 14.279 108.354 14.1868C111.865 14.0892 115.37 13.9916 118.881 13.894C125.806 13.7042 132.736 13.4602 139.665 13.4385C139.98 13.4385 139.975 13.9103 139.665 13.9265Z" fill="white"/>
<path d="M141.418 18.8611C134.754 19.1811 128.09 19.3871 121.421 19.4685C118.176 19.5064 114.931 19.5173 111.686 19.501C108.278 19.4793 104.81 19.5824 101.413 19.2841C101.028 19.2516 101.017 18.6876 101.413 18.6713C104.734 18.5358 108.088 18.7364 111.414 18.7581C114.746 18.7798 118.084 18.7689 121.416 18.7256C128.085 18.6442 134.749 18.4381 141.413 18.1128C141.901 18.0911 141.901 18.8394 141.418 18.8611Z" fill="white"/>
<path d="M142.477 23.3187C129.54 24.3219 116.5 24.4249 103.535 23.9694C103.063 23.9531 103.058 23.2156 103.535 23.2319C116.532 23.7091 129.491 23.4651 142.477 22.8469C142.781 22.836 142.775 23.297 142.477 23.3187Z" fill="white"/>
<path d="M143.513 28.1286C134.619 28.9095 125.562 29.4084 116.635 29.0884C116.233 29.0722 116.233 28.4702 116.635 28.4648C125.605 28.3184 134.548 28.2641 143.513 27.7815C143.735 27.7707 143.73 28.1069 143.513 28.1286Z" fill="white"/>
<path d="M236.085 17.9883H288.192C292.62 17.9883 296.402 21.1824 297.146 25.5424L301.644 52.0006C302.589 57.5428 298.312 62.5969 292.69 62.5969H248.648L240.964 72.2714L240.654 62.5969H240.584C236.156 62.5969 232.373 59.4029 231.63 55.0429L227.131 28.5846C226.187 23.0424 230.463 17.9883 236.085 17.9883Z" fill="#FF6652"/>
<path d="M269.704 27.7612C263.528 28.027 257.347 28.1354 251.166 28.2818C248.122 28.3523 245.078 28.4228 242.033 28.4933C238.913 28.5638 235.744 28.8078 232.629 28.6506C232.374 28.6397 232.379 28.2818 232.629 28.2547C235.646 27.9619 238.734 28.0486 241.762 27.9781C244.898 27.9022 248.03 27.8263 251.166 27.7558C257.342 27.6094 263.523 27.425 269.704 27.4033C269.931 27.4033 269.931 27.7504 269.704 27.7612Z" fill="white"/>
<path d="M271.347 34.4629C265.411 34.7937 259.463 34.9673 253.515 34.9673C247.611 34.9673 241.539 35.0866 235.662 34.4304C235.38 34.3979 235.363 33.9803 235.662 33.9803C241.609 33.964 247.562 34.425 253.515 34.4196C259.463 34.4141 265.411 34.2406 271.347 33.9098C271.7 33.8881 271.7 34.4412 271.347 34.4629Z" fill="white"/>
<path d="M293.374 39.9894C275.656 41.2746 257.819 41.459 240.074 40.8191C239.64 40.8028 239.64 40.1304 240.074 40.1467C257.857 40.7866 275.607 40.4992 293.374 39.561C293.656 39.5447 293.651 39.9677 293.374 39.9894Z" fill="white"/>
<path d="M294.796 46.6C282.608 47.6032 270.235 48.2485 258.003 47.8527C257.64 47.8418 257.634 47.2887 258.003 47.2832C270.289 47.126 282.526 47.0175 294.796 46.2854C294.996 46.2746 294.996 46.5837 294.796 46.6Z" fill="white"/>
<path d="M291.534 25.0595C291.903 27.6082 292.446 30.2383 292.62 32.8088C292.723 34.3489 291.99 35.0918 290.492 35.3413C287.909 35.7805 285.223 35.8673 282.613 36.1005C281.05 36.2415 278.201 36.8814 276.91 35.5907C276.28 34.9617 276.437 34.0018 276.481 33.1992C276.541 32.055 276.671 30.9162 276.671 29.772C276.671 28.3349 276.253 27.1581 275.933 25.7916C275.786 25.1679 275.754 24.5443 276.177 24.0074C277.197 22.7168 279.753 23.1886 281.159 23.194C284.018 23.2048 286.878 23.2808 289.733 23.335C290.623 23.3513 290.585 24.7938 289.733 24.6907C286.026 24.2569 282.211 23.9857 278.478 24.1647C277.658 24.2027 276.817 24.1539 276.834 25.5421C276.839 25.8621 277.078 26.2525 277.165 26.5562C277.382 27.2883 277.485 28.0421 277.517 28.8067C277.555 29.6201 277.496 30.4336 277.425 31.2416C277.355 32.0821 277.078 33.1016 277.192 33.9367C277.392 35.4226 278.586 35.5853 279.851 35.5473C280.773 35.5202 281.69 35.4063 282.613 35.3304C284.491 35.1732 286.368 35.0322 288.246 34.8803C289.011 34.8207 290.471 34.9834 291.149 34.5929C291.648 34.3055 292.066 33.3511 292.099 32.8088C292.131 32.2773 291.914 31.4748 291.838 30.927C291.578 29.0182 291.252 27.1202 290.975 25.2167C290.921 24.848 291.48 24.6907 291.534 25.0595Z" fill="white"/>
<path d="M286.119 31.106C285.885 29.8587 285.777 28.5898 285.63 27.3317C285.695 27.4455 285.761 27.5594 285.826 27.6787C285.598 27.5269 283.389 30.1841 283.14 30.4661C283.074 30.2166 283.009 29.9672 282.944 29.7177C283.905 30.1082 284.871 30.4823 285.826 30.8836C286.358 31.106 286.135 31.9899 285.582 31.7676C284.616 31.3825 283.666 30.9758 282.705 30.58C282.391 30.4498 282.266 30.1027 282.51 29.8316C283.123 29.1429 283.742 28.4705 284.399 27.8251C284.768 27.4618 285.326 26.708 285.945 26.8382C286.547 26.9683 286.461 27.6245 286.509 28.1017C286.607 29.0724 286.721 30.0485 286.754 31.0246C286.754 31.3717 286.184 31.4639 286.119 31.106Z" fill="white"/>
<path d="M62.0908 133.76C61.3925 133.76 60.8264 133.195 60.8264 132.497C60.8264 131.799 61.3925 131.233 62.0908 131.233C62.7891 131.233 63.3552 131.799 63.3552 132.497C63.3552 133.195 62.7891 133.76 62.0908 133.76Z" fill="#2D2442"/>
<path d="M58.0864 133.76C57.3881 133.76 56.822 133.195 56.822 132.497C56.822 131.799 57.3881 131.233 58.0864 131.233C58.7847 131.233 59.3508 131.799 59.3508 132.497C59.3508 133.195 58.7847 133.76 58.0864 133.76Z" fill="#2D2442"/>
<path d="M54.0867 133.76C53.3884 133.76 52.8223 133.195 52.8223 132.497C52.8223 131.799 53.3884 131.233 54.0867 131.233C54.785 131.233 55.3511 131.799 55.3511 132.497C55.3511 133.195 54.785 133.76 54.0867 133.76Z" fill="#2D2442"/>
<path d="M57.2068 38.6814C56.5085 38.6814 55.9424 38.1157 55.9424 37.4178C55.9424 36.72 56.5085 36.1543 57.2068 36.1543C57.9051 36.1543 58.4712 36.72 58.4712 37.4178C58.4712 38.1157 57.9051 38.6814 57.2068 38.6814Z" fill="#2D2442"/>
<path d="M53.2024 38.6814C52.5041 38.6814 51.938 38.1157 51.938 37.4178C51.938 36.72 52.5041 36.1543 53.2024 36.1543C53.9007 36.1543 54.4668 36.72 54.4668 37.4178C54.4668 38.1157 53.9007 38.6814 53.2024 38.6814Z" fill="#2D2442"/>
<path d="M49.2026 38.6814C48.5043 38.6814 47.9383 38.1157 47.9383 37.4178C47.9383 36.72 48.5043 36.1543 49.2026 36.1543C49.9009 36.1543 50.467 36.72 50.467 37.4178C50.467 38.1157 49.9009 38.6814 49.2026 38.6814Z" fill="#2D2442"/>
<path d="M284.376 87.1237C283.678 87.1237 283.112 86.558 283.112 85.8602C283.112 85.1624 283.678 84.5967 284.376 84.5967C285.075 84.5967 285.641 85.1624 285.641 85.8602C285.641 86.558 285.075 87.1237 284.376 87.1237Z" fill="#2D2442"/>
<path d="M280.377 87.1237C279.678 87.1237 279.112 86.558 279.112 85.8602C279.112 85.1624 279.678 84.5967 280.377 84.5967C281.075 84.5967 281.641 85.1624 281.641 85.8602C281.641 86.558 281.075 87.1237 280.377 87.1237Z" fill="#2D2442"/>
<path d="M276.372 87.1237C275.674 87.1237 275.108 86.558 275.108 85.8602C275.108 85.1624 275.674 84.5967 276.372 84.5967C277.071 84.5967 277.637 85.1624 277.637 85.8602C277.637 86.558 277.071 87.1237 276.372 87.1237Z" fill="#2D2442"/>
</g>
<defs>
<clipPath id="clip0_28_5641">
<rect width="318" height="218" fill="white" transform="matrix(-1 0 0 1 318 0)"/>
</clipPath>
</defs>
</svg>
