<svg width="332" height="336" viewBox="0 0 332 336" fill="none" xmlns="http://www.w3.org/2000/svg">
<path d="M318.057 297.494C316.604 296.678 314.786 296.02 312.857 295.582C308.499 294.596 303.642 294.523 298.906 294.462C257.869 293.963 217.114 293.78 176.066 293.78C143.745 293.525 111.436 293.257 79.1144 293.099C63.9181 293.026 48.6851 292.965 33.5376 293.671C27.2638 293.963 20.7336 294.438 15.5461 296.374C10.3586 298.309 7.06308 302.132 9.69952 305.224C14.0815 310.337 28.765 310.045 37.2481 310.057C102.659 310.154 168.083 309.96 233.494 309.753C255.392 309.68 277.289 309.619 299.15 308.986C304.044 308.84 309.098 308.657 313.492 307.476C317.898 306.307 321.548 303.897 321.279 301.255C321.145 299.819 319.888 298.528 318.057 297.494Z" fill="#D9E0FC"/>
<path d="M320.266 184.251C319.155 184.495 317.886 184.629 316.458 184.629C267.366 184.629 218.286 184.629 169.194 184.617C144.648 184.617 120.102 184.617 95.5677 184.604C84.143 184.604 38.3221 190.911 33.3543 179.65C32.3046 177.276 32.3046 174.658 32.3046 172.102C32.3046 123.905 32.4389 75.7088 32.4389 27.5122C32.4389 25.8079 32.4389 24.0914 32.4389 22.387C32.4389 18.7835 35.6613 15.8618 39.6282 15.8618C93.3096 15.8618 146.979 15.8618 200.66 15.8618C228.404 15.8618 256.148 15.8618 283.904 15.8618C295.586 15.8618 327.565 10.4322 327.565 25.6862C327.565 54.6722 327.553 83.6705 327.553 112.657C327.553 127.484 327.553 142.324 327.553 157.152C327.541 166.587 331.886 181.683 320.266 184.251Z" fill="#D9E0FC"/>
<path d="M303.702 174.452C299.223 177.52 290.935 175.779 284.039 175.779C270.454 175.779 256.881 175.779 243.295 175.779C206.544 175.779 169.804 175.779 133.052 175.779C96.0193 175.779 58.9988 175.779 21.9662 175.779C20.7212 175.779 19.7202 174.781 19.7202 173.539C19.708 144.821 19.5371 116.09 19.4761 87.3719C19.4395 73.0067 19.4395 58.6536 19.5005 44.2884C19.5372 34.8901 15.6923 14.2432 22.0272 6.89015C23.8092 4.83276 46.8051 7.3771 49.6735 7.3771C62.0137 7.35275 74.3538 7.3284 86.6817 7.30406C110.63 7.25536 134.578 7.20668 158.526 7.14581C190.7 7.14581 222.887 7.01188 255.062 6.93883C271.991 6.90231 303.483 6.99971 305.863 7.02406C308.926 7.06058 307.608 54.6119 307.633 58.1301C307.791 77.7423 307.694 97.3667 307.511 116.979C307.376 131.624 307.169 146.269 307.01 160.927C306.986 162.874 306.961 164.822 306.961 166.77C306.974 170.702 305.716 173.064 303.702 174.452Z" fill="#ff9500"/>
<path d="M297.782 159.893C288.97 159.662 280.133 159.832 271.32 159.832C262.495 159.832 253.67 159.844 244.858 159.844C227.208 159.856 209.57 159.869 191.921 159.881C156.817 159.905 121.7 159.917 86.5961 160.015C76.6972 160.039 66.7859 160.063 56.887 160.1C47.0002 160.124 37.0402 160.002 27.1778 160.696C26.6042 160.733 26.6042 161.536 27.1778 161.585C35.9783 162.206 44.8276 162.096 53.6403 162.169C62.4651 162.242 71.2899 162.218 80.1026 162.242C97.7523 162.291 115.39 162.303 133.04 162.328C168.144 162.376 203.26 162.401 238.364 162.425C248.263 162.437 258.174 162.437 268.073 162.449C277.972 162.462 287.883 162.656 297.782 162.401C299.406 162.364 299.418 159.929 297.782 159.893Z" fill="#5995ed"/>
<path d="M287.639 158.553C287.346 157.652 286.833 156.861 286.125 156.204C285.21 155.303 284.136 154.67 282.891 154.329C282.671 154.256 282.452 154.183 282.244 154.11C281.28 153.805 280.315 153.769 279.363 153.976C278.399 154.025 277.508 154.305 276.678 154.828C276.19 155.205 275.702 155.583 275.213 155.96C274.505 156.618 274.005 157.385 273.724 158.285C273.395 158.845 273.236 159.454 273.236 160.111C273.016 161.073 273.065 162.023 273.37 162.985C273.614 163.557 273.859 164.129 274.103 164.713C274.75 165.797 275.616 166.661 276.703 167.306C276.898 167.44 277.081 167.574 277.276 167.708C278.424 168.365 279.656 168.706 280.975 168.706C281.622 168.621 282.268 168.536 282.928 168.451C284.173 168.098 285.247 167.477 286.162 166.576C286.882 165.918 287.383 165.127 287.676 164.226C288.139 163.35 288.347 162.412 288.31 161.414C288.31 160.367 288.103 159.43 287.639 158.553Z" fill="#5995ed"/>
<path d="M250.387 222.295L49.8812 219.337L50.6745 12.3926L249.801 13.9265L250.387 222.295Z" fill="white" stroke="black" stroke-width="0.5" stroke-miterlimit="10"/>
<path d="M94.8355 175.657C94.2374 183.278 93.6393 190.887 93.0412 198.508C92.9558 199.542 92.2234 200.419 91.1249 200.419C87.6096 200.431 84.1065 200.443 80.5912 200.468C77.4421 200.48 74.293 200.492 71.1438 200.504C70.3138 200.504 69.4472 200.516 68.7027 200.078C67.8849 199.591 67.4943 198.751 67.3844 197.85C67.2257 196.377 67.3967 194.819 67.4333 193.334C67.5553 187.052 67.7872 180.77 68.483 174.513C68.605 173.381 69.8744 173.125 70.4603 173.782C71.4856 173.466 72.7184 173.612 73.7315 173.612C75.0009 173.612 76.2581 173.624 77.5275 173.624C82.6295 173.649 87.7439 173.673 92.8459 173.673C93.859 173.673 94.9209 174.586 94.8355 175.657ZM89.3429 196.609C89.8067 190.29 90.2582 183.972 90.722 177.654C87.7316 177.666 84.729 177.69 81.7385 177.702C79.8832 177.715 78.028 177.727 76.1849 177.739C75.2328 177.751 74.2929 177.751 73.3409 177.751C72.9991 177.751 72.6574 177.751 72.3156 177.751C71.9495 178.056 71.4856 178.238 70.9974 178.262C71.095 180.296 71.156 182.341 71.1926 184.386C71.2415 187.32 71.1927 190.254 71.1561 193.188C71.1439 193.955 71.1316 194.722 71.1194 195.489C71.1072 195.89 71.1316 196.316 71.1316 196.743C71.2903 196.755 71.4368 196.767 71.5589 196.767L73.585 196.755C78.8335 196.706 84.0821 196.657 89.3429 196.609Z" fill="#5995ed"/>
<path d="M94.8355 131.222C94.2374 138.843 93.6393 146.451 93.0412 154.072C92.9558 155.107 92.2234 155.983 91.1249 155.983C87.6096 155.996 84.1065 156.008 80.5912 156.032C77.4421 156.044 74.293 156.057 71.1438 156.069C70.3138 156.069 69.4472 156.081 68.7027 155.643C67.8849 155.156 67.4943 154.316 67.3844 153.415C67.2257 151.942 67.3967 150.383 67.4333 148.898C67.5553 142.617 67.7872 136.335 68.483 130.077C68.605 128.945 69.8744 128.69 70.4603 129.347C71.4856 129.03 72.7184 129.177 73.7315 129.177C75.0009 129.177 76.2581 129.189 77.5275 129.189C82.6295 129.213 87.7439 129.237 92.8459 129.237C93.859 129.237 94.9209 130.15 94.8355 131.222ZM89.3429 152.173C89.8067 145.855 90.2582 139.537 90.722 133.218C87.7316 133.23 84.729 133.255 81.7385 133.267C79.8832 133.279 78.028 133.291 76.1849 133.303C75.2328 133.303 74.2929 133.316 73.3409 133.316C72.9991 133.316 72.6574 133.316 72.3156 133.316C71.9495 133.62 71.4856 133.803 70.9974 133.827C71.095 135.86 71.156 137.905 71.1926 139.95C71.2415 142.884 71.1927 145.818 71.1561 148.752C71.1439 149.519 71.1316 150.286 71.1194 151.053C71.1072 151.455 71.1316 151.881 71.1316 152.307C71.2903 152.319 71.4368 152.331 71.5589 152.331L73.585 152.319C78.8335 152.27 84.0821 152.222 89.3429 152.173Z" fill="#5995ed"/>
<path d="M94.8355 86.7872C94.2374 94.408 93.6393 102.017 93.0412 109.638C92.9558 110.672 92.2234 111.549 91.1249 111.549C87.6096 111.561 84.1065 111.573 80.5912 111.598C77.4421 111.61 74.293 111.622 71.1438 111.634C70.3138 111.634 69.4472 111.646 68.7027 111.208C67.8849 110.721 67.4943 109.881 67.3844 108.98C67.2257 107.507 67.3967 105.949 67.4333 104.464C67.5553 98.1819 67.7872 91.9002 68.483 85.6428C68.605 84.5106 69.8744 84.255 70.4603 84.9124C71.4856 84.5959 72.7184 84.7419 73.7315 84.7419C75.0009 84.7419 76.2581 84.7541 77.5275 84.7541C82.6295 84.7785 87.7439 84.8028 92.8459 84.8028C93.859 84.8028 94.9209 85.7159 94.8355 86.7872ZM89.3429 107.738C89.8067 101.42 90.2582 95.1019 90.722 88.7837C87.7316 88.7959 84.729 88.8202 81.7385 88.8324C79.8832 88.8446 78.028 88.8567 76.1849 88.8689C75.2328 88.8689 74.2929 88.8811 73.3409 88.8811C72.9991 88.8811 72.6574 88.8811 72.3156 88.8811C71.9495 89.1854 71.4856 89.368 70.9974 89.3924C71.095 91.4254 71.156 93.4706 71.1926 95.5159C71.2415 98.4498 71.1927 101.384 71.1561 104.318C71.1439 105.085 71.1316 105.852 71.1194 106.618C71.1072 107.02 71.1316 107.446 71.1316 107.872C71.2903 107.885 71.4368 107.897 71.5589 107.897L73.585 107.885C78.8335 107.836 84.0821 107.787 89.3429 107.738Z" fill="#5995ed"/>
<path d="M202.906 89.1122C196.498 88.9418 190.078 89.0757 183.67 89.0879C177.323 89.1 170.963 89.1 164.616 89.1122C151.788 89.1244 138.959 89.1852 126.143 89.2461C122.567 89.2583 118.991 89.2826 115.414 89.2948C111.789 89.307 108.115 89.234 104.502 89.4896C104.038 89.5261 104.038 90.1713 104.502 90.1957C107.688 90.4148 110.923 90.354 114.121 90.3783C117.331 90.4148 120.529 90.4148 123.739 90.427C130.086 90.4635 136.445 90.4879 142.792 90.5244C155.62 90.5852 168.449 90.5731 181.265 90.5974C188.479 90.6096 195.705 90.7679 202.906 90.5731C203.858 90.5609 203.858 89.1365 202.906 89.1122Z" fill="#969696"/>
<path d="M158.147 96.0394C144.294 95.8811 130.44 95.7472 116.586 95.7472C112.631 95.7472 108.665 95.7107 104.71 95.7715C103.953 95.7837 103.953 96.9402 104.71 96.9524C118.551 97.1715 132.417 96.9646 146.271 96.8794C150.226 96.855 154.193 96.7333 158.147 96.6846C158.562 96.6846 158.562 96.0515 158.147 96.0394Z" fill="#969696"/>
<path d="M200.684 103.404C188.198 103.173 175.699 103.355 163.212 103.38C150.726 103.404 138.227 103.416 125.74 103.44C118.685 103.453 111.643 103.465 104.588 103.586C104.014 103.599 104.014 104.463 104.588 104.475C117.074 104.706 129.573 104.633 142.06 104.646C154.546 104.67 167.045 104.682 179.532 104.706C186.587 104.719 193.629 104.78 200.684 104.646C201.49 104.646 201.49 103.416 200.684 103.404Z" fill="#969696"/>
<path d="M168.339 133.353C164.115 133.073 159.831 133.304 155.596 133.316C151.348 133.328 147.1 133.34 142.853 133.353C134.358 133.377 125.874 133.401 117.379 133.426C112.57 133.438 107.785 133.499 102.976 133.669C102.634 133.681 102.634 134.193 102.976 134.205C111.459 134.485 119.955 134.448 128.45 134.473C136.945 134.497 145.428 134.521 153.924 134.546C156.267 134.558 158.598 134.558 160.942 134.57C163.395 134.582 165.873 134.68 168.327 134.509C169.095 134.473 169.095 133.401 168.339 133.353Z" fill="#969696"/>
<path d="M194.057 143.128C182.217 142.787 170.353 142.921 158.513 142.897C146.784 142.873 135.066 142.86 123.336 142.824L113.339 142.8C110.019 142.787 106.663 142.641 103.343 142.897C102.537 142.958 102.537 144.09 103.343 144.151C106.297 144.382 109.275 144.26 112.229 144.26C115.195 144.248 118.149 144.248 121.115 144.236C127.034 144.224 132.966 144.212 138.886 144.2C150.616 144.175 162.334 144.163 174.064 144.139C180.728 144.127 187.393 144.127 194.057 143.932C194.57 143.907 194.57 143.14 194.057 143.128Z" fill="#969696"/>
<path d="M197.523 180.538C185.159 180.234 172.794 180.38 160.43 180.392C148.065 180.392 135.7 180.405 123.336 180.441C116.415 180.465 109.482 180.551 102.561 180.465C101.756 180.453 101.756 181.719 102.561 181.719C114.926 181.573 127.291 181.78 139.655 181.792C152.02 181.792 164.384 181.804 176.749 181.804C183.67 181.804 190.59 181.817 197.523 181.646C198.231 181.634 198.231 180.563 197.523 180.538Z" fill="#969696"/>
<path d="M122.555 187.063C116.012 187.063 109.482 187.197 102.952 187.258C102.488 187.258 102.488 187.964 102.952 187.964C109.482 188.025 116.024 188.159 122.555 188.159C123.275 188.171 123.275 187.063 122.555 187.063Z" fill="#969696"/>
<path d="M188.674 187.88C181.436 187.405 174.137 187.612 166.887 187.648C159.563 187.685 152.24 187.734 144.916 187.77C140.791 187.795 136.665 187.819 132.552 188.026C132.088 188.05 132.088 188.72 132.552 188.732C139.802 189.097 147.077 189 154.339 189.036C161.663 189.073 168.986 189.122 176.31 189.122C180.435 189.122 184.561 189.146 188.674 188.878C189.321 188.841 189.333 187.928 188.674 187.88Z" fill="#969696"/>
<path d="M160.613 195.049C153.375 194.672 146.076 194.952 138.838 194.976C131.648 195.001 124.435 194.976 117.245 195.232C113.132 195.378 108.994 195.329 104.881 195.341C104.466 195.341 104.466 195.987 104.881 195.987C119.345 196.06 133.797 196.328 148.261 196.388C152.386 196.401 156.512 196.498 160.625 196.279C161.406 196.242 161.406 195.098 160.613 195.049Z" fill="#969696"/>
<path d="M234.227 39.5159C227.245 38.9681 220.068 39.3942 213.062 39.3942C206.446 39.3942 199.83 39.4064 193.227 39.4064C179.776 39.4186 166.337 39.4185 152.887 39.4307C139.436 39.4429 125.997 39.4672 112.546 39.5281C98.9487 39.589 85.0951 39.0168 71.5465 40.1855C68.5805 40.4412 68.5683 44.4707 71.5465 44.7385C85.0951 45.9072 98.9487 45.3351 112.546 45.3959C125.997 45.4568 139.436 45.4812 152.887 45.4933C166.337 45.5055 179.776 45.5055 193.227 45.5177C199.843 45.5177 206.458 45.5299 213.062 45.5299C220.068 45.5299 227.233 45.9559 234.227 45.4081C238.071 45.0916 238.084 39.8203 234.227 39.5159Z" fill="black"/>
<path d="M201.673 56.4981C199.44 54.7329 197.67 55.0494 194.838 55.0494C192.202 55.0494 189.565 55.0494 186.929 55.0494L170.451 55.0616C159.246 55.0738 148.041 55.0737 136.836 55.0859L103.88 55.1103C98.1676 55.1103 92.4552 55.1711 86.7429 55.2442C82.007 55.3051 75.6599 54.392 71.3634 56.5468C70.2283 57.119 70.2283 58.9329 71.3634 59.5051C75.6721 61.672 81.9948 60.7468 86.7429 60.8077C92.2355 60.8807 97.7282 60.9294 103.221 60.9416C114.426 60.9537 125.631 60.9537 136.836 60.9659L169.792 60.9903C175.504 60.9903 181.216 61.0024 186.929 61.0024C189.565 61.0024 192.202 61.0024 194.838 61.0024C197.597 61.0024 199.464 61.2946 201.673 59.5537C202.54 58.8842 202.528 57.1798 201.673 56.4981Z" fill="black"/>
<path d="M150.751 149.762C148.834 149.227 147.308 147.096 146.527 145.331C145.697 143.444 145.856 140.973 147.443 139.658C148.456 138.818 149.86 138.599 151.178 138.733C155.267 139.183 158.416 142.848 159.539 146.804C160.662 150.748 160.186 154.961 159.71 159.039C159.356 162.021 159.002 165.004 158.648 167.987C157.964 173.781 158.733 179.844 158.733 185.688C158.733 186.418 158.758 187.173 159.112 187.806C159.771 188.974 161.26 189.303 162.59 189.51C168.974 190.533 175.541 191.762 182.034 191.531C187.246 191.348 190.224 189.802 194.972 193.479C197.572 195.487 199.562 198.616 199.232 201.879C199.049 203.632 198.219 205.275 197.096 206.651C192.666 212.044 184.756 212.774 177.762 212.604C169.511 212.397 161.272 211.521 153.155 209.987C144.916 208.416 139.167 204.301 138.471 195.597C137.812 187.355 140.388 179.126 142.634 171.298C144.721 164.018 148.798 157.31 150.665 150.091C150.702 149.957 150.726 149.86 150.751 149.762Z" fill="#FBC2AA"/>
<path d="M197.011 197.691C196.95 197.326 196.889 196.961 196.828 196.608C196.303 192.992 195.803 188.476 199.745 187.343C202.345 186.589 206.898 186.929 208.631 184.519C209.192 183.74 209.351 182.766 209.485 181.829C209.693 180.489 209.888 179.138 210.096 177.799C202.54 179.089 199.391 172.345 198.439 166.039C197.463 159.599 197.67 151.564 203.358 147.255C206.983 144.503 212.061 143.846 216.321 145.453C220.58 147.06 223.913 150.834 225.121 155.216C226.012 158.455 224.95 159.636 224.767 162.983C224.547 166.769 224.889 173.307 224.682 177.093C224.535 179.637 224.755 182.608 226.146 184.823C226.781 185.834 227.55 186.698 228.624 187.246C229.405 187.648 231.431 187.429 231.92 187.964C234.69 190.996 237.278 194.209 240.281 196.997C233.189 199.968 225.78 202.086 218.2 203.376C212.891 204.289 202.15 207.418 198.488 201.782C197.682 200.54 197.279 199.128 197.011 197.691Z" fill="#FBC2AA"/>
<path d="M259.822 215.526C259.065 206.189 254.867 196.62 246.335 191.946C243.198 190.229 239.744 189.194 236.277 188.379C234.495 187.952 232.689 187.587 230.906 187.186C228.905 186.735 228.502 187.21 227.135 188.707C224.315 191.824 219.86 193.212 215.674 192.773C213.025 192.506 210.474 191.544 208.204 190.18C205.738 188.695 204.871 186.869 201.747 187.039C192.287 187.575 182.84 188.427 173.429 189.596C174.125 197.777 174.674 209.366 176.383 217.389C181.363 216.89 192.372 215.794 192.36 217.304C192.348 219.605 192.397 221.918 192.47 224.219C192.629 228.711 192.91 233.203 193.093 237.695C193.288 242.467 193.642 247.239 194.069 251.987C194.557 257.405 195.387 262.725 196.596 267.984C208.899 272.074 222.936 271.076 236.131 269.883C239.89 269.542 243.796 269.165 247.055 267.253C256.209 261.872 256.6 245.949 257.906 236.685C258.919 229.551 260.408 222.843 259.822 215.526Z" fill="#ff9500"/>
<path d="M165.434 308.572C165.593 308.34 165.764 308.109 165.934 307.89C169.12 303.812 174.625 301.158 179.129 298.759C184.097 296.118 189.65 293.939 195.375 294.267C200.538 294.559 207.703 298.053 208.777 303.507C208.899 304.128 208.948 304.786 208.704 305.358C208.094 306.794 206.153 306.916 204.59 306.928C197.926 306.989 191.518 309.034 185.293 311.238C182.095 312.37 178.909 313.575 175.663 314.61C172.77 315.535 165.739 319.589 163.713 315.377C162.602 313.076 164.152 310.446 165.434 308.572Z" fill="black"/>
<path d="M136.543 253.813C139.24 250.843 143.073 248.919 147.003 248.177C152.52 247.142 158.22 248.14 163.64 249.638C175.113 252.791 185.867 258.099 197.389 261.057C202.503 262.372 205.836 261.885 210.828 261.483C217.163 260.972 223.668 261.592 230.04 261.215C235.996 260.862 242.441 260.399 248.019 262.043C248.751 261.556 249.484 261.081 250.216 260.594C256.441 256.516 262.654 252.462 270.466 253.947C276.605 255.116 282.537 258.22 286.333 263.26C290.373 268.617 289.165 275.617 285.54 280.961C282.537 285.38 278.107 288.643 273.517 291.382C257.686 300.853 240.39 306.66 221.703 305.37C219.201 305.199 216.259 305.163 214.453 307.172C213.782 307.926 213.379 312.053 211.877 311.871C210.022 311.652 206.458 311.14 204.713 310.507C195.265 307.111 185.83 303.702 176.383 300.305C168.083 297.311 159.734 294.304 152.178 289.763C145.636 285.843 139.716 280.535 136.25 273.657C133.748 268.702 131.697 262.177 134.309 257.027C134.919 255.846 135.664 254.775 136.543 253.813Z" fill="#5995ed"/>
<path d="M253.731 268.057C248.422 270.698 242.868 272.391 237.778 275.531C232.701 278.66 227.892 282.312 222.362 284.686C218.786 286.22 213.586 286.817 210.156 288.521" stroke="black" stroke-width="0.5" stroke-miterlimit="10"/>
<path d="M214.575 306.453C214.587 306.44 214.587 306.416 214.599 306.404C215.1 305.26 215.588 304.115 216.088 302.971C217.077 300.694 218.066 298.43 219.042 296.154C219.152 295.898 227.635 300.195 228.368 300.792C228.697 301.06 229.014 301.352 229.222 301.717C229.515 302.216 229.576 302.813 229.649 303.385C229.845 304.992 230.089 306.635 229.783 308.23C229.478 309.825 228.49 311.395 226.952 311.907C225.78 312.296 224.511 312.016 223.314 311.748C221.032 311.225 218.798 310.738 216.552 310.08C215.905 309.886 214.209 309.825 213.745 309.362C213.159 308.79 214.319 307.061 214.575 306.453Z" fill="#FBC2AA"/>
<path d="M224.022 297.895C224.645 297.98 225.292 298.004 225.963 297.944C227.33 297.834 228.673 297.445 230.04 297.469C232.762 297.518 233.946 299.636 235.081 301.778C237.083 305.565 240.696 308.328 243.625 311.371C247.299 315.182 249.423 318.773 248.825 324.227C248.617 326.151 247.836 328.354 245.968 328.878C244.247 329.364 242.551 328.159 241.172 327.027C237.424 323.959 233.665 320.904 229.918 317.836C228.209 316.436 226.463 314.573 224.523 313.526C223.29 312.869 221.886 312.382 220.605 311.737C221.984 307.184 223.143 302.57 224.022 297.895Z" fill="black"/>
<path d="M204.871 270.54C204.188 270.199 203.663 269.578 203.26 268.422C202.577 266.474 202.979 264.173 204.078 262.457C205.494 260.241 208.094 258.537 210.669 258.001C213.318 257.441 215.881 256.504 218.578 255.956C220.519 255.566 222.423 255.031 224.327 254.495C230.15 252.864 236.423 251.622 241.953 249.187C242.295 249.041 242.636 248.871 242.832 248.554C243.088 248.128 242.978 247.592 242.856 247.105C241.001 239.667 239.304 232.192 237.754 224.681C237.229 222.125 236.716 219.544 236.741 216.938C236.79 212.203 238.694 207.516 241.965 204.083C243.967 201.977 246.737 200.285 249.618 200.613C251.986 200.893 254.024 202.525 255.367 204.509C256.71 206.493 257.43 208.794 258.15 211.058C260.567 218.716 263.374 226.471 264.46 234.432C264.741 236.514 264.729 238.62 264.717 240.714C264.68 246.74 264.521 253.144 261.201 258.172C250.265 274.679 224.901 272.646 207.898 271.064C206.629 270.978 205.652 270.93 204.871 270.54Z" fill="#FBC2AA"/>
<path d="M209.68 142.312C206.604 142.775 203.65 144.016 201.173 146.037C198.414 148.289 197.547 150.676 196.974 154.206C196.937 154.437 196.913 154.693 197.047 154.888C197.194 155.095 197.486 155.143 197.743 155.18C202.137 155.703 206.555 156.081 210.986 156.312C211.474 156.336 211.975 156.361 212.426 156.178C213.549 155.728 213.989 154.206 215.136 153.816C215.295 155.29 215.185 156.799 214.831 158.236C214.672 158.869 214.465 159.538 214.672 160.159C215.087 161.413 216.564 161.389 217.516 161.961C218.7 162.667 219.848 164.103 220.299 165.394C220.897 167.098 221.166 168.961 222.216 170.47C222.484 170.86 222.801 171.213 223.107 171.566C223.68 172.223 224.242 172.881 224.815 173.538C225.169 173.27 225.34 172.844 225.487 172.443C226.683 169.229 227.952 166.039 228.709 162.703C229.393 159.709 229.368 156.519 228.587 153.549C228.245 152.21 227.623 150.858 227 149.629C226.659 148.947 226.207 148.229 225.767 147.596C225.633 147.401 224.315 145.684 224.083 145.83C224.376 145.636 224.742 145.27 224.608 144.881C224.449 144.418 223.375 144.747 223.082 144.905C223.253 144.637 223.497 144.406 223.668 144.138C223.839 143.87 223.949 143.517 223.815 143.225C223.729 143.043 223.558 142.909 223.375 142.811C222.899 142.58 222.325 142.641 221.874 142.896C221.398 143.164 220.995 143.651 220.885 144.175C217.272 142.592 213.671 141.716 209.68 142.312Z" fill="black"/>
<path d="M162.26 258.877C172.892 263.673 181.448 272 191.115 278.501C200.147 284.564 210.156 289.02 220.104 293.451C219.579 294.583 219.372 295.715 218.859 296.847" stroke="black" stroke-width="0.5" stroke-miterlimit="10"/>
<path d="M207.667 168.389C207.032 170.458 204.493 171.712 202.467 170.97" stroke="#1C1C1B" stroke-width="0.5" stroke-miterlimit="10"/>
<path d="M218.395 167.78C222.313 168.754 224.755 164.639 223.558 161.948C221.898 158.211 216.65 158.832 215.686 162.764" fill="#FBC2AA"/>
<path d="M220.397 161.644C219.665 161.437 218.81 161.559 218.188 161.961C217.565 162.362 217.211 163.02 217.236 163.665" stroke="#1C1C1B" stroke-width="0.5" stroke-miterlimit="10"/>
<path d="M249.569 195.987C242.417 196.742 235.862 201.697 233.213 208.381C230.467 215.32 231.834 223.111 233.238 230.44C237.852 230.306 241.928 230.622 246.518 229.721C252.474 228.553 258.26 226.714 263.862 224.45C262.202 213.847 259.126 203.681 251.534 196.036C250.802 195.281 250.619 195.878 249.569 195.987Z" fill="#ff9500"/>
<path d="M168.925 127.411C162.993 130.004 157.623 133.352 152.533 137.345C150.067 139.281 147.736 141.46 145.539 143.688C144.367 144.881 143.256 146.147 142.158 147.401C141.926 146.707 141.694 146.025 141.462 145.343C140.717 143.128 139.875 140.973 138.948 138.83C138.081 136.797 137.129 134.801 136.104 132.841C135.03 130.783 133.992 128.032 131.795 126.997C130.281 126.279 128.927 127.18 128.719 128.763C128.414 131.1 130.269 133.267 131.319 135.239C132.356 137.199 133.321 139.183 134.2 141.217C135.005 143.055 135.75 144.99 136.421 146.914C137.153 148.996 137.666 151.175 138.435 153.232C139.192 155.253 141.828 155.752 143.061 153.829C144.66 151.321 146.906 149.044 148.944 146.877C151.031 144.662 153.216 142.568 155.45 140.498C159.954 136.323 164.751 132.403 169.719 128.787C170.561 128.178 169.865 126.997 168.925 127.411Z" fill="#5995ed"/>
<path d="M238.156 276.371H177.896C177.017 276.371 176.297 275.653 176.297 274.776C176.297 273.9 177.017 273.182 177.896 273.182H238.156C239.035 273.182 239.755 273.9 239.755 274.776C239.755 275.653 239.035 276.371 238.156 276.371Z" fill="black"/>
<path d="M229.222 274.204H176.48L165.531 247.227C165.177 246.35 165.824 245.389 166.776 245.389H216.625C217.174 245.389 217.663 245.717 217.87 246.229L229.222 274.204Z" fill="black"/>
<path d="M191.823 259.815C192.384 261.275 194.276 262.456 196.046 262.456C197.816 262.456 198.804 261.275 198.243 259.815C197.681 258.354 195.79 257.173 194.02 257.173C192.25 257.173 191.261 258.354 191.823 259.815Z" stroke="white" stroke-width="0.5" stroke-miterlimit="10"/>
<path d="M209.705 177.641C209.803 178.651 209.717 179.662 209.62 180.66C209.681 180.648 209.754 180.623 209.815 180.611C211.89 179.966 213.599 178.286 214.478 176.302C213.025 177.105 211.377 177.556 209.705 177.641Z" fill="black"/>
<path d="M150.848 149.921C148.565 148.362 146.258 146.792 144.415 144.747C144.037 144.333 143.683 143.87 143.585 143.322C143.488 142.774 143.768 142.129 144.305 141.983C144.904 141.825 145.453 142.324 145.917 142.75C147.662 144.369 149.969 145.404 152.349 145.623" fill="white"/>
<path d="M150.848 149.921C148.565 148.362 146.258 146.792 144.415 144.747C144.037 144.333 143.683 143.87 143.585 143.322C143.488 142.774 143.768 142.129 144.305 141.983C144.904 141.825 145.453 142.324 145.917 142.75C147.662 144.369 149.969 145.404 152.349 145.623" stroke="#1C1C1B" stroke-width="0.5" stroke-miterlimit="10"/>
<path d="M230.479 318.907C230.577 318.846 230.674 318.773 230.772 318.7C230.882 318.615 231.004 318.566 231.126 318.505C231.37 318.395 231.602 318.286 231.846 318.188C231.748 318.237 231.638 318.274 231.541 318.322C231.992 318.128 232.432 317.884 232.822 317.592C232.92 317.519 233.006 317.446 233.103 317.361C233.262 317.215 233.421 317.081 233.64 317.02C234.031 316.898 234.519 317.093 234.727 317.446C234.91 317.762 234.897 318.115 234.739 318.432C234.702 318.505 234.653 318.566 234.617 318.639C234.531 318.773 234.446 318.907 234.348 319.028C234.104 319.357 233.848 319.674 233.555 319.954C233.262 320.246 232.945 320.514 232.591 320.721C232.371 320.855 232.139 321.001 231.883 321.049C231.626 321.11 231.358 321.134 231.101 321.159C230.992 321.147 230.882 321.134 230.784 321.11C230.625 321.074 230.491 321.001 230.369 320.891C230.174 320.733 229.991 320.514 229.93 320.258C229.795 319.722 230.015 319.211 230.479 318.907Z" fill="#ff9500"/>
<path d="M227.562 315.56C227.623 315.353 227.733 315.17 227.879 315.012C228.148 314.708 228.428 314.403 228.697 314.087C228.819 313.953 228.953 313.868 229.124 313.819C229.283 313.734 229.454 313.697 229.637 313.709C229.82 313.697 229.991 313.746 230.15 313.819C230.308 313.868 230.455 313.965 230.577 314.087C230.65 314.172 230.711 314.269 230.784 314.355C230.906 314.561 230.967 314.781 230.967 315.012C230.955 315.134 230.931 315.243 230.918 315.365C230.857 315.584 230.748 315.779 230.577 315.949C230.272 316.229 229.966 316.497 229.649 316.765C229.539 316.887 229.405 316.972 229.246 317.021C229.1 317.094 228.941 317.13 228.77 317.13C228.599 317.142 228.441 317.106 228.294 317.021C228.136 316.972 228.001 316.887 227.891 316.765C227.83 316.68 227.757 316.595 227.696 316.509C227.586 316.315 227.525 316.108 227.525 315.876C227.525 315.779 227.537 315.669 227.562 315.56Z" fill="#ff9500"/>
<path d="M223.949 312.382C224.144 312.09 224.34 311.798 224.535 311.506C224.608 311.372 224.718 311.25 224.84 311.177C224.95 311.067 225.096 311.006 225.243 310.958C225.401 310.909 225.56 310.897 225.719 310.933C225.878 310.946 226.024 310.982 226.158 311.079C226.244 311.14 226.317 311.201 226.402 311.262C226.549 311.408 226.659 311.591 226.708 311.786C226.72 311.895 226.732 311.992 226.756 312.102C226.756 312.321 226.695 312.516 226.598 312.699C226.402 312.991 226.207 313.283 226.012 313.575C225.939 313.709 225.829 313.831 225.707 313.904C225.597 314.013 225.45 314.074 225.304 314.123C225.145 314.172 224.986 314.184 224.828 314.147C224.669 314.135 224.523 314.099 224.388 314.001C224.303 313.94 224.23 313.879 224.144 313.819C223.998 313.672 223.888 313.49 223.839 313.295C223.827 313.186 223.815 313.088 223.803 312.979C223.778 312.772 223.839 312.565 223.949 312.382Z" fill="#ff9500"/>
<path d="M181.485 309.569C181.558 309.314 181.753 309.046 181.985 308.924C182.241 308.79 182.547 308.73 182.827 308.815C182.913 308.851 182.998 308.888 183.084 308.924C183.242 309.022 183.377 309.156 183.474 309.314C183.657 309.557 183.853 309.801 184.036 310.044C184.133 310.166 184.243 310.276 184.341 310.385C184.39 310.434 184.438 310.483 184.475 310.531C184.561 310.616 184.646 310.714 184.707 310.823C184.768 310.921 184.817 311.055 184.853 311.164C184.939 311.432 185.012 311.7 185.098 311.968C185.195 312.296 185.061 312.649 184.792 312.856C184.536 313.051 184.145 313.1 183.853 312.917C183.657 312.796 183.474 312.674 183.279 312.552C183.23 312.516 183.181 312.491 183.132 312.455C182.937 312.321 182.778 312.175 182.656 311.968C182.583 311.858 182.522 311.749 182.449 311.639C182.193 311.213 181.875 310.823 181.582 310.422C181.436 310.19 181.424 309.813 181.485 309.569Z" fill="#ff9500"/>
<path d="M186.148 307.975C186.221 307.719 186.416 307.451 186.648 307.329C187.026 307.122 187.502 306.964 187.771 307.378C188.198 308.048 188.625 308.717 189.065 309.387C189.407 309.922 189.76 310.543 189.553 311.14C189.492 311.335 189.358 311.517 189.162 311.615C188.894 311.736 188.577 311.651 188.308 311.505C187.844 311.249 187.588 310.799 187.307 310.361C187.234 310.251 187.173 310.142 187.1 310.032C186.843 309.606 186.526 309.216 186.233 308.815C186.099 308.595 186.074 308.218 186.148 307.975Z" fill="#ff9500"/>
<path d="M177.201 311.395C177.25 311.237 177.347 311.091 177.469 310.982C177.713 310.75 178.043 310.592 178.385 310.604C178.714 310.616 179.08 310.726 179.3 310.982C179.788 311.566 180.277 312.138 180.753 312.722C180.875 312.844 180.972 312.978 181.021 313.136C181.107 313.295 181.143 313.453 181.131 313.635C181.143 313.818 181.094 313.976 181.021 314.135C180.972 314.293 180.875 314.439 180.753 314.549C180.509 314.78 180.179 314.938 179.837 314.926C179.508 314.914 179.141 314.804 178.922 314.549C178.434 313.964 177.945 313.392 177.469 312.808C177.347 312.686 177.25 312.552 177.201 312.394C177.115 312.235 177.079 312.077 177.091 311.895C177.079 311.712 177.115 311.554 177.201 311.395Z" fill="#ff9500"/>
<path d="M284.295 269.066C283.734 270.186 284.027 271.586 283.49 272.719C283.099 273.559 282.318 274.143 281.781 274.91C280.951 276.103 280.817 277.783 281.61 279C282.391 280.218 284.112 280.79 285.418 280.145C286.456 279.633 287.054 278.514 287.469 277.43C288.323 275.19 289.226 271.684 288.494 269.298C287.884 267.362 285.345 266.948 284.295 269.066Z" fill="black"/>
<path d="M134.663 260.727C135.603 259.973 136.994 259.79 138.081 260.35C139.155 260.91 139.826 262.188 139.594 263.369C139.472 264.014 139.106 264.623 139.082 265.28C139.045 266.12 139.558 266.887 139.826 267.691C140.229 268.884 140.058 270.296 139.216 271.221C138.374 272.159 136.848 272.463 135.798 271.781C134.687 271.051 134.407 269.578 134.199 268.263C133.833 265.901 132.38 262.553 134.663 260.727Z" fill="black"/>
<path d="M194.435 214.59C194.326 214.48 194.106 214.456 193.996 214.59C193.703 214.955 193.386 215.32 193.117 215.697C192.983 215.88 192.849 216.063 192.714 216.245C192.58 216.428 192.421 216.61 192.299 216.817C192.153 217.061 192.483 217.304 192.69 217.11C192.849 216.951 192.995 216.769 193.142 216.598C193.288 216.428 193.435 216.257 193.581 216.087C193.886 215.746 194.155 215.381 194.435 215.028C194.533 214.894 194.557 214.723 194.435 214.59Z" fill="black"/>
<path d="M240.183 230.208C239.255 230.221 238.352 230.403 237.485 230.72C237.217 228.881 236.948 227.055 236.668 225.217C236.375 223.281 236.021 221.346 235.752 219.398C235.74 219.301 235.569 219.325 235.581 219.422C235.801 221.407 235.935 223.391 236.167 225.375C236.399 227.323 236.655 229.271 236.924 231.219C236.948 231.377 237.168 231.487 237.302 231.438C238.218 231.061 239.17 230.866 240.171 230.841C240.598 230.829 240.598 230.208 240.183 230.208Z" fill="black"/>
<path d="M107.212 292.722C105.467 295.96 101.756 297.53 98.3506 298.322C97.3253 298.565 96.2878 298.748 95.2503 298.942C94.4325 299.089 93.5659 299.186 92.7847 299.49C91.0026 300.172 92.9556 301.268 93.8588 301.669C94.3959 301.913 94.5302 302.692 94.2494 303.167C93.9199 303.702 93.2974 303.8 92.7481 303.556C92.0036 303.216 91.1858 302.716 90.6121 302.071L89.4525 305.967H71.9493L70.5822 281.278L96.9714 280.84L96.2756 283.165C99.1928 282.325 102.781 282.009 105.393 283.762C108.347 285.758 108.835 289.69 107.212 292.722ZM104.209 285.758C101.78 284.054 98.2285 284.699 95.6165 285.551C95.5921 285.563 95.5677 285.576 95.5432 285.576L91.9914 297.445C92.6017 297.214 93.273 297.056 93.871 296.934C97.2887 296.24 101.158 295.753 103.807 293.245C105.796 291.37 106.87 287.633 104.209 285.758Z" fill="#5995ed"/>
<path d="M91.9058 286.951C91.3566 288.875 90.8073 290.786 90.3313 292.721C90.2337 293.111 90.8073 293.257 90.9294 292.88C91.5519 290.981 92.1011 289.057 92.6504 287.146C92.7846 286.683 92.0401 286.488 91.9058 286.951Z" fill="black"/>
<path d="M89.428 296.204C89.1472 297.165 88.8665 298.115 88.5857 299.077C88.305 300.038 88.0975 301.012 87.8534 301.974C87.7558 302.376 88.3417 302.534 88.4637 302.144C88.7689 301.195 89.1106 300.245 89.3792 299.296L90.1848 296.411C90.3191 295.924 89.5622 295.717 89.428 296.204Z" fill="black"/>
<path d="M88.4152 293.44C88.3175 293.415 88.1832 293.464 88.1588 293.586C88.0856 294 88.0246 294.414 87.9513 294.815C87.9391 294.925 87.9758 295.047 88.0978 295.071C88.1955 295.095 88.3298 295.047 88.3542 294.925C88.4274 294.511 88.4884 294.097 88.5616 293.695C88.5739 293.586 88.525 293.464 88.4152 293.44Z" fill="black"/>
<path d="M260.628 251.646C260.469 253.911 259.42 256.017 257.869 257.648C257.686 257.843 257.967 258.111 258.162 257.94C259.932 256.346 260.909 254.02 260.982 251.646C260.982 251.415 260.64 251.427 260.628 251.646Z" fill="black"/>
<path d="M145.831 201.916C144.891 201.49 143.951 201.051 143.012 200.637C142.816 200.552 142.633 200.844 142.841 200.93C143.781 201.368 144.72 201.782 145.66 202.208C145.856 202.293 146.039 202.001 145.831 201.916Z" fill="black"/>
<path d="M83.8868 230.123C81.4334 233.215 78.4429 235.845 75.7942 238.766C72.9869 241.859 70.8265 245.474 68.0191 248.566C65.5779 251.269 62.6607 253.545 59.4628 255.286C57.2047 256.516 51.944 259.474 49.2587 258.817C44.0589 257.526 47.9527 248.798 49.5882 245.925C51.5412 242.479 54.2875 239.497 57.1925 236.831C60.2317 234.055 63.5273 231.584 66.7985 229.1C70.4725 226.3 74.1343 223.512 77.8082 220.712C78.6993 220.043 79.5659 219.337 80.4813 218.692C81.2381 218.156 82.0681 217.718 82.9957 217.608C84.5947 217.438 86.0472 218.485 86.8162 219.824C88.8302 223.342 86.035 227.42 83.8868 230.123Z" fill="#5995ed"/>
<path d="M28.2523 235.711C28.9969 231.718 30.6203 227.944 31.5479 223.999C32.7807 218.765 32.7807 213.323 33.745 208.04C34.7092 202.756 36.8819 197.339 41.276 194.246C42.4966 193.394 43.8881 192.725 45.365 192.615C48.0381 192.408 50.5891 194.064 52.1026 196.279C53.604 198.483 54.2264 201.173 54.5926 203.827C56.0451 214.26 53.9946 225.156 48.8315 234.347C47.2203 237.22 45.3161 239.923 43.9125 242.893C42.045 246.826 41.0685 251.16 40.8732 255.506C40.7878 257.393 40.8244 259.365 39.9944 261.069C39.201 262.725 36.296 265.245 34.2942 264.186C32.5122 263.236 31.2794 257.648 30.6447 255.846C28.411 249.419 26.9829 242.504 28.2523 235.711Z" fill="#5995ed"/>
<path d="M10.7492 235.637C10.3831 233.689 10.0779 231.449 11.3595 229.94C13.1294 227.846 16.6935 228.71 18.6098 230.67C20.8191 232.922 21.7345 236.148 22.0152 239.289C22.296 242.43 22.0397 245.595 22.2838 248.724C22.6622 253.533 24.2245 258.147 25.2376 262.858C26.1653 267.143 24.4076 270.065 21.2219 265.828C19.0615 262.968 17.4381 259.656 16.1076 256.345C13.459 249.698 12.0797 242.625 10.7492 235.637Z" fill="#5995ed"/>
<path d="M70.4848 232.656C69.5205 234.409 68.4342 236.052 67.1404 237.574C65.8466 239.083 64.4184 240.483 62.9537 241.835C60.0121 244.537 56.8386 246.996 54.0434 249.857C52.7008 251.233 51.4436 252.694 50.3694 254.289C49.1122 256.151 48.1846 258.184 47.4766 260.315C46.6344 262.835 45.9998 265.428 45.304 267.996C44.5717 270.675 43.8393 273.365 43.107 276.043C42.3136 278.965 41.5202 281.875 40.8855 284.833C40.5804 286.269 40.3118 287.718 40.0921 289.179C39.9944 289.861 39.9212 290.555 39.848 291.249C39.8113 291.626 39.7869 291.991 39.7625 292.369C39.7503 292.515 39.7504 292.661 39.7504 292.807C39.787 292.466 39.848 292.125 39.8846 291.809C39.9823 291.042 40.0921 290.275 40.2142 289.508C40.4217 288.205 40.678 286.915 40.9587 285.636C41.5324 283.056 42.2404 280.523 42.9483 277.979C44.4008 272.756 45.78 267.509 47.318 262.323C48.0137 259.986 48.8437 257.685 50.1132 255.579C51.1262 253.911 52.3468 252.389 53.6773 250.965C56.3992 248.068 59.5239 245.596 62.5265 242.991C65.7977 240.142 69.2154 237.002 71.1439 233.045C71.3514 232.595 70.7289 232.217 70.4848 232.656Z" fill="#1C1C1B"/>
<path d="M39.7138 293.404C39.7382 293.209 39.7383 293.002 39.7505 292.795C39.7139 293.002 39.7016 293.209 39.7138 293.404Z" fill="#1C1C1B"/>
<path d="M39.7261 293.768C39.7139 293.647 39.7139 293.525 39.7139 293.403C39.7016 293.525 39.6772 293.647 39.6528 293.756C39.6284 293.817 39.7261 293.817 39.7261 293.768Z" fill="#1C1C1B"/> <!--bucket cap -->
<path d="M38.1637 241.067C38.5177 236.405 39.3477 231.766 40.9589 227.36C41.0077 227.226 40.8003 227.165 40.7514 227.299C37.7854 235.09 37.346 243.478 37.4436 251.732C37.4924 255.98 37.6755 260.229 37.7121 264.478C37.7609 268.885 37.6023 273.28 37.2239 277.662C36.8211 282.3 36.2353 286.914 35.625 291.528C30.5351 280.779 25.8846 269.822 21.759 258.671C20.5506 255.396 19.3789 252.097 18.2559 248.786C18.1095 248.36 17.4381 248.542 17.5724 248.968C21.5271 260.704 26.0311 272.257 31.0843 283.566C32.5124 286.756 33.9771 289.921 35.5029 293.074C35.6859 293.464 36.1864 293.208 36.223 292.88C37.3582 284.005 38.4201 275.118 38.3591 266.158C38.298 257.819 37.529 249.443 38.1637 241.067Z" fill="#1C1C1B"/>
<path d="M21.429 279.294C23.382 288.266 24.7124 297.664 23.3087 306.697C26.4578 306.71 42.3377 306.795 47.452 306.746C47.3909 305.955 47.3299 305.176 47.2933 304.384C47.0003 298.784 47.3665 293.148 49.0387 287.767C49.4415 286.464 50.2837 282.228 50.8208 280.962L50.7231 279.294H21.429Z" fill="#ff9500"/>
<path d="M51.9438 274.314L20.538 274.363C20.2695 274.363 20.0133 274.387 19.7569 274.436V281.68C20.0133 281.728 20.2695 281.753 20.538 281.753L51.2847 281.692L51.9438 274.314Z" fill="#1A0400"/> <!--bucket cap -->
<path d="M46.2442 285.307C45.8048 285.819 45.463 286.464 45.1579 287.06C44.8527 287.657 44.5963 288.29 44.3522 288.923C43.864 290.226 43.5711 291.54 43.4368 292.916C43.388 293.488 44.3523 293.634 44.4621 293.05C44.694 291.784 44.9991 290.505 45.4141 289.276C45.6216 288.667 45.8658 288.071 46.1343 287.474C46.3906 286.89 46.7202 286.318 46.9643 285.721C47.123 285.332 46.5127 284.991 46.2442 285.307Z" fill="#1C1C1B"/>
<path d="M44.0221 296.544C44.0343 296.13 43.3874 296.13 43.3752 296.544C43.3019 298.638 42.8992 300.707 42.9602 302.813C42.9846 303.483 43.9122 303.446 43.9733 302.813C44.2052 300.72 43.9489 298.638 44.0221 296.544Z" fill="#1C1C1B"/>
<path d="M41.984 304.907C39.8114 304.554 37.5777 304.445 35.3929 304.713C34.6605 304.798 34.7948 305.808 35.5271 305.711C37.6387 305.431 39.7748 305.37 41.8864 305.614C42.2892 305.662 42.3868 304.968 41.984 304.907Z" fill="#1C1C1B"/>
<path d="M297.575 213.298C295.378 214.272 292.619 216.086 292.29 218.679C292.192 219.446 290.996 219.787 290.813 218.874C290.532 217.486 289.91 216.22 288.884 215.222C287.823 214.175 286.394 213.724 285.247 212.787C284.893 212.495 285.088 211.825 285.528 211.74C287.774 211.302 290.19 210.072 291.191 207.978C291.081 207.601 290.996 207.199 290.959 206.785C290.911 206.225 291.423 205.763 291.936 205.677C292.51 205.592 292.986 205.957 293.169 206.481C293.657 207.905 294.353 209.159 295.219 210.328C295.952 210.961 296.782 211.509 297.563 212.044C297.966 212.336 298.112 213.067 297.575 213.298Z" fill="#D9E0FC"/>
<path d="M305.948 227.566C305.423 227.055 304.862 226.568 304.313 226.093C304.606 225.947 304.911 225.789 305.204 225.631C305.594 225.412 305.753 224.852 305.509 224.474C305.24 224.048 304.789 223.987 304.349 224.17C304.215 224.231 304.081 224.292 303.959 224.352C304.117 223.379 304.288 222.392 304.508 221.419C304.679 220.652 303.519 220.323 303.324 221.09C303.043 222.21 302.726 223.33 302.421 224.438C301.896 223.987 301.371 223.525 300.846 223.074C300.566 222.831 300.15 222.806 299.882 223.074C299.613 223.342 299.626 223.768 299.882 224.036C300.382 224.572 300.883 225.107 301.371 225.655C301.127 225.789 300.871 225.923 300.639 226.081C300.248 226.325 299.821 226.519 299.406 226.726C299.04 226.909 298.93 227.432 299.125 227.773C299.345 228.151 299.797 228.236 300.175 228.041C300.553 227.846 300.944 227.627 301.334 227.481C301.457 227.432 301.566 227.384 301.676 227.335C301.615 227.579 301.554 227.822 301.505 228.053C301.31 228.869 301.017 229.709 300.981 230.549C300.932 231.73 302.677 231.912 303.007 230.817C303.226 230.062 303.226 229.234 303.324 228.455C303.348 228.26 303.385 228.066 303.409 227.859C303.763 228.236 304.13 228.613 304.508 228.991C304.886 229.356 305.57 229.405 305.948 228.991C306.314 228.601 306.351 227.956 305.948 227.566Z" fill="#D9E0FC"/>
<path d="M30.2663 60.6498C28.6673 59.9437 27.4834 58.6776 26.8609 57.0585C26.6412 56.4742 25.8478 56.4376 25.6403 57.0585C25.3718 57.8498 24.9079 58.5559 24.383 59.1889C24.3586 59.2255 24.3342 59.262 24.3098 59.2863C23.8338 59.6881 23.2845 60.0289 22.6864 60.2237C22.2958 60.3454 22.2714 60.9298 22.6864 61.0394C23.5042 61.2585 24.2121 61.5872 24.8102 62.1959C25.3839 62.7924 25.7501 63.5228 25.8843 64.3263C25.9942 64.9837 26.9951 64.7037 26.8975 64.0463C26.7876 63.3524 27.52 62.8411 28.0448 62.5611C28.765 62.1715 29.534 61.8428 30.2907 61.502C30.5959 61.3681 30.5958 60.7959 30.2663 60.6498Z" fill="#D9E0FC"/>
<path d="M22.0391 43.716C22.4175 43.8742 22.9058 44.2029 22.7349 44.5681C22.6372 44.7751 22.3931 44.8481 22.1734 44.909C19.8787 45.469 15.6433 46.3455 15.7897 49.5351C15.8142 50.2168 14.7888 50.3264 14.618 49.6933C14.0199 47.356 12.5918 45.2377 10.4191 44.1177C9.93089 43.862 10.1994 43.1925 10.6755 43.1559C11.8961 43.0707 13.0556 42.5716 13.9832 41.7925C15.094 40.8673 15.3747 40.3438 15.6554 38.9803C15.7653 38.4325 16.0827 37.8603 16.632 37.7264C16.7296 37.702 16.8517 37.6899 16.9493 37.7386C17.1446 37.8116 17.23 38.0429 17.291 38.2377C18.0478 40.429 19.5125 42.4499 21.5631 43.509C21.734 43.5699 21.8805 43.6429 22.0391 43.716Z" fill="#D9E0FC"/>
<path d="M270.441 77.0483C269.867 76.6952 268.879 76.5978 268.476 76.0378C267.756 75.0152 269.513 75.0517 270.002 74.9178C270.905 74.6744 271.637 73.9804 272.126 73.177C272.614 72.3735 272.882 71.4604 273.139 70.5596C273.749 70.8883 273.871 71.6674 274.127 72.3126C274.567 73.4083 275.568 74.2117 276.703 74.5039C277.106 74.6013 279.29 75.0761 277.777 75.8552C276.764 76.3665 275.616 76.8048 274.786 77.6083C274.262 78.1196 273.48 80.5665 272.882 80.4691C272.614 80.4326 272.418 80.2135 272.296 79.97C272.187 79.7265 272.138 79.4587 272.065 79.203C271.93 78.7404 271.711 78.3022 271.405 77.9248C271.149 77.5839 270.819 77.2918 270.441 77.0483Z" fill="#D9E0FC"/>
<path d="M13.5688 82.0275C11.0422 82.8431 9.63852 85.3022 9.01602 87.7127C8.83293 88.3944 7.72218 88.2605 7.771 87.5422C7.84423 86.264 7.36821 85.0466 6.55041 84.0727C5.57394 82.904 4.38997 82.5509 3.03511 81.9422C2.83982 81.857 2.6079 81.7353 2.57128 81.5162C2.53467 81.3092 2.70555 81.1144 2.87643 80.9927C3.45011 80.6031 4.19468 80.6396 4.87821 80.5057C6.5138 80.2014 7.89305 78.8257 8.22261 77.2066C8.29585 76.8657 8.32027 76.5005 8.46674 76.184C8.61321 75.8675 8.94276 75.5996 9.29673 75.6483C9.72394 75.7092 9.9436 76.1718 10.0901 76.5736C10.383 77.3892 10.5783 78.1562 11.2008 78.777C11.9454 79.5196 12.8486 80.104 13.7518 80.6153C14.3499 80.9562 14.1791 81.8327 13.5688 82.0275Z" fill="#D9E0FC"/>
</svg>
