<svg width="28" height="28" viewBox="0 0 28 28" fill="none" xmlns="http://www.w3.org/2000/svg">
<g clip-path="url(#clip0_3_1437)">
<path d="M0 3.11099V13.2222H13.2222V0H3.11099C1.39282 0 0 1.39282 0 3.11099ZM4.2778 5.8334H5.8334V4.2778C5.8334 3.84821 6.18161 3.5 6.61121 3.5C7.0408 3.5 7.38901 3.84821 7.38901 4.2778V5.8334H8.94461C9.37399 5.8334 9.72241 6.18161 9.72241 6.61121C9.72241 7.0408 9.37421 7.38901 8.94461 7.38901H7.38901V8.94461C7.38901 9.37399 7.0408 9.72241 6.61121 9.72241C6.18161 9.72241 5.8334 9.37421 5.8334 8.94461V7.38901H4.2778C3.84821 7.38901 3.5 7.0408 3.5 6.61121C3.5 6.18161 3.84821 5.8334 4.2778 5.8334Z" fill="#918CFF"/>
<path d="M24.889 0H14.7778V13.2222H28V3.11099C28 1.39282 26.6072 0 24.889 0ZM23.7222 7.38901H19.0556C18.626 7.38901 18.2778 7.0408 18.2778 6.61099C18.2778 6.1814 18.626 5.83319 19.0556 5.83319H23.7222C24.1518 5.83319 24.5 6.1814 24.5 6.61099C24.5 7.0408 24.1518 7.38901 23.7222 7.38901Z" fill="#918CFF"/>
<path d="M0 24.889C0 26.6072 1.39282 28 3.11099 28H13.2222V14.7778H0V24.889ZM4.41153 20.2891C4.1131 19.98 4.12164 19.4878 4.43054 19.1894C4.73196 18.8982 5.20984 18.8982 5.51126 19.1894L6.61121 20.2891L7.71094 19.1894C8.02005 18.8909 8.51245 18.8995 8.81088 19.2084C9.10184 19.5098 9.10184 19.9877 8.81088 20.2891L7.71094 21.389L8.81088 22.4888C9.11978 22.7872 9.12833 23.2796 8.8299 23.5885C8.53146 23.8976 8.03906 23.9062 7.73016 23.6077C7.72354 23.6015 7.71735 23.5951 7.71094 23.5885L6.61121 22.4888L5.51126 23.5885C5.20236 23.8871 4.70996 23.8786 4.41153 23.5695C4.12036 23.2681 4.12036 22.7902 4.41153 22.4888L5.51126 21.389L4.41153 20.2891Z" fill="#918CFF"/>
<path d="M14.7778 28H24.889C26.6072 28 28 26.6072 28 24.889V14.7778H14.7778V28ZM19.0556 19.0556H23.7222C24.1518 19.0556 24.5 19.4038 24.5 19.8334C24.5 20.263 24.1518 20.6112 23.7222 20.6112H19.0556C18.626 20.6112 18.2778 20.263 18.2778 19.8334C18.2778 19.4038 18.626 19.0556 19.0556 19.0556ZM19.0556 22.1666H23.7222C24.1518 22.1666 24.5 22.5148 24.5 22.9444C24.5 23.374 24.1518 23.7222 23.7222 23.7222H19.0556C18.626 23.7222 18.2778 23.374 18.2778 22.9444C18.2778 22.5148 18.626 22.1666 19.0556 22.1666Z" fill="#918CFF"/>
</g>
<defs>
<clipPath id="clip0_3_1437">
<rect width="28" height="28" fill="white"/>
</clipPath>
</defs>
</svg>
