<svg width="50" height="50" viewBox="0 0 50 50" fill="none" xmlns="http://www.w3.org/2000/svg">
<path d="M34.5229 11.5801L20.7717 31.5063L18.823 47.4473L39.1864 49.9997L42.5781 21.8311L34.5229 11.5801Z" fill="#5995ed"/>
<path d="M48.7147 1.25174C47.9435 0.480545 46.8819 0.0531037 45.7953 0.00544743C44.6126 -0.046408 43.4004 0.351834 42.5005 1.25174L32.3357 11.4502L33.3431 12.4576L34.4071 13.5216L37.4256 10.4684C40.2897 12.362 44.1594 12.0213 46.6433 9.53738L48.7147 7.46599C50.4285 5.75213 50.4285 2.96551 48.7147 1.25174ZM46.6433 5.39451L44.5719 7.4659C43.2201 8.81775 41.2031 9.10379 39.5694 8.3242L44.5719 3.32312C45.1441 2.75096 46.0711 2.75096 46.6433 3.32312C47.2141 3.89392 47.2141 4.82371 46.6433 5.39451Z" fill="#516373"/>
<path d="M37.4256 10.4678C40.2897 12.3613 44.1594 12.0206 46.6433 9.53672L48.7147 7.46533C50.4284 5.75156 50.4284 2.96494 48.7147 1.25117C47.9435 0.47998 46.8818 0.0525391 45.7952 0.00488281L33.3431 12.457L34.407 13.521L37.4256 10.4678ZM44.572 3.32256C45.1442 2.75039 46.0712 2.75039 46.6434 3.32256C47.2142 3.89336 47.2142 4.82314 46.6434 5.39395L44.572 7.46533C43.2201 8.81719 41.2031 9.10322 39.5694 8.32363L44.572 3.32256Z" fill="#3E4D59"/>
<path d="M34.7642 11.0352H20.3351L0 31.2996L7.25059 38.5502L14.5011 45.8008L34.7656 25.5221V11.0352H34.7642Z" fill="#FF6652"/>
<path d="M34.7656 25.5221V11.0352L7.25061 38.5502L14.5011 45.8008L34.7656 25.5221Z" fill="#E64A36"/>
<path d="M27.1557 20.7716L26.0925 19.7084L25.0843 18.7002L22.8034 20.9812C21.1739 20.2137 19.182 20.462 17.8345 21.8072C16.1301 23.5116 16.1215 26.2775 17.8072 27.9937C18.4486 28.6468 18.3709 29.5577 17.8345 30.0941C17.268 30.6606 16.322 30.6825 15.7365 30.0644C15.1938 29.4914 15.2018 28.5841 15.7631 28.0228L13.6889 25.9514C12.346 27.2977 12.0975 29.2891 12.8651 30.9193L10.5833 33.2012L11.5915 34.2094L12.6546 35.2726L14.9354 32.9918C16.8355 33.8895 18.7143 33.3571 19.9059 32.1655C21.4825 30.589 21.7639 27.9151 19.8793 25.9216C19.3367 25.3474 19.3447 24.4414 19.9059 23.8801C20.466 23.3172 21.3768 23.3106 21.9484 23.8525C22.5533 24.4262 22.5527 25.3746 21.9773 25.9515L24.0487 28.0229C25.3952 26.6764 25.6444 24.6837 24.8751 23.0521L27.1557 20.7716Z" fill="white"/>
<path d="M21.9773 25.9511L24.0487 28.0225C25.3952 26.676 25.6444 24.6833 24.8751 23.0518L27.1557 20.7712L26.0925 19.708L21.9484 23.8521C22.5532 24.4258 22.5527 25.3742 21.9773 25.9511Z" fill="white"/>
<path d="M14.9354 32.9911C16.8355 33.8888 18.7143 33.3564 19.906 32.1648C21.4825 30.5883 21.764 27.9145 19.8794 25.9209L17.8072 27.9931C18.4486 28.6463 18.371 29.5571 17.8346 30.0936C17.2681 30.6601 16.3221 30.6819 15.7365 30.0638L11.5915 34.2088L12.6547 35.272L14.9354 32.9911Z" fill="white"/>
</svg>
